SplineFontDB: 3.0
FontName: russianroadsign-medium
FullName: Russian Road Sign
FamilyName: Russian Road Sign
Weight: Medium
Copyright: CC-BY-SA. Based on standards GOST 10807-78 and GOST R 52290-2004. Digitized by Alexander Sapozhnikov http://shoorick.ru
UComments: "2013-1-26: Created."
Version: 001.000
ItalicAngle: 0
UnderlinePosition: -100
UnderlineWidth: 50
Ascent: 800
Descent: 200
InvalidEm: 0
LayerCount: 2
Layer: 0 0 "Back" 1
Layer: 1 0 "Fore" 0
XUID: [1021 632 699837233 8314019]
StyleMap: 0x0000
FSType: 0
OS2Version: 0
OS2_WeightWidthSlopeOnly: 0
OS2_UseTypoMetrics: 1
CreationTime: 1359148831
ModificationTime: 1546887689
OS2TypoAscent: 0
OS2TypoAOffset: 1
OS2TypoDescent: 0
OS2TypoDOffset: 1
OS2TypoLinegap: 90
OS2WinAscent: 0
OS2WinAOffset: 1
OS2WinDescent: 0
OS2WinDOffset: 1
HheadAscent: 0
HheadAOffset: 1
HheadDescent: 0
HheadDOffset: 1
OS2Vendor: 'PfEd'
Lookup: 260 0 0 "Mark to base attachment lookup 0" { "Mark to base attachment lookup 0-1"  } ['Mark' ('DFLT' <'dflt' > 'cyrl' <'dflt' > 'grek' <'dflt' > 'latn' <'dflt' > ) ]
MarkAttachClasses: 1
DEI: 91125
LangName: 1033
Encoding: UnicodeFull
UnicodeInterp: none
NameList: Adobe Glyph List
DisplaySize: -72
AntiAlias: 1
FitToEm: 1
WinInfo: 1040 26 10
BeginPrivate: 0
EndPrivate
AnchorClass2: "FirstAnchor" "Mark to base attachment lookup 0-1"
BeginChars: 1114112 1083

StartChar: F
Encoding: 70 70 0
Width: 511
VWidth: 0
Flags: W
HStem: 0 21G<91 189> 238 84<189 392> 469 91<189 448>
VStem: 91 98<0 238 322 469>
LayerCount: 2
Fore
SplineSet
91 0 m 25
 91 560 l 25
 448 560 l 25
 448 469 l 25
 189 469 l 25
 189 322 l 25
 392 322 l 25
 392 238 l 25
 189 238 l 25
 189 0 l 25
 91 0 l 25
EndSplineSet
Validated: 1
EndChar

StartChar: E
Encoding: 69 69 1
Width: 539
VWidth: 0
Flags: W
HStem: 0 84<189 448> 252 84<189 392> 469 91<189 441>
VStem: 91 98<84 252 336 469>
LayerCount: 2
Fore
SplineSet
91 0 m 25
 91 560 l 25
 441 560 l 25
 441 469 l 25
 189 469 l 25
 189 336 l 25
 392 336 l 25
 392 252 l 25
 189 252 l 17
 189 84 l 1
 448 84 l 1
 448 0 l 9
 91 0 l 25
EndSplineSet
Validated: 1
EndChar

StartChar: H
Encoding: 72 72 2
Width: 588
VWidth: 0
Flags: W
HStem: 0 21G<91 189 399 497> 252 84<189 399> 540 20G<91 189 399 497>
VStem: 91 98<0 252 336 560> 399 98<0 252 336 560>
LayerCount: 2
Fore
SplineSet
91 0 m 25
 91 560 l 25
 189 560 l 25
 189 336 l 25
 399 336 l 25
 399 560 l 29
 497 560 l 25
 497 0 l 25
 399 0 l 25
 399 252 l 25
 189 252 l 25
 189 0 l 25
 91 0 l 25
EndSplineSet
Validated: 1
EndChar

StartChar: A
Encoding: 65 65 3
Width: 616
VWidth: 0
Flags: W
HStem: 0 21G<70 181.25 434.75 546> 112 84<238 378> 540 20G<245.5 370.5>
LayerCount: 2
Fore
SplineSet
238 196 m 1
 378 196 l 1
 308 434 l 1
 238 196 l 1
252 560 m 25
 364 560 l 25
 546 0 l 25
 441 0 l 25
 406 112 l 1
 210 112 l 1
 175 0 l 25
 70 0 l 25
 252 560 l 25
EndSplineSet
Validated: 1
EndChar

StartChar: X
Encoding: 88 88 4
Width: 544
VWidth: 0
Flags: W
HStem: 0 21G<42 171.034 372.966 502> 540 20G<56 191.4 352.6 488>
LayerCount: 2
Fore
SplineSet
181 560 m 1
 272 385 l 25
 363 560 l 1
 488 560 l 1
 328 294 l 25
 502 0 l 1
 384 0 l 1
 272 203 l 25
 160 0 l 1
 42 0 l 1
 216 294 l 25
 56 560 l 1
 181 560 l 1
EndSplineSet
Validated: 1
EndChar

StartChar: numbersign
Encoding: 35 35 5
Width: 694
VWidth: 0
Flags: W
HStem: 0 21G<112 213 322 423> 140 84<56 133 245 343 455 532> 336 84<84 161 273 371 483 560> 540 20G<193 294 403 504>
VStem: 112 98<0 46.6667> 322 98<0 46.6667>
LayerCount: 2
Fore
SplineSet
259 336 m 25
 245 224 l 25
 357 224 l 25
 371 336 l 25
 259 336 l 25
196 560 m 25
 294 560 l 25
 273 420 l 25
 385 420 l 25
 406 560 l 25
 504 560 l 25
 483 420 l 25
 560 420 l 25
 560 336 l 25
 469 336 l 25
 455 224 l 25
 532 224 l 25
 532 140 l 25
 441 140 l 25
 420 0 l 25
 322 0 l 25
 343 140 l 25
 231 140 l 25
 210 0 l 25
 112 0 l 25
 133 140 l 25
 56 140 l 25
 56 224 l 25
 147 224 l 25
 161 336 l 25
 84 336 l 25
 84 420 l 25
 175 420 l 25
 196 560 l 25
EndSplineSet
Validated: 1
EndChar

StartChar: W
Encoding: 87 87 6
Width: 812
VWidth: 0
Flags: W
HStem: 0 21G<198.75 319.932 492.068 613.25> 540 20G<84 192.99 352.703 459.584 619.121 728>
LayerCount: 2
Fore
SplineSet
189 560 m 25
 267 169 l 1
 273 169 l 1
 357 560 l 25
 455 560 l 25
 546 163 l 1
 623 560 l 25
 728 560 l 25
 609 0 l 25
 497 0 l 25
 406 369 l 1
 315 0 l 25
 203 0 l 25
 84 560 l 25
 189 560 l 25
EndSplineSet
Validated: 1
EndChar

StartChar: Y
Encoding: 89 89 7
Width: 588
VWidth: 0
Flags: W
HStem: 0 21G<245 343> 540 20G<70 191.697 396.303 518>
VStem: 245 98<0 224>
LayerCount: 2
Fore
SplineSet
245 0 m 25
 245 224 l 1
 70 560 l 9
 182 560 l 9
 294 329 l 1
 406 560 l 9
 518 560 l 9
 343 224 l 1
 343 0 l 17
 245 0 l 25
EndSplineSet
Validated: 1
EndChar

StartChar: Z
Encoding: 90 90 8
Width: 560
VWidth: 0
HStem: 0 84<210 469> 476 84<98 343>
LayerCount: 2
Fore
SplineSet
91 0 m 25
 91 91 l 25
 343 476 l 25
 98 476 l 25
 98 560 l 25
 462 560 l 25
 462 469 l 25
 210 84 l 25
 469 84 l 25
 469 0 l 25
 91 0 l 25
EndSplineSet
Validated: 1
EndChar

StartChar: z
Encoding: 122 122 9
Width: 467
VWidth: 0
Flags: W
HStem: 0 77<203 385> 315 77<98 280>
VStem: 98 287<77 154>
LayerCount: 2
Fore
SplineSet
98 0 m 25
 98 77 l 25
 280 315 l 25
 98 315 l 25
 98 392 l 25
 378 392 l 25
 378 308 l 25
 203 77 l 25
 385 77 l 25
 385 0 l 25
 98 0 l 25
EndSplineSet
Validated: 1
EndChar

StartChar: y
Encoding: 121 121 10
Width: 490
VWidth: 0
Flags: W
HStem: -168 75.64<81.6584 158.973> 372 20G<56 161.119 308.475 413>
LayerCount: 2
Fore
SplineSet
84 -84 m 1
 96.1119 -89.8036 106.95 -92.36 116.66 -92.36 c 0
 145.43 -92.36 164.29 -69.916 177 -43 c 0
 183 -29 187 -14 191 -0 c 1
 56 392 l 0
 154 392 l 0
 238 156 l 1
 315 392 l 0
 413 392 l 0
 252 -91 l 0
 231 -140 182 -168 140 -168 c 0
 112 -168 94 -165 70 -161 c 0
 84 -84 l 1
EndSplineSet
Validated: 1
EndChar

StartChar: x
Encoding: 120 120 11
Width: 448
VWidth: 0
HStem: 0 21G<42 152 296 406> 372 20G<56 172.25 275.75 392>
LayerCount: 2
Fore
SplineSet
161 392 m 25
 224 280 l 25
 287 392 l 25
 392 392 l 25
 273 208 l 25
 406 0 l 25
 308 0 l 25
 224 140 l 25
 140 0 l 25
 42 0 l 25
 175 208 l 25
 56 392 l 25
 161 392 l 25
EndSplineSet
Validated: 1
EndChar

StartChar: zero
Encoding: 48 48 12
Width: 504
VWidth: 0
Flags: W
HStem: -7 87<205.992 298.008> 480 87<205.992 298.008>
VStem: 63 98<138.048 421.952> 343 98<138.048 416.497>
LayerCount: 2
Fore
SplineSet
252 567 m 0
 364 567 441 439 441 280 c 0
 441 112 364 -7 252 -7 c 0
 140 -7 63 112 63 280 c 0
 63 448 140 567 252 567 c 0
252 480 m 0
 198 480 161 420 161 280 c 0
 161 140 198 80 252 80 c 0
 306 80 343 140 343 280 c 0
 343 420 306 480 252 480 c 0
EndSplineSet
Validated: 1
EndChar

StartChar: one
Encoding: 49 49 13
Width: 322
VWidth: 0
Flags: W
HStem: 0 21G<119 217> 540 20G<114.231 217>
VStem: 119 98<0 434>
LayerCount: 2
Fore
SplineSet
11 430 m 1
 133 560 l 1
 217 560 l 1
 217 0 l 1
 119 0 l 1
 119 434 l 1
 44 387 l 1
 11 430 l 1
EndSplineSet
Validated: 1
EndChar

StartChar: two
Encoding: 50 50 14
Width: 490
VWidth: 0
Flags: W
HStem: 0 91<182 394.543> 493 74<183.528 293.008>
VStem: 319 94<343.666 468.274>
LayerCount: 2
Fore
SplineSet
70 483 m 1
 112 531 168 567 252 567 c 0
 329 567 413 504 413 420 c 0
 413 350 400 328 364 284 c 0
 320 228 254 167 182 91 c 1
 413 91 l 1
 413 70 406 35 392 0 c 1
 56 0 l 1
 56 84 l 1
 133 154 197 221 260 296 c 0
 294 336 319 364 319 420 c 0
 319 455 287 493 238 493 c 0
 196 493 161 455 126 420 c 1
 70 483 l 1
EndSplineSet
Validated: 1
EndChar

StartChar: three
Encoding: 51 51 15
Width: 488
VWidth: 0
Flags: W
HStem: -14 91<75.0544 277.782> 245 77<168 216.202> 490 85<135.261 275.45>
VStem: 294 98<379.493 470.275> 316 100<112.024 226.84>
LayerCount: 2
Fore
SplineSet
63 525 m 1xf0
 98 546 186 575 242 575 c 0
 312 575 392 525 392 448 c 0xf0
 392 371 336 315 280 308 c 1
 315 301 416 259 416 168 c 0
 416 84 343 -14 210 -14 c 0
 154 -14 67 10 67 10 c 1
 55 108 l 1
 89 85 150 77 196 77 c 0
 259 77 315 105 316 170 c 0xe8
 316 194 308 252 217 252 c 0
 200 252 182 252 168 245 c 1
 168 322 l 1
 238 336 294 385 294 427 c 0
 294 462 259 490 224 490 c 0
 168 490 140 476 100 442 c 1
 63 525 l 1xf0
EndSplineSet
Validated: 1
EndChar

StartChar: four
Encoding: 52 52 16
Width: 510
VWidth: 0
Flags: W
HStem: 0 21G<308 406> 112 84<147 308 406 444> 540 20G<300 399>
VStem: 308 98<0 112> 308 91<196 413>
LayerCount: 2
Fore
SplineSet
315 560 m 1xf0
 399 560 l 1
 399 196 l 1xe8
 476 196 l 1
 444 112 l 1
 406 112 l 1
 406 0 l 1
 308 0 l 1
 308 112 l 1
 42 112 l 1
 42 196 l 1
 315 560 l 1xf0
308 413 m 1
 147 196 l 1
 308 196 l 1
 308 413 l 1
EndSplineSet
Validated: 1
EndChar

StartChar: five
Encoding: 53 53 17
Width: 492
VWidth: 0
Flags: W
HStem: -7 91<95.3879 270.777> 294 77<181.322 284.612> 469 91<168 371>
VStem: 77 91<336 469> 322 105<130.078 253.9>
LayerCount: 2
Fore
SplineSet
371 469 m 1
 168 469 l 1
 168 336 l 1
 189 364 227 371 259 371 c 0
 336 371 427 308 427 196 c 0
 427 84 343 -7 210 -7 c 0
 147 -7 77 21 77 21 c 1
 63 112 l 1
 97 89 150 84 196 84 c 0
 252 84 322 119 322 189 c 0
 322 238 287 294 224 294 c 0
 182 294 154 259 140 252 c 1
 77 287 l 1
 77 560 l 1
 399 560 l 1
 371 469 l 1
EndSplineSet
Validated: 1
EndChar

StartChar: six
Encoding: 54 54 18
Width: 511
VWidth: 0
Flags: W
HStem: -7 91<211.711 308.431> 280 81<223.259 325.742> 490 79<232.935 395.298>
VStem: 350 91<127.089 256.135>
LayerCount: 2
Fore
SplineSet
280 569 m 0
 336 569 399 546 399 546 c 1
 413 461 l 1
 413 461 357 490 294 490 c 0
 168 490 162 301 162 301 c 1
 196 329 245 361 294 361 c 0
 336 361 441 329 441 196 c 0
 441 84 357 -7 266 -7 c 0
 147 -7 70 91 70 266 c 0
 70 420 133 569 280 569 c 0
280 280 m 0
 231 280 164 210 164 210 c 1
 164 210 189 84 253 84 c 0
 315 84 350 147 350 196 c 0
 350 252 308 280 280 280 c 0
EndSplineSet
Validated: 1
EndChar

StartChar: seven
Encoding: 55 55 20
Width: 450
VWidth: 0
Flags: W
HStem: 0 21G<119 245> 469 91<70 308>
VStem: 119 105<0 86.961>
LayerCount: 2
Fore
SplineSet
49 469 m 1
 70 560 l 1
 406 560 l 1
 406 490 l 1
 336 350 266 203 224 0 c 5
 119 0 l 1
 147 168 231 343 308 469 c 1
 49 469 l 1
EndSplineSet
Validated: 1
EndChar

StartChar: eight
Encoding: 56 56 21
Width: 504
VWidth: 0
Flags: W
HStem: -7 84<186.056 317.944> 487 80<192.272 311.728>
VStem: 63 98<101.086 192.563> 77 98<378.711 470.409> 329 98<378.711 470.409> 343 98<101.086 196.028>
LayerCount: 2
Fore
SplineSet
252 567 m 0xd0
 343 567 427 518 427 420 c 0
 427 322 329 294 329 294 c 1xd8
 329 294 441 252 441 154 c 0
 441 84 392 -7 252 -7 c 0
 112 -7 63 84 63 154 c 0xe4
 63 252 175 294 175 294 c 1
 175 294 77 322 77 420 c 0
 77 518 161 567 252 567 c 0xd0
252 487 m 0
 210 487 175 469 175 420 c 0
 175 378 252 336 252 336 c 1
 252 336 329 378 329 420 c 0
 329 469 294 487 252 487 c 0
252 252 m 1
 252 252 161 196 161 147 c 0
 161 98 210 77 252 77 c 0
 294 77 343 98 343 147 c 0xe4
 343 203 252 252 252 252 c 1
EndSplineSet
Validated: 1
EndChar

StartChar: nine
Encoding: 57 57 22
Width: 504
VWidth: 0
Flags: W
HStem: -10 84<112.92 265.92> 203 84<179.149 282.903> 483 90<190.183 290.714>
VStem: 63 91<312.306 443.606>
LayerCount: 2
Fore
SplineSet
210 -10 m 0
 154 -10 91 21 91 21 c 1
 80 107 l 1
 80 107 140 74 203 74 c 0
 329 74 336 259 336 259 c 1
 301 231 252 203 203 203 c 0
 161 203 63 231 63 364 c 0
 63 476 140 573 231 573 c 0
 350 573 434 483 434 308 c 0
 434 140 371 -10 210 -10 c 0
224 287 m 0
 294 287 333 356 333 356 c 1
 329 385 312 483 245 483 c 0
 183 483 154 420 154 371 c 0
 154 315 196 287 224 287 c 0
EndSplineSet
Validated: 1
EndChar

StartChar: hyphen
Encoding: 45 45 23
Width: 336
VWidth: 0
Flags: W
HStem: 147 91<70 266>
VStem: 70 196<147 238>
LayerCount: 2
Fore
SplineSet
70 147 m 1
 70 238 l 1
 266 238 l 1
 266 147 l 1
 70 147 l 1
EndSplineSet
Validated: 1
EndChar

StartChar: afii10030
Encoding: 1052 1052 24
Width: 700
VWidth: 0
Flags: W
HStem: 0 21G<63 169.695 530.305 637> 540 20G<123.75 233.231 466.769 576.25>
VStem: 63 105<0 62.2222> 532 105<0 62.2222>
LayerCount: 2
Fore
SplineSet
63 0 m 1
 126 560 l 1
 224 560 l 1
 350 287 l 1
 476 560 l 1
 574 560 l 1
 637 0 l 1
 532 0 l 1
 497 413 l 1
 350 84 l 1
 203 413 l 1
 168 0 l 1
 63 0 l 1
EndSplineSet
Validated: 1
EndChar

StartChar: afii10078
Encoding: 1084 1084 25
Width: 588
VWidth: 0
Flags: W
HStem: 0 21G<77 162.538 425.462 511> 372 20G<110.214 206 382 477.786>
LayerCount: 2
Fore
SplineSet
77 0 m 1
 112 392 l 1
 196 392 l 1
 294 196 l 1
 392 392 l 1
 476 392 l 1
 511 0 l 1
 427 0 l 1
 406 273 l 1
 294 49 l 1
 182 273 l 1
 161 0 l 1
 77 0 l 1
EndSplineSet
Validated: 1
EndChar

StartChar: P
Encoding: 80 80 26
Width: 560
VWidth: 0
Flags: W
HStem: 0 21G<91 189> 196 84<189 326.006> 476 84<189 326.006>
VStem: 91 98<0 196 280 476> 364 98<316.654 439.346>
LayerCount: 2
Fore
SplineSet
90 -0 m 1029,0,-1
92 0 m 1029,1,-1
190 280 m 1029,2,-1
188 280 m 1029,3,-1
190 280 m 1029,4,-1
188 280 m 1029,5,-1
91 560 m 5,6,-1
 280 560 l 6,7,-1
 413 560 462 455 462 378 c 4,10,-1
 462 301 413 196 280 196 c 6,13,-1
 189 196 l 5,14,-1
 189 0 l 5,15,-1
 91 0 l 5,16,-1
 91 560 l 5,6,-1
189 476 m 5,17,-1
 189 280 l 5,18,-1
 252 280 l 6,19,-1
 308 280 364 308 364 378 c 4,22,-1
 364 448 308 476 252 476 c 6,25,-1
 189 476 l 5,17,-1
EndSplineSet
Validated: 1
EndChar

StartChar: R
Encoding: 82 82 27
Width: 616
VWidth: 0
Flags: W
HStem: 0 21G<98 196 409.082 539> 224 84<196 312.563> 476 84<196 334.284>
VStem: 98 98<0 224 308 476> 364 98<336.207 447.71>
LayerCount: 2
Fore
SplineSet
98 560 m 1
 287 560 l 2
 427 560 462 462 462 406 c 0
 462 329 413 280 357 259 c 1
 448 238 476 28 539 0 c 1
 420 0 l 1
 398.164 29.1143 380.103 88.499 354.031 138.812 c 0
 329.955 185.274 315 224 252 224 c 2
 196 224 l 1
 196 0 l 1
 98 0 l 1
 98 560 l 1
196 476 m 1
 196 308 l 1
 259 308 l 2
 315 308 364 332 364 392 c 0
 364 452 315 476 259 476 c 2
 196 476 l 1
EndSplineSet
Validated: 1
EndChar

StartChar: T
Encoding: 84 84 28
Width: 532
VWidth: 0
Flags: W
HStem: 0 21G<217 315> 476 84<63 217 315 469>
VStem: 217 98<0 476>
LayerCount: 2
Fore
SplineSet
63 560 m 1
 469 560 l 1
 469 476 l 1
 315 476 l 1
 315 0 l 1
 217 0 l 1
 217 476 l 1
 63 476 l 1
 63 560 l 1
EndSplineSet
Validated: 1
EndChar

StartChar: K
Encoding: 75 75 29
Width: 583
VWidth: 0
Flags: W
HStem: 0 21G<95 193 388.878 529> 540 20G<95 193 374.227 515>
VStem: 95 98<0 560>
LayerCount: 2
Fore
SplineSet
403 0 m 1
 194 296 l 1
 389 560 l 1
 515 560 l 1
 314 297 l 1
 529 0 l 1
 403 0 l 1
193 560 m 1
 193 373.333 193 186.667 193 0 c 1
 95 0 l 1
 95 560 l 1
 193 560 l 1
EndSplineSet
Validated: 1
EndChar

StartChar: L
Encoding: 76 76 30
Width: 504
VWidth: 0
Flags: W
HStem: 0 84<189 441> 540 20G<91 189>
VStem: 91 98<84 560>
LayerCount: 2
Fore
SplineSet
91 0 m 1
 91 560 l 1
 189 560 l 1
 189 84 l 1
 441 84 l 1
 441 0 l 1
 91 0 l 1
EndSplineSet
Validated: 1
EndChar

StartChar: afii10049
Encoding: 1071 1071 31
Width: 588
VWidth: 0
Flags: W
HStem: 0 21G<42 175 399 497> 224 84<274.969 399> 476 84<245.984 399>
VStem: 112 98<335.803 444.548> 399 98<0 224 308 476>
LayerCount: 2
Fore
SplineSet
42 0 m 1
 61 10 126 133 147 182 c 0
 162 217 203 256 231 262 c 1
 161 276 112 329 112 406 c 0
 112 462 154 560 294 560 c 2
 497 560 l 1
 497 0 l 1
 399 0 l 1
 399 224 l 1
 336 224 l 2
 273 224 258 185 234 139 c 0
 208 88 189 49 161 0 c 1
 42 0 l 1
210 392 m 0
 210 332 259 308 315 308 c 2
 399 308 l 1
 399 476 l 1
 322 476 l 2
 266 476 210 452 210 392 c 0
EndSplineSet
Validated: 1
EndChar

StartChar: V
Encoding: 86 86 32
Width: 581
VWidth: 0
Flags: W
HStem: 0 21G<225.25 362.5> 540 20G<70 187.333 400.667 511>
LayerCount: 2
Fore
SplineSet
231 0 m 1
 70 560 l 1
 182 560 l 1
 294 140 l 1
 406 560 l 1
 511 560 l 1
 357 0 l 1
 231 0 l 1
EndSplineSet
Validated: 1
EndChar

StartChar: I
Encoding: 73 73 33
Width: 280
VWidth: 0
Flags: W
HStem: 0 21G<91 189> 540 20G<91 189>
VStem: 91 98<0 560>
LayerCount: 2
Fore
SplineSet
91 0 m 1
 91 560 l 1
 189 560 l 1
 189 0 l 1
 91 0 l 1
EndSplineSet
Validated: 1
EndChar

StartChar: J
Encoding: 74 74 34
Width: 392
VWidth: 0
Flags: W
HStem: -14 98<40.8785 179.116> 540 20G<196 294>
VStem: 196 98<100.835 560>
LayerCount: 2
Fore
SplineSet
42 98 m 1
 42 98 84 84 133 84 c 0
 161 84 196 105 196 153.554 c 2
 196 560 l 1
 294 560 l 1
 294 125.774 l 2
 294 59.8311 238 -14 140 -14 c 0
 105 -14 35 0 35 0 c 1
 42 98 l 1
EndSplineSet
Validated: 1
EndChar

StartChar: M
Encoding: 77 77 35
Width: 700
VWidth: 0
Flags: W
HStem: 0 21G<84 182 524.655 616> 540 20G<84 207.892 492.108 616>
VStem: 84 98<0 406> 518 98<0 406> 525 91<0 406>
LayerCount: 2
Fore
SplineSet
84 0 m 1xf0
 84 560 l 1
 196 560 l 1
 350 301 l 1
 504 560 l 1
 616 560 l 1xe8
 616 0 l 1xf0
 525 0 l 1xe8
 518 406 l 1
 350 112 l 1
 182 406 l 1
 182 0 l 1
 84 0 l 1xf0
EndSplineSet
Validated: 1
EndChar

StartChar: N
Encoding: 78 78 36
Width: 588
VWidth: 0
Flags: W
HStem: 0 21G<84 182 381.655 504> 540 20G<84 206.526 406 504>
VStem: 84 98<0 406> 406 98<161 560>
LayerCount: 2
Fore
SplineSet
84 0 m 1
 84 560 l 1
 196 560 l 1
 406 161 l 1
 406 560 l 1
 504 560 l 1
 504 0 l 1
 392 0 l 1
 182 406 l 1
 182 0 l 1
 84 0 l 1
EndSplineSet
Validated: 1
EndChar

StartChar: f
Encoding: 102 102 58
Width: 364
VWidth: 0
Flags: W
HStem: 0 21G<126 210> 315 77<63 126 210 308> 483 77<215.651 312.33>
VStem: 126 84<0 315 392 475.841>
LayerCount: 2
Fore
SplineSet
126 0 m 1
 126 315 l 1
 63 315 l 1
 63 392 l 1
 126 392 l 1
 126 469 l 2
 126 518 168 560 238 560 c 0
 287 560 329 546 329 546 c 1
 308 476 l 1
 308 476 294 483 259 483 c 0
 224 483 210 462 210 441 c 2
 210 392 l 1
 308 392 l 1
 308 315 l 1
 210 315 l 1
 210 0 l 1
 126 0 l 1
EndSplineSet
Validated: 1
EndChar

StartChar: k
Encoding: 107 107 59
Width: 474
VWidth: 0
Flags: W
HStem: 0 21G<98 182 300.464 418> 372 20G<297.393 415> 540 20G<98 182>
VStem: 98 84<0 209 214 560>
LayerCount: 2
Fore
SplineSet
98 560 m 1
 182 560 l 1
 182 214 l 1
 312 392 l 1
 415 392 l 1
 280 207 l 1
 418 0 l 1
 313 0 l 1
 182 209 l 1
 182 0 l 1
 98 0 l 1
 98 560 l 1
EndSplineSet
Validated: 1
EndChar

StartChar: afii10074
Encoding: 1080 1080 60
Width: 504
VWidth: 0
Flags: W
HStem: 0 21G<84 187.105 336 420> 372 20G<84 168 316.895 420>
VStem: 84 84<126 392> 336 84<0 266>
LayerCount: 2
Fore
SplineSet
84 0 m 1
 84 392 l 1
 168 392 l 1
 168 126 l 1
 329 392 l 1
 420 392 l 1
 420 0 l 1
 336 0 l 1
 336 266 l 1
 175 -0 l 1
 84 0 l 1
EndSplineSet
Validated: 1
EndChar

StartChar: afii10079
Encoding: 1085 1085 61
Width: 497
VWidth: 0
Flags: W
HStem: 0 21G<91 175 322 406> 168 77<175 322> 372 20G<91 175 322 406>
VStem: 91 84<0 168 245 392> 322 84<0 168 245 392>
LayerCount: 2
Fore
SplineSet
91 0 m 1
 91 392 l 1
 175 392 l 1
 175 245 l 1
 322 245 l 1
 322 392 l 1
 406 392 l 1
 406 0 l 1
 322 0 l 1
 322 168 l 1
 175 168 l 1
 175 0 l 1
 91 0 l 1
EndSplineSet
Validated: 1
EndChar

StartChar: afii10081
Encoding: 1087 1087 62
Width: 497
VWidth: 0
Flags: W
HStem: -0 21G<91 175 322 406> 315 77<175 322>
VStem: 91 84<0 315> 322 84<0 315>
LayerCount: 2
Fore
SplineSet
91 -0 m 1
 91 392 l 1
 406 392 l 1
 406 0 l 1
 322 0 l 1
 322 315 l 1
 175 315 l 1
 175 -0 l 1
 91 -0 l 1
EndSplineSet
Validated: 1
EndChar

StartChar: v
Encoding: 118 118 63
Width: 448
VWidth: 0
Flags: W
HStem: 0 21G<168.571 279.429> 372 20G<49 148.934 299.066 399>
LayerCount: 2
Fore
SplineSet
175 0 m 1
 49 392 l 1
 143 392 l 1
 224 119 l 1
 305 392 l 1
 399 392 l 1
 273 0 l 1
 175 0 l 1
EndSplineSet
Validated: 1
EndChar

StartChar: w
Encoding: 119 119 64
Width: 679
VWidth: 0
Flags: W
HStem: 0 21G<169.286 278 394 503.071> 372 20G<63 162.338 289.038 389.962 516.662 616>
LayerCount: 2
Fore
SplineSet
175 0 m 1
 63 392 l 1
 157 392 l 1
 228 126 l 1
 294 392 l 1
 385 392 l 1
 451 126 l 1
 522 392 l 1
 616 392 l 1
 497 0 l 1
 399 0 l 1
 336 252 l 1
 273 0 l 1
 175 0 l 1
EndSplineSet
Validated: 1
EndChar

StartChar: period
Encoding: 46 46 65
Width: 224
VWidth: 0
Flags: W
HStem: -5 122<65.8809 158.119>
VStem: 51 122<9.88089 102.119>
LayerCount: 2
Fore
SplineSet
173 56 m 0
 173 22.3281 145.672 -5 112 -5 c 0
 78.3281 -5 51 22.3281 51 56 c 0
 51 89.6719 78.3281 117 112 117 c 0
 145.672 117 173 89.6719 173 56 c 0
EndSplineSet
Validated: 1
EndChar

StartChar: dotlessi
Encoding: 305 305 67
Width: 252
VWidth: 0
Flags: W
HStem: 0 21G<84 168> 372 20G<84 168>
VStem: 84 84<0 392>
LayerCount: 2
Fore
SplineSet
84 0 m 1
 84 392 l 1
 168 392 l 1
 168 0 l 1
 84 0 l 1
EndSplineSet
Validated: 1
EndChar

StartChar: afii10028
Encoding: 1050 1050 71
Width: 588
VWidth: 0
Flags: W
HStem: 0 21G<84 182 415 546> 256 93<182.095 243.922> 476 98<431.122 470.5> 540 20G<84 182>
VStem: 84 98<0 256 349 560>
LayerCount: 2
Fore
SplineSet
84 0 m 1xe8
 84 560 l 1
 182 560 l 1xd8
 182 351 l 1
 184 349 188 349 193 349 c 0
 295 349 324 560 469 574 c 1
 490 476 l 1
 436 476 422 446 392 406 c 0
 365 371 321 308 294 308 c 1
 364 301 385 249 420 189 c 0
 461 118 497 38 546 0 c 1
 424 0 l 1
 406 35 350 126 315 189 c 0
 290 233 266 259 224 259 c 0
 210 259 182 256 182 256 c 1
 182 0 l 1
 84 0 l 1xe8
EndSplineSet
Validated: 1
EndChar

StartChar: afii10024
Encoding: 1046 1046 72
Width: 896
VWidth: 0
Flags: W
HStem: 0 21G<49 185.5 399 497 710.5 847> 259 87<340.609 398.907 497.093 555.391> 473 94<123.915 160.677 735.323 772.085> 540 20G<399 497>
VStem: 399 98<0 256 346.792 560>
LayerCount: 2
Fore
SplineSet
49 0 m 1xe8
 98 38 127 118 168 189 c 0
 203 249 224 301 291 305 c 1
 266 308 220 369 196 406 c 0
 168 448 152 473 98 473 c 1
 126 567 l 1xe8
 161 565 193 553 217 532 c 0
 289 469 314 346 389 346 c 0
 390 346 391 346 392 346 c 0
 396 346 397 347 399 348 c 1
 399 560 l 1
 497 560 l 1xd8
 497 348 l 1
 499 347 500 346 504 346 c 0
 505 346 506 346 507 346 c 0
 582 346 607 469 679 532 c 0
 703 553 735 565 770 567 c 1
 798 473 l 1
 744 473 728 448 700 406 c 0
 676 369 630 308 605 305 c 1
 672 301 693 249 728 189 c 0
 769 118 798 38 847 0 c 1
 721 0 l 1
 700 35 651 126 616 189 c 0
 591 233 567 259 539 259 c 0
 525 259 497 256 497 256 c 1
 497 0 l 1
 399 0 l 1
 399 256 l 1
 399 256 371 259 357 259 c 0
 329 259 305 233 280 189 c 0
 245 126 196 35 175 0 c 1
 49 0 l 1xe8
EndSplineSet
Validated: 1
EndChar

StartChar: afii10026
Encoding: 1048 1048 73
Width: 588
VWidth: 0
Flags: W
HStem: 0 21G<91 206.545 399 497> 540 20G<91 189 381.455 497>
VStem: 91 98<175 560> 399 98<0 385>
LayerCount: 2
Fore
SplineSet
91 0 m 1
 91 560 l 1
 189 560 l 1
 189 175 l 1
 392 560 l 1
 497 560 l 1
 497 0 l 1
 399 0 l 1
 399 385 l 1
 196 0 l 1
 91 0 l 1
EndSplineSet
Validated: 1
EndChar

StartChar: afii10020
Encoding: 1043 1043 74
Width: 497
VWidth: 0
Flags: W
HStem: 0 21G<91 189> 476 84<189 441>
VStem: 91 98<0 476>
LayerCount: 2
Fore
SplineSet
91 0 m 1
 91 560 l 1
 441 560 l 1
 441 476 l 1
 189 476 l 1
 189 0 l 1
 91 0 l 1
EndSplineSet
Validated: 1
EndChar

StartChar: afii10037
Encoding: 1059 1059 75
Width: 560
VWidth: 0
Flags: W
HStem: -2 86<136.677 229.732> 540 20G<56 170.048 398.381 511>
LayerCount: 2
Fore
SplineSet
56 560 m 1
 161 560 l 1
 294 266 l 1
 406 560 l 1
 511 560 l 1
 329 91 l 2
 309 38 245 -2 196 -2 c 0
 168 -2 154 0 147 3 c 1
 126 91 l 1
 126 91 154 84 182 84 c 0
 217 84 249 119 249 140 c 0
 249 161 56 560 56 560 c 1
EndSplineSet
Validated: 1
EndChar

StartChar: O
Encoding: 79 79 76
Width: 588
VWidth: 0
Flags: W
HStem: -14 91<231.397 356.603> 483 91<231.397 356.603>
VStem: 66 95<163.059 396.941> 427 95<163.059 396.941>
LayerCount: 2
Fore
SplineSet
294 574 m 0
 448 574 522 442 522 280 c 0
 522 118 448 -14 294 -14 c 0
 140 -14 66 118 66 280 c 0
 66 442 140 574 294 574 c 0
294 483 m 0
 217 483 161 406 161 280 c 0
 161 154 217 77 294 77 c 0
 371 77 427 154 427 280 c 0
 427 406 371 483 294 483 c 0
EndSplineSet
Validated: 1
EndChar

StartChar: afii10033
Encoding: 1055 1055 80
Width: 588
VWidth: 0
Flags: W
HStem: 0 21G<91 189 399 497> 476 84<189 399>
VStem: 91 98<0 476> 399 98<0 476>
LayerCount: 2
Fore
SplineSet
91 0 m 1
 91 560 l 1
 497 560 l 1
 497 0 l 1
 399 0 l 1
 399 476 l 1
 189 476 l 1
 189 0 l 1
 91 0 l 1
EndSplineSet
Validated: 1
EndChar

StartChar: afii10029
Encoding: 1051 1051 83
Width: 609
VWidth: 0
Flags: W
HStem: 0 21G<66.5957 70 420 518> 476 84<266 420>
VStem: 161 98<137.999 475.848> 168 350<184.091 560> 420 98<0 476>
LayerCount: 2
Fore
SplineSet
54 80 m 1xe8
 54 80 148 105 161 182 c 0xe8
 168 224 168 434 168 560 c 1
 518 560 l 1xd0
 518 0 l 1
 420 0 l 1
 420 476 l 1
 266 476 l 1
 266 476 266 266 259 196 c 0
 239 0 70 -14 70 -14 c 1
 54 80 l 1xe8
EndSplineSet
Validated: 1
EndChar

StartChar: afii10040
Encoding: 1062 1062 84
Width: 588
VWidth: 0
Flags: W
HStem: 0 84<161 371> 540 20G<63 161 371 469>
VStem: 63 98<84 560> 371 98<84 560> 448 84<-112 0>
LayerCount: 2
Fore
SplineSet
63 0 m 1xe8
 63 560 l 1
 161 560 l 1
 161 84 l 1
 371 84 l 1
 371 560 l 1
 469 560 l 1
 469 84 l 1xf0
 532 84 l 1
 532 -112 l 1
 448 -112 l 1
 448 0 l 1
 63 0 l 1xe8
EndSplineSet
Validated: 1
EndChar

StartChar: afii10042
Encoding: 1064 1064 85
Width: 784
VWidth: 0
Flags: W
HStem: 0 84<182 343 441 602> 540 20G<84 182 343 441 602 700>
VStem: 84 98<84 560> 343 98<85 560> 602 98<84 560>
CounterMasks: 1 38
LayerCount: 2
Fore
SplineSet
84 0 m 1
 84 560 l 1
 182 560 l 1
 182 84 l 1
 343 85 l 1
 343 560 l 1
 441 560 l 1
 441 84 l 1
 602 84 l 1
 602 560 l 1
 700 560 l 1
 700 0 l 1
 84 0 l 1
EndSplineSet
Validated: 1
EndChar

StartChar: afii10043
Encoding: 1065 1065 86
Width: 819
VWidth: 0
Flags: W
HStem: 0 84<182 343 441 602> 540 20G<84 182 343 441 602 700>
VStem: 84 98<84 560> 343 98<84 560> 602 98<84 560> 679 84<-112 0>
LayerCount: 2
Fore
SplineSet
84 0 m 1xf4
 84 560 l 1
 182 560 l 1
 182 84 l 1
 343 84 l 1
 343 560 l 1
 441 560 l 1
 441 84 l 1
 602 84 l 1
 602 560 l 1
 700 560 l 1
 700 84 l 1xf8
 763 84 l 1
 763 -112 l 1
 679 -112 l 5
 679 0 l 1
 84 0 l 1xf4
EndSplineSet
Validated: 1
EndChar

StartChar: B
Encoding: 66 66 87
Width: 560
VWidth: 0
Flags: W
HStem: 0 84<189 364.323> 252 80<189 352.297> 476 84<189 349.532>
VStem: 91 98<84 252 332 476> 371 101<349.854 458.144> 392 98<110.975 225.262>
LayerCount: 2
Fore
SplineSet
91 560 m 1xf4
 308 560 l 2
 413 560 472 480 472 406 c 0xf8
 472 364 441 315 392 294 c 1
 448 273 490 231 490 168 c 0
 490 77 413 0 309 0 c 2
 91 0 l 1
 91 560 l 1xf4
189 476 m 1
 189 332 l 1
 301 332 l 2
 343 332 371 362 371 404 c 0
 371 453 336 476 301 476 c 2
 189 476 l 1
189 252 m 1
 189 84 l 1
 308 84 l 2
 364 84 392 128 392 168 c 0xf4
 392 208 364 252 308 252 c 2
 189 252 l 1
EndSplineSet
Validated: 1
EndChar

StartChar: C
Encoding: 67 67 88
Width: 560
VWidth: 0
Flags: W
HStem: -14 91<231.397 357.982> 483 91<231.397 357.982>
VStem: 66 95<162.98 397.02>
LayerCount: 2
Fore
SplineSet
294 574 m 0
 400.391 574 462 511 497 420 c 1
 403 385 l 1
 382 455 345.917 483 294 483 c 0
 217 483 161 406 161 280 c 0
 161 154 217 77 294 77 c 0
 345.917 77 382 105 403 175 c 1
 497 140 l 1
 462 49 400.391 -14 294 -14 c 0
 140 -14 66 117.628 66 280 c 0
 66 442.372 140 574 294 574 c 0
EndSplineSet
Validated: 1
EndChar

StartChar: D
Encoding: 68 68 89
Width: 588
VWidth: 0
Flags: W
HStem: 0 84<189 340.992> 476 84<189 340.992>
VStem: 91 98<84 476> 420 102<172.869 387.131>
LayerCount: 2
Fore
SplineSet
280 560 m 2
 434 560 522 442 522 280 c 0
 522 118 434 0 280 0 c 2
 91 0 l 1
 91 560 l 1
 280 560 l 2
273 476 m 2
 189 476 l 1
 189 84 l 1
 273 84 l 2
 350 84 420 147 420 280 c 0
 420 413 350 476 273 476 c 2
EndSplineSet
Validated: 1
EndChar

StartChar: G
Encoding: 71 71 90
Width: 588
VWidth: 0
Flags: W
HStem: -14 91<245.155 377.521> 0 21G<432.429 525> 196 84<322 420> 483 91<245.155 371.919>
VStem: 71 104<163.059 396.941> 420 105<119.596 196>
LayerCount: 2
Fore
SplineSet
308 574 m 0xbc
 414 574 476 511 511 420 c 1
 417 385 l 1
 396 455 360 483 308 483 c 0
 231 483 175 406 175 280 c 0
 175 154 231 77 308 77 c 0xbc
 343 77 364 84 385 105 c 0
 413 133 420 147 420 196 c 1
 322 196 l 1
 322 280 l 1
 525 280 l 1
 525 0 l 1
 441 0 l 1x7c
 420 49 l 1
 396 15 362 -14 308 -14 c 0
 154 -14 71 118 71 280 c 0
 71 442 154 574 308 574 c 0xbc
EndSplineSet
Validated: 1
EndChar

StartChar: Q
Encoding: 81 81 91
Width: 588
VWidth: 0
Flags: W
HStem: -14 91<231.683 317.428> 483 91<231.683 356.317>
VStem: 68 95<159.783 400.217> 425 95<159.699 400.217>
LayerCount: 2
Fore
SplineSet
294 574 m 0
 448 574 520 442 520 280 c 0
 520 182 493 94 438 41 c 1
 469 -14 l 1
 388 -59 l 1
 361 -5 l 1
 341 -11 318 -14 294 -14 c 0
 140 -14 68 118 68 280 c 0
 68 442 140 574 294 574 c 0
294 483 m 0
 217 483 163 406 163 280 c 0
 163 154 217 77 294 77 c 0
 302 77 310 78 318 80 c 1
 281 154 l 1
 353 191 l 1
 388 131 l 1
 411 166 425 217 425 280 c 0
 425 406 371 483 294 483 c 0
EndSplineSet
Validated: 1
EndChar

StartChar: S
Encoding: 83 83 92
Width: 586
VWidth: 0
Flags: W
HStem: -14 91<219.496 385.923> 483 91<248.722 400.812>
VStem: 119 98<360.052 451.833> 420 103<111.504 204.692>
LayerCount: 2
Fore
SplineSet
88 84 m 5
 157 143 l 5
 157 143 212 77 310 77 c 4
 396 77 420 133 420 154 c 4
 420 155 l 0
 420 177 419 224 294 242 c 4
 138 265 119 356 119 399 c 4
 119 497 203 574 322 574 c 4
 420 574 511 497 511 497 c 5
 446 427 l 5
 446 427 395 483 322 483 c 4
 238 483 217 428 217 401 c 4
 217 347 287 338 364 322 c 4
 462 301 523 245 523 161 c 4
 523 91 448 -14 308 -14 c 4
 182 -14 88 84 88 84 c 5
EndSplineSet
Validated: 1
EndChar

StartChar: U
Encoding: 85 85 93
Width: 588
VWidth: 0
Flags: W
HStem: -7 77<229.375 358.625> 540 20G<91 189 399 497>
VStem: 91 98<110.759 560> 399 98<110.759 560>
LayerCount: 2
Fore
SplineSet
91 560 m 1
 189 560 l 1
 189 560 189 266 189 175 c 0
 189 98 252 70 294 70 c 0
 336 70 399 98 399 175 c 0
 399 560 l 1
 497 560 l 1
 497 560 497 280 497 182 c 0
 497 175 490 -7 294 -7 c 0
 98 -7 91 175 91 182 c 0
 91 560 l 1
EndSplineSet
Validated: 1
EndChar

StartChar: c
Encoding: 99 99 99
Width: 476
VWidth: 0
Flags: W
HStem: -14 70<199.195 307.696> 336 70<199.195 307.696>
VStem: 63 91<104.722 287.278>
LayerCount: 2
Fore
SplineSet
252 406 m 0
 330 406 393 362 420 287 c 1
 341 257 l 1
 326 308 294 336 252 336 c 0
 196 336 154 280 154 196 c 0
 154 112 196 56 252 56 c 0
 294 56 326 84 341 135 c 1
 420 105 l 1
 393 30 330 -14 252 -14 c 0
 147 -14 63 70 63 196 c 0
 63 322 147 406 252 406 c 0
EndSplineSet
Validated: 1
EndChar

StartChar: e
Encoding: 101 101 100
Width: 504
VWidth: 0
Flags: W
HStem: -14 77<201.565 320.975> 168 70<161 342.999> 336 70<198.517 305.821>
VStem: 68 93<102.827 168 238 297.782> 343 91<199.5 298.871>
AnchorPoint: "FirstAnchor" 250 458 basechar 0
LayerCount: 2
Fore
SplineSet
252 336 m 0
 210 336 161 294 161 238 c 1
 336 238 l 2
 341 238 343 245 343 252 c 0
 343 293 294 336 252 336 c 0
413 168 m 2
 161 168 l 1
 161 84 231 63 266 63 c 0
 301 63 322 81 350 116 c 1
 420 77 l 1
 378 7 308 -14 259 -14 c 0
 155 -14 68 68 68 192 c 0
 68 255 79 301 108 336 c 0
 142 378 199 406 252 406 c 0
 350 406 434 315 434 210 c 0
 434 189 425 168 413 168 c 2
EndSplineSet
Validated: 1
EndChar

StartChar: o
Encoding: 111 111 101
Width: 504
VWidth: 0
Flags: W
HStem: -14 70<199.469 304.531> 336 70<199.469 304.531>
VStem: 70 84<104.722 287.278> 350 84<104.722 287.278>
LayerCount: 2
Fore
SplineSet
252 406 m 0
 357 406 434 322 434 196 c 0
 434 70 357 -14 252 -14 c 0
 147 -14 70 70 70 196 c 0
 70 322 147 406 252 406 c 0
252 336 m 0
 196 336 154 280 154 196 c 0
 154 112 196 56 252 56 c 0
 308 56 350 112 350 196 c 0
 350 280 308 336 252 336 c 0
EndSplineSet
Validated: 1
EndChar

StartChar: uni0259
Encoding: 601 601 105
Width: 504
VWidth: 0
Flags: W
HStem: -14 70<191.78 310.321> 153.999 70.001<159 341> 329 77<181.074 301.98>
VStem: 68 91<94.2007 153.999> 341 93<86.7798 153.999 224 289.998>
LayerCount: 2
Fore
SplineSet
250 56 m 0
 295 56 341 83.9990234375 341 153.999023438 c 1
 281 153.999023438 159 153.999023438 159 153.999023438 c 17
 159 93.9990234375 201 56 250 56 c 0
72 224 m 9
 341 224 l 1
 341 308 271 329 236 329 c 0
 201 329 180 311 152 276 c 1
 84 315 l 1
 133 378 187 406 236 406 c 0
 341 406 434 322 434 196 c 0
 434 135 423 91 394 56 c 0
 360 14 303 -14 250 -14 c 0
 152 -14 68 77 68 182 c 0
 68 203 69 209 72 224 c 9
EndSplineSet
Validated: 1
EndChar

StartChar: uni0258
Encoding: 600 600 107
Width: 504
VWidth: 0
Flags: W
HStem: -14 77<181.043 301.949> 168 70<158.97 340.969> 336 70<196.355 310.29>
VStem: 67.9688 91<199.5 298.871> 340.969 93<102.002 168 238 305.22>
LayerCount: 2
Fore
SplineSet
249.96875 336 m 0
 208.96875 336 158.96875 293 158.96875 252 c 0
 158.96875 245 160.96875 238 165.96875 238 c 2
 340.96875 238 l 1
 340.96875 308 294.96875 336 249.96875 336 c 0
88.96875 168 m 2
 76.96875 168 67.96875 189 67.96875 210 c 0
 67.96875 315 151.96875 406 249.96875 406 c 0
 302.96875 406 359.96875 378 393.96875 336 c 0
 422.96875 301 433.96875 257 433.96875 196 c 0
 433.96875 70 340.96875 -14 235.96875 -14 c 0
 186.96875 -14 132.96875 14 83.96875 77 c 1
 151.96875 116 l 1
 179.96875 81 200.96875 63 235.96875 63 c 0
 270.96875 63 340.96875 84 340.96875 168 c 1
 88.96875 168 l 2
EndSplineSet
Validated: 1
EndChar

StartChar: afii10018
Encoding: 1041 1041 110
Width: 567
VWidth: 0
Flags: W
HStem: 0 84<189 363.125> 252 84<189 361.404> 476 84<189 448>
VStem: 91 98<84 252 336 476> 392 98<112.147 223.853>
LayerCount: 2
Fore
SplineSet
91 0 m 1
 91 560 l 1
 448 560 l 1
 448 476 l 1
 189 476 l 1
 189 336 l 1
 308 336 l 2
 448 336 490 238 490 168 c 0
 490 98 434 0 294 0 c 2
 91 0 l 1
189 84 m 1
 287 84 l 2
 350 84 392 112 392 168 c 0
 392 224 350 252 287 252 c 2
 189 252 l 1
 189 84 l 1
EndSplineSet
Validated: 1
EndChar

StartChar: afii10021
Encoding: 1044 1044 111
Width: 616
VWidth: 0
Flags: W
HStem: -98 182<49 118.671 504 567> 0 84<207 406> 476 84<273 406>
VStem: 49 84<-98 0> 175 98<255.625 476> 406 98<84 476> 483 84<-98 0>
LayerCount: 2
Fore
SplineSet
49 84 m 1xba
 112 84 l 1
 140 154 175 341 175 476 c 2
 175 560 l 1
 504 560 l 1
 504 401 504 243 504 84 c 1xbc
 567 84 l 1
 567 23 567 -37 567 -98 c 1
 483 -98 l 1xba
 483 0 l 1
 133 0 l 1x7a
 133 -98 l 1
 49 -98 l 1
 49 -37 49 23 49 84 c 1xba
207 84 m 1x7c
 406 84 l 1
 406 476 l 1
 273 476 l 1
 273 343 245 175 207 84 c 1x7c
EndSplineSet
Validated: 1
EndChar

StartChar: afii10025
Encoding: 1047 1047 112
Width: 524
VWidth: 0
Flags: W
HStem: -14 91<163.791 327.544> 252 84<213 329.348> 483 91<165.983 326.102>
VStem: 351 91<358.446 458.3> 361 100<107.5 224.314>
LayerCount: 2
Fore
SplineSet
213 252 m 1xe8
 213 336 l 1
 276 336 l 2
 332 336 351 385 351 406 c 0
 351 427 339 483 262 483 c 0
 164 483 122 429 122 429 c 1
 69 511 l 1
 69 511 150 574 262 574 c 0
 375 574 442 504 442 420 c 0xf0
 442 315 346 294 346 294 c 1
 346 294 461 277 461 154 c 0
 461 88 395 -14 255 -14 c 0
 136 -14 49 61 49 61 c 1
 108 140 l 1
 108 140 157 77 262 77 c 0
 318 77 361 112 361 161 c 0
 361 217 325 252 276 252 c 2
 213 252 l 1xe8
EndSplineSet
Validated: 1
EndChar

StartChar: afii10038
Encoding: 1060 1060 113
Width: 700
VWidth: 0
Flags: W
HStem: 0 21G<301 399> 77 77<219.251 301 399 480.749> 420 77<221.85 301 399 478.15> 540 20G<301 399>
VStem: 63 91<215.492 358.508> 301 98<0 77 154 420 497 560> 546 91<215.492 358.508>
CounterMasks: 1 0e
LayerCount: 2
Fore
SplineSet
63 287 m 0
 63 392 147 497 301 497 c 1
 301 560 l 1
 334 560 366 560 399 560 c 1
 399 497 l 1
 553 497 637 392 637 287 c 0
 637 182 560 77 399 77 c 1
 399 0 l 1
 301 0 l 1
 301 77 l 1
 140 77 63 182 63 287 c 0
154 287 m 0
 154 210 217 154 301 154 c 1
 301 420 l 1
 216 420 154 364 154 287 c 0
399 154 m 1
 483 154 546 210 546 287 c 0
 546 364 484 420 399 420 c 1
 399 154 l 1
EndSplineSet
Validated: 1
EndChar

StartChar: afii10041
Encoding: 1063 1063 114
Width: 560
VWidth: 0
Flags: W
HStem: 0 21G<371 469> 203 91<183.982 343.433> 540 20G<77 175 371 469>
VStem: 77 98<302.207 560> 371 98<0 238 317.972 560>
LayerCount: 2
Fore
SplineSet
77 315 m 2
 77 560 l 1
 175 560 l 1
 175 351 l 2
 175 315 189 294 224 294 c 0
 280 294 336 308 371 329 c 1
 371 560 l 1
 469 560 l 1
 469 0 l 1
 371 0 l 1
 371 238 l 1
 336 210 266 203 224 203 c 0
 126 203 77 245 77 315 c 2
EndSplineSet
Validated: 1
EndChar

StartChar: afii10044
Encoding: 1066 1066 115
Width: 616
VWidth: 0
Flags: W
HStem: 0 84<266 435.336> 259 84<266 432.715> 476 84<49 168>
VStem: 168 98<84 259 343 476> 462 98<108.946 229.833>
LayerCount: 2
Fore
SplineSet
49 476 m 1
 49 560 l 1
 266 560 l 1
 266 343 l 1
 385 343 l 2
 525 343 560 252 560 182 c 0
 560 112 511 0 371 0 c 2
 168 0 l 1
 168 476 l 1
 49 476 l 1
266 84 m 1
 364 84 l 2
 427 84 462 112 462 168 c 0
 462 224 427 259 364 259 c 2
 266 259 l 1
 266 84 l 1
EndSplineSet
Validated: 1
EndChar

StartChar: afii10046
Encoding: 1068 1068 116
Width: 539
VWidth: 0
Flags: W
HStem: 0 84<189 358.336> 259 84<189 355.715> 540 20G<91 189>
VStem: 91 98<84 259 343 560> 385 98<108.946 229.833>
LayerCount: 2
Fore
SplineSet
91 0 m 1
 91 560 l 1
 189 560 l 1
 189 343 l 1
 308 343 l 2
 448 343 483 252 483 182 c 0
 483 112 434 0 294 0 c 2
 91 0 l 1
189 84 m 1
 287 84 l 2
 350 84 385 112 385 168 c 0
 385 224 350 259 287 259 c 2
 189 259 l 1
 189 84 l 1
EndSplineSet
Validated: 1
EndChar

StartChar: afii10047
Encoding: 1069 1069 117
Width: 560
VWidth: 0
Flags: W
HStem: -14 84<178.734 319.321> 252 84<217 389> 490 84<177.308 326.148>
VStem: 390 100<156.353 252 336 415.208>
LayerCount: 2
Fore
SplineSet
56 483 m 1
 112 539 146 574 252 574 c 0
 406 574 490 469 490 287 c 0
 490 105 406 -14 252 -14 c 0
 161 -14 119 14 63 77 c 1
 133 147 l 1
 168 84 203 70 252 70 c 0
 322 70 385 126 390 252 c 1
 217 252 l 1
 217 336 l 1
 389 336 l 1
 378 441 331 490 252 490 c 0
 200 490 175 476 133 420 c 1
 56 483 l 1
EndSplineSet
Validated: 1
EndChar

StartChar: afii10048
Encoding: 1070 1070 118
Width: 816
VWidth: 0
Flags: W
HStem: -14 91<447.518 573.603> 0 21G<91 189> 245 84<189 285.7> 483 91<448.509 573.603> 540 20G<91 189>
VStem: 91 98<0 245 329 560> 284 94<160.786 245 329 397.377> 644 95<163.059 396.941>
LayerCount: 2
Fore
SplineSet
91 0 m 1x67
 91 560 l 1
 189 560 l 1x6f
 189 329 l 1
 285 329 l 1
 299 468 373 574 511 574 c 0
 665 574 739 442 739 280 c 0
 739 118 665 -14 511 -14 c 0xb7
 368 -14 294 99 284 245 c 1
 189 245 l 1
 189 0 l 1
 91 0 l 1x67
378 280 m 0
 378 154 434 77 511 77 c 0
 588 77 644 154 644 280 c 0
 644 406 588 483 511 483 c 0xb7
 434 483 378 406 378 280 c 0
EndSplineSet
Validated: 1
EndChar

StartChar: afii10146
Encoding: 1122 1122 119
Width: 546
VWidth: 0
Flags: W
HStem: 0 84<189 363.125> 252 84<189 361.404> 420 84<0 91 189 308> 540 20G<91 190>
VStem: 91 98<84 252 336 419 504 560> 392 98<112.147 223.853>
LayerCount: 2
Fore
SplineSet
0 420 m 1
 0 504 l 1
 91 503 l 1
 91 560 l 1
 190 560 l 1
 189 504 l 1
 308 504 l 1
 308 420 l 1
 189 420 l 1
 189 336 l 1
 308 336 l 2
 448 336 490 238 490 168 c 0
 490 98 434 0 294 0 c 2
 91 0 l 1
 91 419 l 1
 0 420 l 1
189 84 m 1
 287 84 l 2
 350 84 392 112 392 168 c 0
 392 224 350 252 287 252 c 2
 189 252 l 1
 189 84 l 1
EndSplineSet
Validated: 1
EndChar

StartChar: afii10071
Encoding: 1105 1105 124
Width: 504
VWidth: 0
Flags: W
HStem: -14 77<200.22 320.926> 168 70<161 342.999> 336 70<192.078 306.296> 457 122<110.881 203.119 294.881 387.119>
VStem: 68 93<102.827 168 238 305.22> 96 122<471.881 564.119> 280 122<471.881 564.119> 343 91<199.5 298.656>
AnchorPoint: "FirstAnchor" 250 458 basechar 0
LayerCount: 2
Fore
SplineSet
161 238 m 1xf9
 336 238 l 2
 341 238 343 245 343 252 c 0
 343 292 295 336 255 336 c 0
 208 336 161 308 161 238 c 1xf9
68 192 m 0
 68 255 79 301 108 336 c 0
 142 378 199 406 252 406 c 0
 350 406 434 315 434 210 c 0
 434 189 425 168 413 168 c 2
 161 168 l 1
 161 84 231 63 266 63 c 0
 301 63 322 81 350 116 c 1
 418 77 l 1
 369 14 315 -14 266 -14 c 0
 162 -14 68 68 68 192 c 0
EndSplineSet
Refer: 121 168 N 1 0 0 1 46 0 2
Validated: 1
EndChar

StartChar: uni018E
Encoding: 398 398 135
Width: 539
VWidth: 0
Flags: W
HStem: 0 84<91 350> 252 84<147 350> 469 91<98 350>
VStem: 350 98<84 252 336 469>
LayerCount: 2
Fore
SplineSet
448 0 m 25
 91 0 l 17
 91 84 l 1
 350 84 l 1
 350 252 l 9
 147 252 l 25
 147 336 l 25
 350 336 l 25
 350 469 l 25
 98 469 l 25
 98 560 l 25
 448 560 l 25
 448 0 l 25
EndSplineSet
Validated: 1
EndChar

StartChar: Lambda
Encoding: 923 923 139
Width: 581
VWidth: 0
Flags: W
HStem: 0 21G<70 187.333 400.667 511> 540 20G<225.25 362.5>
LayerCount: 2
Fore
SplineSet
70 0 m 1
 231 560 l 1
 357 560 l 5
 511 0 l 5
 406 0 l 1
 294 420 l 1
 182 0 l 1
 70 0 l 1
EndSplineSet
Validated: 1
EndChar

StartChar: afii10027
Encoding: 1049 1049 146
Width: 588
VWidth: 0
Flags: W
HStem: 0 21G<91 206.545 399 497> 540 20G<91 189 381.455 497> 602 63<232.264 355.249>
VStem: 91 98<175 560> 140 70<687.75 742> 378 63<687.75 742> 399 98<0 385>
LayerCount: 2
Fore
SplineSet
91 0 m 1xf2
 91 560 l 1
 189 560 l 1
 189 175 l 1
 392 560 l 1
 497 560 l 1
 497 0 l 1
 399 0 l 1
 399 385 l 1
 196 0 l 1
 91 0 l 1xf2
140 742 m 5xec
 210 742 l 5
 210 700 238 665 294 665 c 4
 350 665 378 700 378 742 c 5
 441 742 l 5
 441 686 392 602 294 602 c 4
 196 602 140 686 140 742 c 5xec
EndSplineSet
Validated: 1
EndChar

StartChar: p
Encoding: 112 112 147
Width: 497
VWidth: 0
Flags: W
HStem: -168 21G<84 168> -14 70<200.689 314.512> 329 77<207.436 316.814> 372 20G<84 155.5>
VStem: 84 84<-168 35 85.9467 290.804> 84 70<350.518 392> 357 84<104.991 284.231>
LayerCount: 2
Fore
SplineSet
266 406 m 0xea
 336 406 441 364 441 196 c 0
 441 21 308 -14 266 -14 c 0
 210 -14 168 28 168 35 c 2
 168 -168 l 1
 84 -168 l 1xea
 84 392 l 1
 154 392 l 1xd6
 157 375 162 361 168 350 c 1
 168 350 196 406 266 406 c 0xea
266 329 m 0
 226 329 189 301 168 259 c 1
 168 112 l 1
 189 77 230 56 266 56 c 0
 315 56 357 112 357 196 c 0
 357 280 315 329 266 329 c 0
EndSplineSet
Validated: 1
EndChar

StartChar: q
Encoding: 113 113 148
Width: 497
VWidth: 0
Flags: W
HStem: -168 21G<357 441> -14 70<210.488 324.311> 329 77<208.186 317.564> 372 20G<369.5 441>
VStem: 84 84<104.991 284.231> 357 84<-168 35 85.9467 290.804> 371 70<350.518 392>
LayerCount: 2
Fore
SplineSet
259 406 m 0xec
 329 406 357 350 357 350 c 1xec
 363 361 368 375 371 392 c 1
 441 392 l 1xda
 441 -168 l 1
 357 -168 l 1
 357 35 l 2
 357 28 315 -14 259 -14 c 0
 217 -14 84 21 84 196 c 0
 84 364 189 406 259 406 c 0xec
259 329 m 0
 210 329 168 280 168 196 c 0
 168 112 210 56 259 56 c 0
 295 56 336 77 357 112 c 1
 357 259 l 1
 336 301 299 329 259 329 c 0
EndSplineSet
Validated: 1
EndChar

StartChar: b
Encoding: 98 98 149
Width: 497
VWidth: 0
Flags: W
HStem: -14 77<207.436 316.814> 0 21G<84 155.5> 336 70<200.689 314.512> 540 20G<84 168>
VStem: 84 84<101.196 306.053 357 560> 84 70<0 41.4822> 357 84<107.769 287.009>
LayerCount: 2
Fore
SplineSet
266 -14 m 0xba
 196 -14 168 42 168 42 c 1xba
 162 31 157 17 154 0 c 1
 84 0 l 1x76
 84 560 l 1
 168 560 l 1
 168 357 l 2
 168 364 210 406 266 406 c 0
 308 406 441 371 441 196 c 0
 441 28 336 -14 266 -14 c 0xba
266 63 m 0
 315 63 357 112 357 196 c 0
 357 280 315 336 266 336 c 0
 230 336 189 315 168 280 c 1
 168 133 l 1
 189 91 226 63 266 63 c 0
EndSplineSet
Validated: 1
EndChar

StartChar: afii10077
Encoding: 1083 1083 152
Width: 504
VWidth: 0
Flags: W
HStem: 0 21G<59 150.5 329 413> 315 77<216.222 329>
VStem: 329 84<0 315>
LayerCount: 2
Fore
SplineSet
47 66 m 1
 70 70 101 87 118 119 c 0
 135 150 140 315 140 392 c 1
 413 392 l 1
 413 0 l 1
 329 0 l 1
 329 315 l 1
 217 315 l 1
 210 189 238 28 63 -14 c 1
 47 66 l 1
EndSplineSet
Validated: 1
EndChar

StartChar: afii10085
Encoding: 1091 1091 153
Width: 448
VWidth: 0
Flags: W
HStem: -168 77<101.639 158.934> 372 20G<42 147.027 302.054 406>
LayerCount: 2
Fore
SplineSet
42 392 m 1
 140 392 l 1
 231 133 l 1
 308 392 l 1
 406 392 l 1
 245 -91 l 1
 224 -140 175 -168 133 -168 c 0
 126 -168 126 -168 104 -164 c 1
 77 -84 l 1
 91 -91 105 -91 112 -91 c 0
 161 -91 181 -40 192 0 c 1
 42 392 l 1
EndSplineSet
Validated: 1
EndChar

StartChar: afii10088
Encoding: 1094 1094 154
Width: 504
VWidth: 0
Flags: W
HStem: 0 77<168 315> 372 20G<84 168 315 399>
VStem: 84 84<77 392> 315 84<77 392> 392 84<-84 0>
LayerCount: 2
Fore
SplineSet
84 0 m 1xe8
 84 392 l 1
 168 392 l 1
 168 77 l 1
 315 77 l 1
 315 392 l 1
 399 392 l 1
 399 77 l 1xf0
 476 77 l 1
 476 -84 l 1
 392 -84 l 1
 392 0 l 1
 84 0 l 1xe8
EndSplineSet
Validated: 1
EndChar

StartChar: afii10084
Encoding: 1090 1090 155
Width: 419
VWidth: 0
Flags: W
HStem: 0 21G<168 252> 315 77<50 168 252 369>
VStem: 168 84<0 315>
LayerCount: 2
Fore
SplineSet
50 315 m 1
 50 392 l 1
 369 392 l 1
 369 315 l 1
 252 315 l 1
 252 0 l 1
 168 0 l 1
 168 315 l 1
 50 315 l 1
EndSplineSet
Validated: 1
EndChar

StartChar: afii10068
Encoding: 1075 1075 156
Width: 420
VWidth: 0
Flags: W
HStem: 0 21G<91 175> 315 77<175 364>
VStem: 91 84<0 315>
LayerCount: 2
Fore
SplineSet
91 0 m 1
 91 392 l 1
 364 392 l 1
 364 315 l 1
 175 315 l 1
 175 0 l 1
 91 0 l 1
EndSplineSet
Validated: 1
EndChar

StartChar: afii10076
Encoding: 1082 1082 157
Width: 504
VWidth: 0
Flags: W
HStem: 0 21G<91 175 324 455> 184 67<175.141 228.645> 329 70<366.108 394.1> 372 20G<91 175>
VStem: 91 84<0 183.999 251 392>
LayerCount: 2
Fore
SplineSet
91 0 m 1xe8
 91 392 l 1
 175 392 l 1xd8
 175 252 l 1
 178 251 182 251 185 251 c 0
 248 251 304 392 392 399 c 1
 413 329 l 1
 347 324 325 236 273 224 c 1
 368 204 381 69 455 0 c 1
 350 0 l 1
 298 80 277 184 196 184 c 0
 190 184 182 183 175 182 c 1
 175 0 l 1
 91 0 l 1xe8
EndSplineSet
Validated: 1
EndChar

StartChar: a
Encoding: 97 97 158
Width: 476
VWidth: 0
Flags: W
HStem: -14 70<176.131 267.824> 189 63<208.093 308> 336 70<154.167 283.319>
VStem: 70 91<72.4097 155.521> 308 84<91.8617 189 248.469 311.205>
LayerCount: 2
Fore
SplineSet
238 406 m 0
 329 406 392 336 392 266 c 2
 392 91 l 2
 392 56 413 56 427 56 c 1
 392 -14 l 1
 343 -14 315 -7 308 49 c 1
 294 21 252 -14 196 -14 c 0
 140 -14 70.0673828125 28 70 112 c 2
 69.9999533548 112.115979331 l 2
 69.9999533548 244.359564761 252.016361113 238.004090278 308 252 c 1
 308 273 l 2
 308 301 273 336 224 336 c 0
 182 336 140 308 119 289 c 1
 77 357 l 1
 112 378 168 406 238 406 c 0
308 189 m 1
 273 175 161 182 161 119 c 0
 161 70 203 56 217 56 c 0
 259 56 308 112 308 119 c 2
 308 189 l 1
EndSplineSet
Validated: 1
EndChar

StartChar: iogonek
Encoding: 303 303 179
Width: 252
VWidth: 0
Flags: W
HStem: -217 53<96.0848 199.889> -20 20G<150.5 174.667> 0 21G<84 168> 372 20G<84 168> 460 122<79.7704 172.23>
VStem: 28 63<-157.291 -80.3533> 65 122<474.77 567.23> 84 84<0 392>
LayerCount: 2
Fore
SplineSet
187 521 m 0x9a
 187 487 160 460 126 460 c 0
 92 460 65 487 65 521 c 0
 65 555 92 582 126 582 c 0
 160 582 187 555 187 521 c 0x9a
84 0 m 1xb9
 84 392 l 1
 168 392 l 1
 168 0 l 1xd9
 84 0 l 1xb9
168 0 m 1025
168 0 m 1
 182 -42 l 1
 182 -42 91 -70 91 -119 c 0
 91 -161 126 -164 147 -164 c 0
 168 -164 210 -140 210 -140 c 1
 224 -175 l 1
 224 -175 189 -217 126 -217 c 0
 63 -217 28 -175 28 -126 c 0xdc
 28 -49 133 -14 168 0 c 1
EndSplineSet
Validated: 5
EndChar

StartChar: uni0254
Encoding: 596 596 271
Width: 476
VWidth: 0
Flags: W
HStem: -14 70<175.304 283.805> 336 70<175.304 283.805>
VStem: 329 91<104.722 287.278>
LayerCount: 2
Fore
SplineSet
231 406 m 0
 153 406 90 362 63 287 c 1
 142 257 l 1
 157 308 189 336 231 336 c 0
 287 336 329 280 329 196 c 0
 329 112 287 56 231 56 c 0
 189 56 157 84 142 135 c 1
 63 105 l 1
 90 30 153 -14 231 -14 c 0
 336 -14 420 70 420 196 c 0
 420 322 336 406 231 406 c 0
EndSplineSet
Validated: 9
EndChar

StartChar: afii10072
Encoding: 1078 1078 272
Width: 700
VWidth: 0
Flags: W
HStem: 0 21G<49 173.5 308 392 526.5 651> 176 68<262.669 307.766 392.234 437.331> 315 84<96.25 134.74 565.26 603.75> 372 20G<308 392>
VStem: 308 84<0 176 244 392>
LayerCount: 2
Fore
SplineSet
49 0 m 1xe8
 63 21 98 77 112 112 c 0
 134 168 169 213 224 217 c 1
 172 229 154 315 77 315 c 1
 98 399 l 1xe8
 205 392 242 244 300 244 c 0
 303 244 305 244 308 245 c 1
 308 392 l 1
 392 392 l 1xd8
 392 245 l 1
 395 244 397 244 400 244 c 0
 458 244 495 392 602 399 c 1
 623 315 l 1
 546 315 528 229 476 217 c 1
 531 213 566 168 588 112 c 0
 602 77 637 21 651 0 c 1
 553 0 l 1
 500 81 479 176 407 176 c 0
 402 176 397 176 392 175 c 1
 392 0 l 1
 308 0 l 1
 308 175 l 1
 303 176 298 176 293 176 c 0
 221 176 200 81 147 0 c 1
 49 0 l 1xe8
EndSplineSet
Validated: 1
EndChar

StartChar: afii10090
Encoding: 1096 1096 273
Width: 658
VWidth: 0
Flags: W
HStem: 0 77<168 287 371 490> 372 20G<84 168 287 371 490 574>
VStem: 84 84<77 392> 287 84<77 392> 490 84<77 392>
CounterMasks: 1 38
LayerCount: 2
Fore
SplineSet
84 0 m 1
 84 392 l 1
 168 392 l 1
 168 77 l 1
 287 77 l 1
 287 392 l 1
 371 392 l 1
 371 77 l 1
 490 77 l 1
 490 392 l 1
 574 392 l 1
 574 0 l 1
 84 0 l 1
EndSplineSet
Validated: 1
EndChar

StartChar: afii10091
Encoding: 1097 1097 274
Width: 672
VWidth: 0
Flags: W
HStem: 0 77<168 287 371 490> 372 20G<84 168 287 371 490 574>
VStem: 84 84<77 392> 287 84<77 392> 490 84<77 392> 560 84<-84 0>
LayerCount: 2
Fore
SplineSet
84 0 m 1xf4
 84 392 l 1
 168 392 l 1
 168 77 l 1
 287 77 l 1
 287 392 l 1
 371 392 l 1
 371 77 l 1
 490 77 l 1
 490 392 l 1
 574 392 l 1
 574 77 l 1xf8
 644 77 l 1
 644 -84 l 1
 560 -84 l 1
 560 0 l 1
 84 0 l 1xf4
EndSplineSet
Validated: 1
EndChar

StartChar: afii10095
Encoding: 1101 1101 275
Width: 450
VWidth: 0
Flags: W
HStem: -14 70<145.706 255.677> 168 63<168 294> 336 70<145.383 258.276>
VStem: 294 86<96.2825 168 231 296.015>
LayerCount: 2
Fore
SplineSet
59 53 m 1
 119 105 l 1
 140 77 169 56 203 56 c 0
 253 56 294 105 294 168 c 1
 168 168 l 1
 168 231 l 1
 294 231 l 1
 294 294 251 336 203 336 c 0
 169 336 140 315 119 287 c 1
 62 339 l 1
 97 381 146 406 203 406 c 0
 308 406 380 322 380 196 c 0
 380 70 308 -14 203 -14 c 0
 145 -14 92 9 59 53 c 1
EndSplineSet
Validated: 1
EndChar

StartChar: afii10066
Encoding: 1073 1073 276
Width: 511
VWidth: 0
Flags: W
HStem: -14 70<210.951 311.171> 322 70<209.737 310.937> 476 84<201.946 405.475> 554 20G<433.308 441>
VStem: 70 77<322 407.141> 350 91<97.4983 281.507>
LayerCount: 2
Fore
SplineSet
70 280 m 0xec
 70 394 91 560 266 560 c 2
 364 560 l 2xec
 413 560 441 574 441 574 c 1xdc
 406 483 l 1
 395 480 371 476 357 476 c 2
 252 476 l 2
 194 476 147 399 147 322 c 1
 161 350 196 392 266 392 c 0
 364 392 441 322 441 189 c 0
 441 91 378 -14 259 -14 c 0
 105 -14 70 147 70 280 c 0xec
168 189 m 0
 168 91 224 56 259 56 c 0
 301 56 350 91 350 189 c 0
 350 287 301 322 259 322 c 0
 224 322 168 287 168 189 c 0
EndSplineSet
Validated: 1
EndChar

StartChar: afii10069
Encoding: 1076 1076 277
Width: 497
VWidth: 0
Flags: W
HStem: -84 161<35 82.9782 413 462> 0 77<166 329> 315 77<215.311 329>
VStem: 35 84<-84 0> 329 84<77 315> 385 77<-84 0>
LayerCount: 2
Fore
SplineSet
35 77 m 1xb4
 75 77 l 1
 110 158 133 252 133 392 c 1
 413 392 l 1
 413 77 l 1xb8
 462 77 l 1
 462 -84 l 1
 385 -84 l 1xb4
 385 0 l 1
 119 0 l 1x74
 119 -84 l 1
 35 -84 l 1
 35 77 l 1xb4
166 77 m 1x78
 329 77 l 1
 329 315 l 1
 217 315 l 1
 210 237 201 145 166 77 c 1x78
EndSplineSet
Validated: 1
EndChar

StartChar: afii10073
Encoding: 1079 1079 278
Width: 465
VWidth: 0
Flags: W
HStem: -14 70<152.486 294.188> 168 63<203 295.753> 329 70<147.413 284.129>
VStem: 301 84<237.039 312.164> 310 89<72.1103 159.169>
LayerCount: 2
Fore
SplineSet
224 399 m 0xf0
 322 399 385 361 385 294 c 0xf0
 385 245 350 210 317 200 c 1
 352 193 399 168 399 105 c 0
 399 21 326 -14 238 -14 c 0
 175 -14 102 9 60 51 c 1
 112 108 l 1
 147 70 204 56 238 56 c 0
 273 56 310 77 310 112 c 0xe8
 310 140 294 168 259 168 c 2
 203 168 l 1
 203 231 l 1
 252 231 l 2
 287 231 301 252 301 273 c 0
 301 315 252 329 224 329 c 0
 175 329 147 308 122 290 c 1
 84 364 l 1
 119 385 167 399 224 399 c 0xf0
EndSplineSet
Validated: 1
EndChar

StartChar: afii10089
Encoding: 1095 1095 279
Width: 476
VWidth: 0
Flags: W
HStem: 0 21G<301 385> 119 70<164.477 287.981> 372 20G<77 161 301 385>
VStem: 77 84<194.364 392> 301 84<0 147 206.824 392>
LayerCount: 2
Fore
SplineSet
77 224 m 2
 77 392 l 1
 161 392 l 1
 161 224 l 2
 161 203 185 189 203 189 c 0
 245 189 287 210 301 217 c 1
 301 392 l 1
 385 392 l 1
 385 0 l 1
 301 0 l 1
 301 147 l 1
 266 126 231 119 196 119 c 0
 133 119 77 147 77 224 c 2
EndSplineSet
Validated: 1
EndChar

StartChar: afii10092
Encoding: 1098 1098 280
Width: 501
VWidth: 0
Flags: W
HStem: 0 77<217 353.404> 175 77<217 353.404> 315 77<42 133>
VStem: 133 84<77 175 252 315> 364 81<87.2884 164.712>
LayerCount: 2
Fore
SplineSet
42 315 m 1
 42 392 l 1
 217 392 l 1
 217 252 l 1
 308 252 l 2
 406 252 445 189 445 126 c 0
 445 63 406 0 308 0 c 2
 133 0 l 1
 133 315 l 1
 42 315 l 1
217 77 m 1
 315 77 l 2
 343 77 364 103 364 126 c 0
 364 149 343 175 315 175 c 2
 217 175 l 1
 217 77 l 1
EndSplineSet
Validated: 1
EndChar

StartChar: afii10094
Encoding: 1100 1100 281
Width: 473
VWidth: 0
Flags: W
HStem: 0 77<182 325.404> 175 77<182 325.404> 372 20G<98 182>
VStem: 98 84<77 175 252 392> 336 81<87.2884 164.712>
LayerCount: 2
Fore
SplineSet
98 0 m 1
 98 392 l 1
 182 392 l 1
 182 252 l 1
 280 252 l 2
 378 252 417 189 417 126 c 0
 417 63 378 0 280 0 c 2
 98 0 l 1
182 77 m 1
 287 77 l 2
 315 77 336 103 336 126 c 0
 336 149 315 175 287 175 c 2
 182 175 l 1
 182 77 l 1
EndSplineSet
Validated: 1
EndChar

StartChar: afii10096
Encoding: 1102 1102 283
Width: 672
VWidth: 0
Flags: W
HStem: -14 70<375.595 478.225> 0 21G<91 175> 168 63<175 255.282> 336 70<376.099 478.225> 372 20G<91 175>
VStem: 91 84<0 168 231 392> 253 83<101.623 168 231 290.746> 518 84<99.9023 292.098>
LayerCount: 2
Fore
SplineSet
91 0 m 1x67
 91 392 l 1
 175 392 l 1x6f
 175 231 l 1
 254 231 l 1
 266 337 332 406 427 406 c 0
 532 406 602 322 602 196 c 0
 602 70 532 -14 427 -14 c 0xb7
 330 -14 263 58 253 168 c 1
 175 168 l 1
 175 0 l 1
 91 0 l 1x67
336 196 m 0
 336 112 371 56 427 56 c 0
 483 56 518 112 518 196 c 0
 518 280 483 336 427 336 c 0xb7
 371 336 336 280 336 196 c 0
EndSplineSet
Validated: 1
EndChar

StartChar: afii10194
Encoding: 1123 1123 284
Width: 501
VWidth: 0
Flags: W
HStem: 0 77<217 353.404> 175 77<217 353.404> 315 77<42 133 217 308> 540 20G<133 217>
VStem: 133 84<77 175 252 315 392 560> 364 81<87.2884 164.712>
LayerCount: 2
Fore
SplineSet
42 315 m 1
 42 392 l 1
 133 392 l 1
 133 560 l 1
 217 560 l 1
 217 392 l 1
 308 392 l 1
 308 315 l 1
 217 315 l 1
 217 252 l 1
 308 252 l 2
 406 252 445 189 445 126 c 0
 445 63 406 0 308 0 c 2
 133 0 l 1
 133 315 l 1
 42 315 l 1
217 77 m 1
 315 77 l 2
 343 77 364 103 364 126 c 0
 364 149 343 175 315 175 c 2
 217 175 l 1
 217 77 l 1
EndSplineSet
Validated: 1
EndChar

StartChar: afii10067
Encoding: 1074 1074 285
Width: 478
VWidth: 0
Flags: W
HStem: 0 77<168 314.766> 168 63<168 310.037> 315 77<168 308.208>
VStem: 84 84<77 168 231 315> 315 84<236.075 309.428> 322 86<82.8365 159.921>
LayerCount: 2
Fore
SplineSet
84 0 m 1xf4
 84 392 l 1
 149 392 215 392 280 392 c 0
 350 392 399 343 399 280 c 0xf8
 399 245 385 212 336 198 c 1
 385 184 408 147 408 112 c 0
 408 14 322 0 273 0 c 2
 84 0 l 1xf4
168 231 m 1
 273 231 l 2
 301 231 315 252 315 273 c 0
 315 294 301 315 273 315 c 2
 168 315 l 1
 168 231 l 1
168 77 m 1
 273 77 l 2
 301 77 322 91 322 119 c 0xf4
 322 147 301 168 273 168 c 2
 168 168 l 1
 168 77 l 1
EndSplineSet
Validated: 1
EndChar

StartChar: afii10075
Encoding: 1081 1081 286
Width: 504
VWidth: 0
Flags: W
HStem: 0 21G<84 187.105 336 420> 372 20G<84 168 316.895 420> 448 56<199.874 300.378> 540 20G<112 185.5 315 392>
VStem: 84 84<126 392> 336 84<0 266>
LayerCount: 2
Fore
SplineSet
84 0 m 1
 84 392 l 1
 168 392 l 1
 168 126 l 1
 329 392 l 1
 420 392 l 1
 420 0 l 1
 336 0 l 1
 336 266 l 1
 175 -0 l 1
 84 0 l 1
112 560 m 1
 182 560 l 1
 189 525 217 504 252 504 c 0
 287 504 308 525 322 560 c 1
 392 560 l 1
 392 560 378 448 252 448 c 0
 126 448 112 560 112 560 c 1
EndSplineSet
Validated: 1
EndChar

StartChar: afii10110
Encoding: 1118 1118 287
Width: 448
VWidth: 0
Flags: W
HStem: -168 77<101.639 158.934> 372 20G<42 147.027 302.054 406> 448 56<178.874 279.378> 540 20G<91 164.5 294 371>
LayerCount: 2
Fore
SplineSet
42 392 m 1
 140 392 l 1
 231 133 l 1
 308 392 l 1
 406 392 l 1
 245 -91 l 1
 224 -140 175 -168 133 -168 c 0
 126 -168 126 -168 104 -164 c 1
 77 -84 l 1
 91 -91 105 -91 112 -91 c 0
 161 -91 181 -40 192 0 c 1
 42 392 l 1
91 560 m 1
 161 560 l 1
 168 525 196 504 231 504 c 0
 266 504 287 525 301 560 c 1
 371 560 l 1
 371 560 357 448 231 448 c 0
 105 448 91 560 91 560 c 1
EndSplineSet
Validated: 1
EndChar

StartChar: afii10086
Encoding: 1092 1092 288
Width: 672
VWidth: 0
Flags: W
HStem: -168 21G<294 378> -1 71<210.969 294 378 461.031> 322 71<210.969 294 378 461.031>
VStem: 70 84<126.744 267.159> 294 84<-168 -1 70 322 393 546> 518 84<126.744 267.159>
CounterMasks: 1 1c
LayerCount: 2
Fore
SplineSet
70 194 m 0
 70 374 222 393 283 393 c 0
 287 393 291 393 294 393 c 1
 294 546 l 1
 378 546 l 1
 378 393 l 1
 381 393 385 393 389 393 c 0
 450 393 602 374 602 194 c 0
 602 18 450 -1 389 -1 c 0
 385 -1 381 -1 378 -1 c 1
 378 -168 l 1
 294 -168 l 1
 294 -1 l 1
 291 -1 287 -1 283 -1 c 0
 222 -1 70 18 70 194 c 0
154 196 m 0
 154 119 217 70 273 70 c 2
 294 70 l 1
 294 322 l 1
 273 322 l 2
 217 322 154 273 154 196 c 0
378 70 m 1
 399 70 l 2
 455 70 518 119 518 196 c 0
 518 273 455 322 399 322 c 2
 378 322 l 1
 378 70 l 1
EndSplineSet
Validated: 1
EndChar

StartChar: afii10097
Encoding: 1103 1103 289
Width: 483
VWidth: 0
Flags: W
HStem: 0 21G<42 150 308 392> 159 65<219.594 307.581> 315 77<190.148 308>
VStem: 91 91<233.857 307.274> 308 84<0 158.985 224 315>
LayerCount: 2
Fore
SplineSet
42 0 m 1
 84 49 105 168 175 178 c 1
 133 189 91 227 91 273 c 0
 91 329 126 392 224 392 c 2
 392 392 l 1
 392 0 l 1
 308 0 l 1
 308 156 l 1
 299 159 294 159 280 159 c 0
 182 159 160 32 140 0 c 1
 42 0 l 1
182 271 m 0
 182 249 204 224 231 224 c 2
 308 224 l 1
 308 315 l 1
 231 315 l 2
 203 315 182 294 182 271 c 0
EndSplineSet
Validated: 1
EndChar

StartChar: exclam
Encoding: 33 33 290
Width: 252
VWidth: 0
Flags: W
HStem: -5 122<79.7704 172.23> 543 20G<101.5 150.5>
VStem: 65 122<9.77037 102.23 260.217 550.83>
LayerCount: 2
Fore
SplineSet
187 56 m 0
 187 22 160 -5 126 -5 c 0
 92 -5 65 22 65 56 c 0
 65 90 92 117 126 117 c 0
 160 117 187 90 187 56 c 0
94 182 m 1
 94 182 67 462 67 504 c 0
 67 525 77 563 126 563 c 0
 175 563 185 525 185 504 c 0
 185 462 158 182 158 182 c 1
 94 182 l 1
EndSplineSet
Validated: 1
EndChar

StartChar: quotesingle
Encoding: 39 39 291
Width: 245
VWidth: 0
Flags: W
HStem: 334 112<76.9218 141.584>
VStem: 142 38<305.159 338>
LayerCount: 2
Fore
SplineSet
121 446 m 0
 135 446 148 440 158 432 c 0
 164 427 180 413 180 364 c 0
 180 294 105 252 105 252 c 1
 98 269 l 1
 98 269 142 296 142 331 c 2
 142 338 l 1
 136 335 128 334 121 334 c 0
 90 334 65 359 65 390 c 0
 65 421 90 446 121 446 c 0
EndSplineSet
Validated: 1
EndChar

StartChar: comma
Encoding: 44 44 292
Width: 224
VWidth: 0
Flags: W
HStem: -91 208
VStem: 51 122<9.65393 102.125>
LayerCount: 2
Fore
SplineSet
112 117 m 0
 145.689 117 173 89.6895 173 56 c 0
 173 46.1377 169.756 37.2324 166.5 28.5938 c 0
 161 14 105 -77 95 -91 c 1
 49 -91 l 1
 103.688 -4.4375 l 1
 73.9336 -0.379883 51 25.1328 51 56 c 0
 51 89.6895 78.3105 117 112 117 c 0
EndSplineSet
Validated: 1
EndChar

StartChar: uni0237
Encoding: 567 567 293
Width: 252
VWidth: 0
Flags: W
HStem: -167.852 80.7067<3.77817 98.1945> 372 20G<84 168>
VStem: 84 84<-84.2205 392>
LayerCount: 2
Fore
SplineSet
84 392 m 1
 168 392 l 1
 168 -70 l 2
 168 -132.867 112.236 -167.852 84.153 -167.852 c 0
 42.136 -167.74 20.9873 -167.995 -14 -154 c 1
 7 -84 l 1
 18.098 -85.7934 29.6387 -87.1453 40.3043 -87.1453 c 0
 64.3818 -87.1453 84 -80.2555 84 -56 c 2
 84 392 l 1
84 392 m 1
 168 392 l 1
 84 392 l 1
EndSplineSet
Validated: 5
EndChar

StartChar: Delta
Encoding: 916 916 301
AltUni2: 002206.ffffffff.0
Width: 581
VWidth: 0
Flags: W
HStem: 0 84<204 384> 540 20G<225.25 362.5>
LayerCount: 2
Fore
SplineSet
70 0 m 1
 231 560 l 1
 357 560 l 1
 511 0 l 1
 70 0 l 1
204 84 m 5
 384 84 l 5
 294 420 l 5
 204 84 l 5
EndSplineSet
Validated: 1
EndChar

StartChar: uni03F5
Encoding: 1013 1013 305
Width: 450
VWidth: 0
Flags: W
HStem: -14 70<194.323 304.294> 336 70<191.724 304.617>
VStem: 70 86<96.2825 168 231 296.015>
LayerCount: 2
Fore
SplineSet
247 406 m 0
 142 406 70 322 70 196 c 0
 70 70 142 -14 247 -14 c 0
 305 -14 358 9 391 53 c 1
 331 105 l 1
 310 77 281 56 247 56 c 0
 197 56 156 105 156 168 c 1
 332 168 l 5
 332 231 l 5
 156 231 l 1
 156 294 199 336 247 336 c 0
 281 336 310 315 331 287 c 1
 388 339 l 1
 353 381 304 406 247 406 c 0
EndSplineSet
Validated: 9
EndChar

StartChar: guillemotleft
Encoding: 171 171 312
Width: 392
VWidth: 0
Flags: W
HStem: 372 20.25G<134.833 209.5 261.333 336>
VStem: 48.5 287.5
LayerCount: 2
Fore
SplineSet
175 224 m 1
 273 392 l 1
 336 392 l 1
 238 224 l 1
 336 56 l 1
 273 56 l 1
 175 224 l 1
48.5 224.25 m 1
 146.5 392.25 l 1
 209.5 392.25 l 1
 111.5 224.25 l 1
 209.5 56.25 l 1
 146.5 56.25 l 1
 48.5 224.25 l 1
EndSplineSet
Validated: 1
EndChar

StartChar: question
Encoding: 63 63 314
Width: 476
VWidth: 0
Flags: W
HStem: -5 122<145.067 246.933> 490 77<160.388 280.809>
VStem: 135 122<5.06737 106.933> 301 98<368.629 471.755>
LayerCount: 2
Fore
SplineSet
135 56 m 0
 135 96.6667 155.333 117 196 117 c 0
 236.667 117 257 96.6666 257 56 c 0
 257 15.3333 236.667 -5 196 -5 c 0
 155.333 -5 135 15.3333 135 56 c 0
154 175 m 1
 156.5 189.5 l 0
 158.167 199.167 162.5 212.333 169.5 229 c 0
 176.5 245.667 185.333 261 196 275 c 0
 203.333 285 216.833 300 236.5 320 c 0
 256.167 340 271.833 358 283.5 374 c 0
 295.167 390 301 405.333 301 420 c 0
 301 442.667 294 460 280 472 c 0
 266 484 249.667 490 231 490 c 0
 223.667 490 216.167 489.333 208.5 488 c 0
 200.833 486.667 194.167 485 188.5 483 c 0
 182.833 481 176.667 478 170 474 c 0
 163.333 470 158.167 466.833 154.5 464.5 c 0
 150.833 462.167 145.667 458.167 139 452.5 c 0
 132.333 446.831 128 443.164 126 441.5 c 0
 124 439.829 119.833 435.662 113.5 429 c 0
 107.167 422.332 103.667 418.665 103 418 c 1
 46 483 l 1
 102 539 163.667 567 231 567 c 0
 282.334 566.997 323.167 555.831 353.5 533.5 c 0
 383.834 511.167 399 478 399 434 c 0
 399 416.667 396.5 400.167 391.5 384.5 c 0
 386.5 368.833 378.833 353.833 368.5 339.5 c 0
 358.167 325.167 349.5 314 342.5 306 c 0
 335.5 298 325 287.5 311 274.5 c 0
 297 261.5 289 254 287 252 c 0
 280.333 245.333 274.833 239.333 270.5 234 c 0
 266.167 228.666 262.833 222.833 260.5 216.5 c 0
 258.167 210.166 256.667 206 256 204 c 0
 255.333 202 254.5 197 253.5 189 c 0
 252.5 181 252 176.333 252 175 c 1
 154 175 l 1
EndSplineSet
Validated: 1
EndChar

StartChar: bracketleft
Encoding: 91 91 316
Width: 329
VWidth: 0
Flags: W
HStem: -84 84<168 252> 504 84<168 252>
VStem: 77 175<-84 0 504 588> 77 91<0 504>
LayerCount: 2
Fore
SplineSet
77 -84 m 1xe0
 77 588 l 5
 252 588 l 1
 252 504 l 1xe0
 168 504 l 1
 168 0 l 1xd0
 252 0 l 1
 252 -84 l 1
 77 -84 l 1xe0
EndSplineSet
Validated: 1
EndChar

StartChar: parenleft
Encoding: 40 40 318
Width: 364
VWidth: 0
Flags: W
HStem: 554 20G<224 260>
VStem: 77 98<42.6673 349.333>
LayerCount: 2
Fore
SplineSet
287 539 m 1
 287 539 175 420 175 196 c 0
 175 -28 287 -147 287 -147 c 1
 224 -182 l 1
 224 -182 77 -42 77 196 c 0
 77 434 224 574 224 574 c 1
 287 539 l 1
EndSplineSet
Validated: 1
EndChar

StartChar: emdash
Encoding: 8212 8212 320
Width: 505
VWidth: 0
Flags: W
HStem: 146 90<70 435>
LayerCount: 2
Fore
SplineSet
70 146 m 1
 70 236 l 1
 435 236 l 1
 435 146 l 1
 70 146 l 1
EndSplineSet
Validated: 1
EndChar

StartChar: endash
Encoding: 8211 8211 321
Width: 491
VWidth: 0
Flags: W
HStem: 146 90<70 421>
LayerCount: 2
Fore
SplineSet
70 146 m 1
 70 236 l 1
 421 236 l 1
 421 146 l 1
 70 146 l 1
EndSplineSet
Validated: 1
EndChar

StartChar: afii61352
Encoding: 8470 8470 322
Width: 1000
VWidth: 0
HStem: 0 21G<92 190 368.182 483> 225 62<546 756> 336 56<607.133 694.867> 504 56<607.133 694.867>
VStem: 92 98<0 385> 385 98<175 560> 539 56<404.133 491.867> 707 56<404.133 491.867>
LayerCount: 2
Fore
SplineSet
92 0 m 1
 92 560 l 1
 196 560 l 1
 385 175 l 1
 385 560 l 1
 483 560 l 1
 483 0 l 1
 378 0 l 1
 189 385 l 5
 190 0 l 1
 92 0 l 1
651 560 m 0
 713 560 763 510 763 448 c 0
 763 386 713 336 651 336 c 0
 589 336 539 386 539 448 c 0
 539 510 589 560 651 560 c 0
651 504 m 0
 620 504 595 479 595 448 c 0
 595 417 620 392 651 392 c 0
 682 392 707 417 707 448 c 0
 707 479 682 504 651 504 c 0
546 287 m 1
 756 287 l 1
 756 225 l 1
 546 225 l 1
 546 287 l 1
EndSplineSet
Validated: 1
EndChar

StartChar: l
Encoding: 108 108 324
Width: 321
VWidth: 0
Flags: W
HStem: -7 77<183.43 258.985> 540 20G<98 182>
VStem: 98 84<71.3338 560>
LayerCount: 2
Fore
SplineSet
98 560 m 1
 182 560 l 1
 182 105 l 2
 182 77 196 70 217 70 c 0
 238 70 259 77 259 77 c 1
 273 0 l 1
 252 -7 231 -7 217 -7 c 2
 175 -7 l 2
 123 -7 98 19 98 63 c 2
 98 560 l 1
EndSplineSet
Validated: 1
EndChar

StartChar: Lslash
Encoding: 321 321 333
Width: 574
VWidth: 0
Flags: W
HStem: 0 84<252 504> 386 20G<301.714 336> 540 20G<154 252>
VStem: 154 98<84 196 357 560>
LayerCount: 2
Fore
SplineSet
154 560 m 1
 252 560 l 1
 252 357 l 1
 336 406 l 1
 336 301 l 1
 252 252 l 1
 252 84 l 1
 504 84 l 1
 504 0 l 1
 154 0 l 1
 154 196 l 1
 70 147 l 1
 70 252 l 1
 154 301 l 1
 154 560 l 1
EndSplineSet
Validated: 1
EndChar

StartChar: uni01C7
Encoding: 455 455 337
Width: 842
VWidth: 0
Flags: W
HStem: -14 98<490.879 629.116> 0 84<189 441> 540 20G<91 189 646 744>
VStem: 91 98<84 560> 646 98<100.835 560>
LayerCount: 2
Fore
SplineSet
91 0 m 1x78
 91 560 l 1
 189 560 l 1
 189 84 l 1
 441 84 l 1
 441 0 l 1
 91 0 l 1x78
EndSplineSet
Refer: 34 74 N 1 0 0 1 450 0 2
Validated: 1
EndChar

StartChar: uni01C8
Encoding: 456 456 338
Width: 672
VWidth: 0
Flags: W
HStem: -167.852 80.7067<423.778 518.195> 0 84<189 441> 372 20G<504 588> 460 122<499.881 592.119> 540 20G<91 189>
VStem: 91 98<84 560> 485 122<474.881 567.119> 504 84<-84.2205 392>
LayerCount: 2
Fore
SplineSet
91 0 m 1xec
 91 560 l 1
 189 560 l 1
 189 84 l 1
 441 84 l 1
 441 0 l 1
 91 0 l 1xec
EndSplineSet
Refer: 293 567 N 1 0 0 1 420 0 2
Refer: 69 775 N 1 0 0 1 658 0 2
Validated: 5
EndChar

StartChar: g
Encoding: 103 103 340
Width: 483
VWidth: 0
Flags: W
HStem: -179 71<138.333 307.871> -14 70<192.569 302.285> 329 77<188.999 303.59> 372 20G<355.469 427>
VStem: 56 84<114.844 277.673> 343 84<-74.5715 42 98.017 290.804> 357 70<350.497 392>
LayerCount: 2
Fore
SplineSet
245 406 m 0xec
 315 406 343 350 343 350 c 1xec
 349.395 360.545 353.938 374.79 357 392 c 1
 427 392 l 1xda
 427 -21 l 2
 427 -126 336 -179 245 -179 c 0
 151.245 -179 77 -147 56 -126 c 1
 91 -63 l 1
 112 -77 175 -108 245 -108 c 0
 287 -108 343 -77 343 -21 c 2
 343 42 l 2
 343 35 308 -14 245 -14 c 0
 182 -14 56 21 56 196 c 0
 56 364 175 406 245 406 c 0xec
245 329 m 0
 196 329 140 280 140 196 c 0
 140 112 196 56 245 56 c 0
 301 56 322 98 343 133 c 1
 343 259 l 1
 322 301 285.145 329 245 329 c 0
EndSplineSet
Validated: 1
EndChar

StartChar: h
Encoding: 104 104 346
Width: 469
VWidth: 0
Flags: W
HStem: 0 21G<91 175 329 413> 329 70<223.251 317.778> 540 20G<91 175>
VStem: 91 84<0 285.153 336 560> 329 84<0 316.976>
LayerCount: 2
Fore
SplineSet
294 399 m 0
 371 399 413 350 413 280 c 2
 413 0 l 1
 329 0 l 1
 329 273 l 2
 329 294 315 329 273 329 c 0
 232.855 329 196 294 175 252 c 1
 175 0 l 1
 91 0 l 1
 91 560 l 1
 175 560 l 1
 175 336 l 1
 175 336 224 399 294 399 c 0
EndSplineSet
Validated: 1
EndChar

StartChar: n
Encoding: 110 110 349
Width: 469
VWidth: 0
Flags: W
HStem: 0 21G<91 175 329 413> 329 70<218.948 317.778> 372 20G<91 164.531>
VStem: 91 84<0 285.153> 91 72<346.5 392> 329 84<0 316.976>
LayerCount: 2
Fore
SplineSet
294 399 m 0xcc
 371 399 413 350 413 280 c 2
 413 0 l 1
 329 0 l 1
 329 273 l 2
 329 294 315 329 273 329 c 0
 232.855 329 196 294 175 252 c 1
 175 0 l 1
 91 0 l 1xd4
 91 392 l 5
 163 392 l 1xac
 166.062 374.79 170.605 356.545 177 346 c 1
 177 346 224 399 294 399 c 0xcc
EndSplineSet
Validated: 1
EndChar

StartChar: m
Encoding: 109 109 355
Width: 672
VWidth: 0
Flags: W
HStem: 0 21G<84 168 308 392 532 616> 329 70<207.96 299.753 432.068 522.586> 372 20G<84 157.531>
VStem: 84 84<0 286.823> 84 72<346.5 392> 308 84<0 286.823> 532 84<0 319.822>
LayerCount: 2
Fore
SplineSet
280 399 m 0xce
 334.606 399 371 371 385 329 c 1
 399 371 452.293 399 504 399 c 0
 581 399 616 350 616 280 c 2
 616 0 l 1
 532 0 l 1
 532 273 l 2
 532 294 525 329 483 329 c 0
 442.855 329 413 294 392 252 c 1
 392 0 l 1
 308 0 l 1
 308 273 l 2
 308 294 301 329 259 329 c 0
 218.855 329 189 294 168 252 c 1
 168 0 l 1
 84 0 l 1xd6
 84 392 l 1
 156 392 l 1xae
 159.062 374.79 163.605 356.545 170 346 c 1
 170 346 210 399 280 399 c 0xce
EndSplineSet
Validated: 1
EndChar

StartChar: afii10062
Encoding: 1038 1038 398
Width: 560
VWidth: 0
Flags: W
HStem: -2 86<136.677 229.732> 540 20G<56 170.048 398.381 511> 602 63<218.264 341.249>
VStem: 126 70<687.75 742> 364 63<687.75 742>
LayerCount: 2
Fore
SplineSet
126 742 m 5
 196 742 l 5
 196 700 224 665 280 665 c 4
 336 665 364 700 364 742 c 5
 427 742 l 5
 427 686 378 602 280 602 c 4
 182 602 126 686 126 742 c 5
56 560 m 1
 161 560 l 1
 294 266 l 1
 406 560 l 1
 511 560 l 1
 329 91 l 2
 309 38 245 -2 196 -2 c 0
 168 -2 154 0 147 3 c 1
 126 91 l 1
 126 91 154 84 182 84 c 0
 217 84 249 119 249 140 c 0
 249 161 56 560 56 560 c 1
EndSplineSet
Validated: 1
EndChar

StartChar: alpha
Encoding: 945 945 401
Width: 483
VWidth: 0
Flags: W
HStem: -14 70<192.569 302.285> 0 21G<343 427> 329 77<188.999 303.59> 372 20G<355.469 427>
VStem: 56 84<114.844 277.673> 343 84<0 42 98.017 290.804> 357 70<350.497 392>
LayerCount: 2
Fore
SplineSet
245 406 m 0xac
 315 406 343 350 343 350 c 1xac
 349.395 360.545 353.938 374.79 357 392 c 5
 427 392 l 1x1a
 427 0 l 1
 343 0 l 1x5c
 343 42 l 2
 343 35 308 -14 245 -14 c 0
 182 -14 56 21 56 196 c 0
 56 364 175 406 245 406 c 0xac
245 329 m 0
 196 329 140 280 140 196 c 0
 140 112 196 56 245 56 c 0
 301 56 322 98 343 133 c 1
 343 259 l 1
 322 301 285.145 329 245 329 c 0
EndSplineSet
Validated: 1
EndChar

StartChar: r
Encoding: 114 114 403
Width: 406
VWidth: 0
Flags: W
HStem: 0 21G<84 168> 315 84<206.255 320.262> 372 20G<84 157.531>
VStem: 84 84<0 283.854> 84 72<346.5 392>
LayerCount: 2
Fore
SplineSet
280 399 m 0xc8
 308.775 399 324.951 398.501 343 385 c 1
 315 301 l 1
 301 315 280 315 259 315 c 0
 218.855 315 189 294 168 252 c 1
 168 0 l 1
 84 0 l 1xd0
 84 392 l 1
 156 392 l 1xa8
 159.062 374.79 163.605 356.545 170 346 c 1
 170 346 210 399 280 399 c 0xc8
EndSplineSet
Validated: 1
EndChar

StartChar: t
Encoding: 116 116 409
Width: 392
VWidth: 0
Flags: W
HStem: -7 76.9626<210.106 311.494> 315 77<63 119 203 315> 540 20G<155 203>
VStem: 119 84<78.3638 315 392 525>
LayerCount: 2
Fore
SplineSet
203 560 m 1
 203 392 l 1
 315 392 l 1
 315 315 l 1
 203 315 l 1
 203 112 l 2
 203 84 231.009 70.6221 252 70 c 0
 252.848 69.9749 253.704 69.9626 254.569 69.9626 c 0
 275.668 69.9626 301.433 77.2755 312 84 c 1
 329 7 l 1
 308 0 259 -7 245 -7 c 0
 174.282 -7 119 21 119 91 c 2
 119 315 l 1
 63 315 l 1
 63 392 l 1
 119 392 l 1
 119 525 l 1
 203 560 l 1
EndSplineSet
Validated: 1
EndChar

StartChar: s
Encoding: 115 115 412
Width: 447
VWidth: 0
Flags: W
HStem: -10 70<160.817 285.382> 332 72<181.933 310.099>
VStem: 83 87<256.657 318.123> 300 91<76.7411 145.698>
LayerCount: 2
Fore
SplineSet
62 56 m 1
 117 112 l 1
 132 98 182 60 230 60 c 0
 265 60 300 84 300 112 c 0
 300 133 290 152 210 165 c 0
 100 183 83 238 83 280 c 0
 83 336 141 404 237 404 c 0
 330 404 386 348 386 348 c 1
 337 292 l 1
 323 306 279 332 244 332 c 0
 195 332 170 307 170 287 c 0
 170 252 217 247 266 234 c 0
 358 210 391 181 391 119 c 0
 391 63 330 -10 237 -10 c 0
 125 -10 62 56 62 56 c 1
EndSplineSet
Validated: 1
EndChar

StartChar: copyright
Encoding: 169 169 420
Width: 728
VWidth: 0
Flags: W
HStem: -84 28<280.16 447.84> 1 73<294.172 437.189> 374 73<291.848 427.791> 504 28<280.16 447.84>
VStem: 56 28<140.16 307.84> 137.851 94.937<138.871 309.599> 644 28<140.16 307.84>
LayerCount: 2
Fore
SplineSet
362 447 m 0
 381 447 400 446 419 443 c 0
 485 433 543 387 570 327 c 1
 476 301 l 1
 465 328 448 349 419 364 c 1
 403 371 385 374 367 374 c 0
 335 374 304 364 280 343 c 0
 249 315 234 273 233 232 c 0
 232.859 228.967 232.788 225.919 232.788 222.862 c 0
 232.788 182.58 245.187 140.743 274 111 c 0
 298 86 333 74 367 74 c 0
 375 74 381 75 389 76 c 5
 429 80 463 110 475 148 c 1
 568 119 l 1
 556 91 533 63 509 44 c 0
 469 13 417 1 367 1 c 0
 361 1 354 2 348 2 c 1
 293 4 237 22 198 62 c 0
 156.184 103.816 137.851 164.6 137.851 222.891 c 0
 137.851 225.935 137.901 228.973 138 232 c 1
 139 290 160 349 202 389 c 0
 245 430 304 447 362 447 c 0
364 532 m 0
 534 532 672 394 672 224 c 0
 672 54 534 -84 364 -84 c 0
 194 -84 56 54 56 224 c 0
 56 394 194 532 364 532 c 0
364 504 m 0
 209 504 84 379 84 224 c 0
 84 69 209 -56 364 -56 c 0
 519 -56 644 69 644 224 c 0
 644 379 519 504 364 504 c 0
EndSplineSet
Validated: 1
EndChar

StartChar: uni2080
Encoding: 8320 8320 425
Width: 420
VWidth: 0
Flags: W
HStem: -14 63<167.5 252.5> 231 63<167.5 251.931>
VStem: 63 84<69.4594 210.541> 273 84.2111<70.3544 211.133>
LayerCount: 2
Fore
SplineSet
210 294 m 0
 304.549 294 357.211 234.429 357.211 149.411 c 0
 357.211 146.307 357.141 143.17 357 140 c 1
 357 56 308 -14 210 -14 c 0
 112 -14 63 56 63 140 c 0
 63 224 112 294 210 294 c 0
210 231 m 0
 161 231 147 175 147 140 c 0
 147 105 161 49 210 49 c 0
 259 49 273 105 273 140 c 0
 273 175 259 231 210 231 c 0
EndSplineSet
Validated: 1
EndChar

StartChar: uni2081
Encoding: 8321 8321 426
Width: 238
VWidth: 0
Flags: W
HStem: 0 280<98 175>
VStem: 91 84<0 189>
LayerCount: 2
Fore
SplineSet
98 280 m 1
 175 280 l 1
 175 0 l 1
 91 0 l 1
 91 189 l 1
 28 161 l 1
 7 196 l 1
 98 280 l 1
EndSplineSet
Validated: 1
EndChar

StartChar: uni20BD
Encoding: 8381 8381 429
Width: 518
VWidth: 0
Flags: W
HStem: 196 84<252 326.006> 476 84<252 326.006>
VStem: 364 98<316.654 439.346>
LayerCount: 2
Fore
SplineSet
308 56 m 1025,0,-1
28 140 m 1025,1,-1
28 140 m 1025,2,-1
308 56 m 1025,3,-1
188.5 476.5 m 1025,4,-1
189.5 475.5 m 1025,5,-1
188.5 476.5 m 1025,6,-1
189.5 475.5 m 1025,7,-1
91 560 m 1,8,-1
 91 280 l 1,9,-1
 28 280 l 1,10,-1
 28 196 l 1,11,-1
 91 196 l 1,12,-1
 91 140 l 1,13,-1
 28 140 l 1,14,-1
 28 56 l 1,15,-1
 91 56 l 1,16,-1
 91 0 l 1,17,-1
 123.667 -0 156.333 0 189 0 c 1,20,-1
 189 56 l 1,21,-1
 308 56 l 1,22,-1
 308 140 l 1,23,-1
 189 140 l 1,24,-1
 189 196 l 1,25,-1
 280 196 l 2,26,-1
 413 196 462 301 462 378 c 0,29,-1
 462 455 413 560 280 560 c 2,32,-1
 91 560 l 1,8,-1
189 476 m 1,33,-1
 252 476 l 2,34,-1
 308 476 364 448 364 378 c 0,37,-1
 364 308 308 280 252 280 c 2,40,-1
 189 280 l 1,41,-1
 189 476 l 1,33,-1
EndSplineSet
Validated: 9
EndChar

StartChar: uni2082
Encoding: 8322 8322 430
Width: 392
VWidth: 0
Flags: W
HStem: 0 63<168 319.343> 231 63<130.131 250.418>
VStem: 252 84<159.866 224.836>
LayerCount: 2
Fore
SplineSet
56 238 m 1
 88.75 264.82 140 294 196 294 c 0
 252 294 336 273 336 203 c 0
 336 133 224 91 168 63 c 1
 336 63 l 1
 336 42 329 21 315 0 c 1
 56 0 l 1
 56 59.5898 l 1
 117.447 94.0986 196 133 224 154 c 0
 252 175 252 189 252 203 c 0
 252 217 231 231 196 231 c 0
 161 231 122.979 206.636 98 189 c 1
 56 238 l 1
EndSplineSet
Validated: 1
EndChar

StartChar: uni2083
Encoding: 8323 8323 432
Width: 393
VWidth: 0
Flags: W
HStem: -14 63<70.1469 245.649> 112 56<161 216.006> 231 63<96.9717 237.287>
VStem: 238 84<187.314 228.355> 252 85<60.6522 116.41>
CounterMasks: 1 e0
LayerCount: 2
Fore
SplineSet
196 294 m 0xf0
 252 294 322 266 322 217 c 0
 322 168 273 161 238 154 c 1xf0
 294 147 337 126 337 84 c 0
 337 42 308 21 280 7 c 0
 252 -7 197 -14 168 -14 c 0
 112 -14 98 -7 70 -0 c 1
 56 70 l 1
 95 62 140 49 175 49 c 0
 210 49 252 63 252 84 c 0xe8
 252 105 238 119 217 119 c 0
 196 119 161 112 161 112 c 1
 161 168 l 1
 189 175 238 189 238 210 c 0
 238 231 201 231 182 231 c 0
 163 231 111 218 84 203 c 1
 63 266 l 1
 109 281 140 294 196 294 c 0xf0
EndSplineSet
Validated: 1
EndChar

StartChar: uni2084
Encoding: 8324 8324 434
Width: 455
VWidth: 0
Flags: W
HStem: 0 21G<252 336> 56 63<161 252 336 371>
VStem: 252 84<0 56 119 196>
LayerCount: 2
Fore
SplineSet
252 280 m 1
 336 280 l 1
 336 119 l 1
 399 119 l 1
 371 56 l 1
 336 56 l 1
 336 0 l 1
 252 0 l 1
 252 56 l 1
 56 56 l 1
 56 112 l 1
 252 280 l 1
252 119 m 1
 252 196 l 1
 161 119 l 1
 252 119 l 1
EndSplineSet
Validated: 1
EndChar

StartChar: uni2085
Encoding: 8325 8325 436
Width: 402
VWidth: 0
Flags: W
HStem: -14 63<87.0616 246.957> 140 56<160.996 252.93> 217 63<154 301>
VStem: 77 77<168 217> 259 91<62.7241 132.019>
LayerCount: 2
Fore
SplineSet
77 133 m 1
 77 280 l 1
 336 280 l 1
 301 217 l 1
 154 217 l 1
 154 168 l 1
 168 182 189 196 238 196 c 0
 287 196 350 161 350 91 c 0
 350 21 273 -14 196 -14 c 0
 119 -14 100.304 -0.498047 77 14 c 1
 70 77 l 1
 91 63 112 49 168 49 c 0
 224 49 259 63 259 98 c 0
 259 133 224 140 196 140 c 0
 168 140 151.233 130.796 133 119 c 1
 77 133 l 1
EndSplineSet
Validated: 1
EndChar

StartChar: uni2086
Encoding: 8326 8326 438
Width: 414
VWidth: 0
Flags: W
HStem: -13 62<168.356 275.129> 133.083 55.9173<162.196 273.779> 237.034 56.9662<171.473 321.009>
VStem: 70 70<147 206.563> 280 78.0339<54.7319 125.772>
LayerCount: 2
Fore
SplineSet
217 294 m 0
 270.5 294 301 287 322 280 c 1
 336 224 l 1
 322 230 280 236 238 237 c 0
 237.058 237.022 236.11 237.034 235.155 237.034 c 0
 193.517 237.034 140 215.431 140 147 c 1
 161 175 203 189 238 189 c 0
 272.603 189 358.034 164.149 358.034 96.9063 c 0
 358.034 26.0274 314.67 -13 218 -13 c 0
 132.994 -13 70 63 70 140 c 0
 70 217 140 294 217 294 c 0
231 133 m 0
 229.683 133.055 228.341 133.083 226.978 133.083 c 0
 203.499 133.083 173.463 124.847 147 105 c 1
 161 70 182 49 224 49 c 0
 266 49 280 63 280 91 c 0
 280 119 255 132 231 133 c 0
EndSplineSet
Validated: 1
EndChar

StartChar: uni2087
Encoding: 8327 8327 442
Width: 378
VWidth: 0
Flags: W
HStem: 0 21G<98 203> 217 63<70 231>
VStem: 49 273<217.437 238>
LayerCount: 2
Fore
SplineSet
70 280 m 5
 322 280 l 5
 322 224 l 5
 266 154 217 84 189 0 c 5
 98 0 l 5
 126 77 175 154 231 217 c 5
 49 217 l 5
 70 280 l 5
EndSplineSet
Validated: 1
EndChar

StartChar: uni2088
Encoding: 8328 8328 444
Width: 420
VWidth: 0
Flags: W
HStem: -14 63<148.685 271.315> 245 49<165.695 254.433>
VStem: 63 84<56.0684 103.523> 76.987 84.013<182.337 238.194> 259 84<182.94 237.587> 273 84<56.0684 103.523>
LayerCount: 2
Fore
SplineSet
210 294 m 0xd0
 287 294 343 252 343 210 c 0xd8
 343 168 308 154 280 147 c 1
 308 140 357 133 357 77 c 0
 357 21 308 -14 210 -14 c 0
 112 -14 63 21 63 77 c 0xe4
 63 133 112 140 140 147 c 1
 112.046 153.989 76.987 167.328 76.987 211.115 c 0
 76.987 253.706 133.666 294 210 294 c 0xd0
210 245 m 0
 189 245 161 231 161 210 c 0
 161 189 196 175 210 168 c 1
 223 175 259 189 259 210 c 0
 259 231 231 245 210 245 c 0
273 77 m 0xe4
 273 98 224 119 210 126 c 1
 196 119 147 98 147 77 c 0
 147 56 182 49 210 49 c 0
 238 49 273 56 273 77 c 0xe4
EndSplineSet
Validated: 1
EndChar

StartChar: uni030B
Encoding: 779 779 454
Width: 0
VWidth: 0
Flags: W
HStem: 441 147
VStem: -5 292
LayerCount: 2
Fore
SplineSet
56 588 m 1
 147 588 l 1
 46 441 l 1
 -5 441 l 1
 56 588 l 1
196 588 m 1
 287 588 l 1
 168 441 l 1
 112 441 l 1
 196 588 l 1
EndSplineSet
Validated: 1
EndChar

StartChar: acutecomb
Encoding: 769 769 457
Width: 0
VWidth: 0
Flags: W
HStem: 441 147
VStem: -5 162
LayerCount: 2
Fore
SplineSet
66 588 m 5
 157 588 l 5
 46 441 l 1
 -5 441 l 1
 66 588 l 5
EndSplineSet
Validated: 1
EndChar

StartChar: gravecomb
Encoding: 768 768 458
Width: 0
VWidth: 0
Flags: W
HStem: 441 147
LayerCount: 2
Fore
SplineSet
86 588 m 5
 -5 588 l 5
 106 441 l 5
 157 441 l 5
 86 588 l 5
EndSplineSet
Validated: 9
EndChar

StartChar: afii10148
Encoding: 1140 1140 488
Width: 623
VWidth: 0
Flags: W
HStem: 0 21G<225.25 362.521> 476 98<497.611 543.5> 540 20G<70 187.333>
LayerCount: 2
Fore
SplineSet
70 560 m 1xa0
 182 560 l 1xa0
 294 140 l 1
 375 442 l 1
 392 511 450 565 542 574 c 1
 563 476 l 1xc0
 512 476 481 449 471 413 c 2
 357 0 l 1
 231 0 l 1
 70 560 l 1xa0
EndSplineSet
Validated: 1
EndChar

StartChar: afii10196
Encoding: 1141 1141 489
Width: 490
VWidth: 0
Flags: W
HStem: 0 21G<168.571 279.336> 329 70<382.699 429.1> 372 20G<49 148.934>
LayerCount: 2
Fore
SplineSet
49 392 m 1xa0
 143 392 l 1xa0
 224 119 l 1
 272 280 l 2
 287 332 333 392 427 399 c 1
 448 329 l 1xc0
 402 326 369 310 356 262 c 1
 273 0 l 1
 175 0 l 1
 49 392 l 1xa0
EndSplineSet
Validated: 1
EndChar

StartChar: uni030C
Encoding: 780 780 505
Width: 0
VWidth: 0
HStem: 448 168
VStem: 50 312
LayerCount: 2
Fore
SplineSet
169 448 m 5
 50 616 l 5
 104 616 l 5
 206 518 l 5
 308 616 l 5
 362 616 l 5
 243 448 l 5
 169 448 l 5
EndSplineSet
Validated: 1
EndChar

StartChar: tildecomb
Encoding: 771 771 524
Width: 0
VWidth: 0
HStem: 448 58<207.278 297.235> 499 59<85.4646 180.618>
VStem: 50 293
LayerCount: 2
Fore
SplineSet
50 504 m 1x60
 50 504 95 558 137 558 c 0x60
 179 558 224 506 252 506 c 0
 280 506 305 535 312 542 c 1
 343 511 l 1
 336 504 291 448 249 448 c 0xa0
 207 448 162 499 134 499 c 0
 106 499 88 480 81 473 c 1
 50 504 l 1x60
EndSplineSet
Validated: 1
EndChar

StartChar: ampersand
Encoding: 38 38 533
Width: 609
VWidth: 0
Flags: W
HStem: -14 84<181.409 330.045> 0 21G<413.154 539> 492 82<249.228 337.288>
VStem: 63 93<95.7891 193.986> 147 91<395.373 480.779> 348 86<389.416 478.997>
LayerCount: 2
Fore
SplineSet
294 574 m 0xac
 385 574 434 497 434 448 c 0
 434 385 378 329 331.396484375 293.68359375 c 1
 421.236328125 166.59375 l 1
 443.264648438 185.614257812 458 221.375 460 226 c 1
 525 178 l 1
 510.346679688 148.692382812 491.791992188 125.173828125 467.98828125 100.45703125 c 1
 539 0 l 1
 427 0 l 1x6c
 399.40625 39.859375 l 1
 367.08203125 15.765625 314.505859375 -14 252 -14 c 0
 147 -14 63 42 63 140 c 0xb4
 63 246.21484375 148.798828125 288.38671875 207.9609375 316.390625 c 1
 175 364 l 1
 175 364 147 385 147 448 c 0
 147 511 203 574 294 574 c 0xac
294 492 m 0
 280 492 238 483 238 440 c 0
 238 427 243.814453125 418.279296875 252 406 c 0
 266 385 291.029296875 350.787109375 291.029296875 350.787109375 c 1
 322 378 348 413 348 445.37109375 c 0
 348 476 308 492 294 492 c 0
251.533203125 253.451171875 m 1
 183.668945312 217.41015625 156 175.37109375 156 140 c 0
 156 105 189 70 252 70 c 0xb4
 282.813476562 70 321.572265625 83.7841796875 353.681640625 105.904296875 c 1
 251.533203125 253.451171875 l 1
EndSplineSet
Validated: 1
EndChar

StartChar: underscore
Encoding: 95 95 534
Width: 500
VWidth: 0
Flags: W
HStem: -139 55<0 500>
LayerCount: 2
Fore
SplineSet
0 -84 m 5
 500 -84 l 1
 500 -139 l 1
 0 -139 l 1
 0 -84 l 5
EndSplineSet
Validated: 1
EndChar

StartChar: bar
Encoding: 124 124 548
Width: 245
VWidth: 0
Flags: W
VStem: 77 91<-84 588>
LayerCount: 2
Fore
SplineSet
168 -84 m 1
 77 -84 l 1
 77 588 l 1
 168 588 l 1
 168 -84 l 1
EndSplineSet
Validated: 1
EndChar

StartChar: dollar
Encoding: 36 36 549
Width: 588
VWidth: 0
Flags: W
HStem: -14 91<214.881 334.46> 483 91<304.474 369.384>
VStem: 119 98<361.096 451.521> 257 44.5<-70 602> 336 44.5<-70 602> 420.462 104.538<111.504 208.663>
LayerCount: 2
Fore
SplineSet
88 84 m 1
 157 141 l 1
 157 141 210 77 308 77 c 0
 399 77 420 133 420 154 c 0
 420 157.68359375 420.461914062 162.137695312 420.461914062 167.107421875 c 0
 420.461914062 190.462890625 410.262695312 225.2109375 294 245 c 0
 133 273 119 350 119 399 c 0
 119 497 203 574 322 574 c 0
 420 574 511 497 511 497 c 1
 448 427 l 1
 448 427 406 483 322 483 c 0
 238 483 217 427 217 399 c 0
 217 350 287 338 364 322 c 0
 462 301 525 245 525 161 c 0
 525 91 448 -14 308 -14 c 0
 182 -14 88 84 88 84 c 1
301.5 -70 m 5
 257 -70 l 1
 257 602 l 1
 301.5 602 l 5
 301.5 -70 l 5
380.5 -70 m 1
 336 -70 l 1
 336 602 l 1
 380.5 602 l 1
 380.5 -70 l 1
EndSplineSet
Validated: 5
EndChar

StartChar: backslash
Encoding: 92 92 550
Width: 523
VWidth: 0
Flags: W
LayerCount: 2
Fore
SplineSet
384.002182328 -84.0043520299 m 1
 42 602 l 5
 146 602 l 5
 147 601 481 -84 481 -84 c 5
 384.002182328 -84.0043520299 l 1
EndSplineSet
Validated: 1
EndChar

StartChar: at
Encoding: 64 64 552
Width: 633
VWidth: 0
Flags: W
HStem: -14 81<244.872 387.973> 152 70<339.768 424.192> 493 81<249.784 405.771>
VStem: 66 75<184.93 375.07> 235 91<237.159 326.74> 453 84<249.37 358>
LayerCount: 2
Fore
SplineSet
453 358 m 1
 416 356 326 348 326 284 c 0
 326 236 368 222 382 222 c 0
 424 222 453 278 453 284 c 2
 453 358 l 1
537 390 m 2
 537 256 l 2
 537 222.891891892 555.791088386 221.997078159 569.672793319 221.997078159 c 0
 570.466033601 221.997078159 571.243243243 222 572 222 c 2
 537 152 l 1
 488 152 460 158 453 214 c 1
 439 186 417 152 361 152 c 0
 305 152 235 194 235 278 c 0
 235 395 408 414 448 417 c 1
 446.958648682 425.958343506 445 434 439 441 c 0
 413 472 385 493 324 493 c 0
 237 493 141 406 141 280 c 0
 141 154 237 67 314 67 c 0
 363 67 387 85 406 105 c 1
 406 104 480 46 480 46 c 1
 480 46 427 -14 314 -14 c 0
 160 -14 66 118 66 280 c 0
 66 442 160 574 314 574 c 0
 409 574 484 524 524 449 c 0
 529 440 537 410 537 390 c 2
EndSplineSet
Validated: 1
EndChar

StartChar: uni0328
Encoding: 808 808 553
Width: 0
VWidth: 0
HStem: -217 53<74.0848 177.889> -20 20G<128.5 152.667>
VStem: 6 63<-157.291 -80.3533>
LayerCount: 2
Fore
SplineSet
146 0 m 1029,0,-1
146 0 m 5,1,-1
 160 -42 l 5,2,-1
 160 -42 69 -70 69 -119 c 4,5,-1
 69 -161 104 -164 125 -164 c 4,8,-1
 146 -164 188 -140 188 -140 c 5,11,-1
 202 -175 l 5,12,-1
 202 -175 167 -217 104 -217 c 4,15,-1
 41 -217 6 -175 6 -126 c 4,18,-1
 6 -49 111 -14 146 0 c 5,1,-1
EndSplineSet
Validated: 1
EndChar

StartChar: uni04E8
Encoding: 1256 1256 569
Width: 588
VWidth: 0
Flags: W
HStem: -14 91<232.319 355.681> 252 70<163 425> 483 91<232.162 355.527>
VStem: 66 96<159.405 252 322 400.615> 426 96<159.405 252 322 400.615>
LayerCount: 2
Fore
SplineSet
66 280 m 0
 66 442 140 574 294 574 c 0
 446 574 522 446 522 280 c 0
 522 118 448 -14 294 -14 c 0
 140 -14 66 118 66 280 c 0
163 322 m 1
 425 322 l 1
 414 423 362 483 294 483 c 0
 226 483 174 423 163 322 c 1
162 252 m 1
 170 143 223 77 294 77 c 0
 365 77 418 143 426 252 c 1
 162 252 l 1
EndSplineSet
Validated: 1
EndChar

StartChar: uni04E9
Encoding: 1257 1257 572
Width: 504
VWidth: 0
Flags: W
HStem: -14 70<198.534 305.466> 168 56<156 348> 336 70<198.534 305.466>
VStem: 70 86<102.68 168 224 289.32> 348 86<102.68 168 224 289.32>
CounterMasks: 1 e0
LayerCount: 2
Fore
SplineSet
70 196 m 0
 70 322 147 406 252 406 c 0
 357 406 434 322 434 196 c 0
 434 70 357 -14 252 -14 c 0
 147 -14 70 70 70 196 c 0
156 224 m 1
 348 224 l 1
 340 292 302 336 252 336 c 0
 202 336 164 292 156 224 c 1
156 168 m 1
 164 100 202 56 252 56 c 0
 302 56 340 100 348 168 c 1
 156 168 l 1
EndSplineSet
Validated: 1
EndChar

StartChar: uni0306
Encoding: 774 774 587
Width: 0
VWidth: 0
Flags: W
HStem: 602 63<132.264 255.249>
VStem: 40 70<687.75 742> 278 63<687.75 742>
LayerCount: 2
Fore
SplineSet
110 742 m 1
 110 700 138 665 194 665 c 0
 250 665 278 700 278 742 c 1
 341 742 l 1
 341 686 292 602 194 602 c 0
 96 602 40 686 40 742 c 1
 110 742 l 1
EndSplineSet
Validated: 1
EndChar

StartChar: macron
Encoding: 175 175 599
Width: 476
VWidth: 0
Flags: W
HStem: 459 60<105 371>
VStem: 105 266<459 519>
LayerCount: 2
Fore
SplineSet
105 459 m 1
 105 519 l 1
 371 519 l 1
 371 459 l 1
 105 459 l 1
EndSplineSet
Validated: 1
EndChar

StartChar: uni048C
Encoding: 1164 1164 611
Width: 546
VWidth: 0
Flags: W
HStem: 0 84<147 318.801> 252 84<147 319.404> 420 84<0 49 147 203> 540 20G<49 148>
VStem: 49 98<84 252 336 419 504 560> 350 98<112.147 223.853>
LayerCount: 2
Fore
SplineSet
0 420 m 1
 0 504 l 1
 49 503 l 1
 49 560 l 1
 148 560 l 1
 147 504 l 1
 203 504 l 1
 203 420 l 1
 147 420 l 1
 147 336 l 1
 266 336 l 2
 406 336 448 238 448 168 c 0
 448 98 434 0 294 0 c 2
 49 0 l 1
 49 419 l 1
 0 420 l 1
147 84 m 1
 245 84 l 2
 308 84 350 112 350 168 c 0
 350 224 308 252 245 252 c 2
 147 252 l 1
 147 84 l 1
EndSplineSet
Validated: 1
EndChar

StartChar: uni048D
Encoding: 1165 1165 612
Width: 501
VWidth: 0
Flags: W
HStem: 0 77<175 311.404> 175 77<175 311.404> 315 77<42 91 175 224> 540 20G<91 175>
VStem: 91 84<77 175 252 315 392 560> 322 81<87.2884 164.712>
LayerCount: 2
Fore
SplineSet
42 315 m 1
 42 392 l 1
 91 392 l 1
 91 560 l 1
 175 560 l 1
 175 392 l 1
 224 392 l 1
 224 315 l 1
 175 315 l 1
 175 252 l 1
 266 252 l 2
 364 252 403 189 403 126 c 0
 403 63 364 0 266 0 c 2
 91 0 l 1
 91 315 l 1
 42 315 l 1
175 77 m 1
 273 77 l 2
 301 77 322 103 322 126 c 0
 322 149 301 175 273 175 c 2
 175 175 l 1
 175 77 l 1
EndSplineSet
Validated: 1
EndChar

StartChar: iota
Encoding: 953 953 614
Width: 321
VWidth: 0
Flags: W
HStem: -7 77<183.43 258.985> 372 20G<98 182>
VStem: 98 84<71.3339 392>
LayerCount: 2
Fore
SplineSet
98 392 m 5
 182 392 l 1
 182 105 l 2
 182 77.0007216883 196 70 217 70 c 0
 238 70 259 77 259 77 c 1
 273 0 l 1
 252 -7 231 -7 217 -7 c 2
 175 -7 l 2
 123 -7 98 19.0009311186 98 63 c 2
 98 392 l 5
EndSplineSet
Validated: 1
EndChar

StartChar: uni03FA
Encoding: 1018 1018 620
Width: 700
VWidth: 0
Flags: W
HStem: 0 21G<84 182 524.686 616> 540 20G<84 215.371 484.629 616>
VStem: 84 98<0 446> 518 98<0 446> 525 91<0 446>
LayerCount: 2
Fore
SplineSet
84 0 m 1xf0
 84 560 l 1
 196 560 l 1
 350 401 l 5
 504 560 l 1
 616 560 l 1xe8
 616 0 l 1xf0
 525 0 l 1xe8
 518 446 l 1
 350 252 l 5
 182 446 l 1
 182 0 l 1
 84 0 l 1xf0
EndSplineSet
Validated: 1
EndChar

StartChar: germandbls
Encoding: 223 223 621
Width: 480
VWidth: 0
Flags: W
HStem: -168 21G<84 168> 0 21G<238 341.5> 252 70<217 269.689> 504 70<192.135 285.041>
VStem: 84 84<-168 479.432> 308 86<358.811 479.973> 322 91<112.219 228.94>
LayerCount: 2
Fore
SplineSet
84 -168 m 1xfc
 84 434 l 2
 84 497 154 574 238 574 c 0
 315 574 394 515 394 431 c 0
 394 354 350 315 308 301 c 1xfc
 371 287 413 245 413 189 c 0
 413 126 364 63 319 0 c 1
 238 0 l 1
 238 0 322 98 322 168 c 0xfa
 322 231 287 252 217 252 c 1
 217 322 l 1
 259 329 308 357 308 420 c 0
 308 455 287 504 238 504 c 0
 189 504 168 448 168 434 c 2
 168 -168 l 1
 84 -168 l 1xfc
EndSplineSet
Validated: 1
EndChar

StartChar: kgreenlandic
Encoding: 312 312 626
Width: 474
VWidth: 0
Flags: W
HStem: 0 21G<98 182 300.464 418> 372.005 20G<98 182 297.393 415>
VStem: 98 84<0 209 214 392.005>
LayerCount: 2
Fore
SplineSet
98 392.004882812 m 1
 182 392.004882812 l 1
 182 214 l 1
 312 392 l 1
 415 392 l 1
 280 207 l 1
 418 0 l 1
 313 0 l 1
 182 209 l 1
 182 0 l 1
 98 0 l 1
 98 392.004882812 l 1
EndSplineSet
Validated: 1
EndChar

StartChar: beta
Encoding: 946 946 627
Width: 488
VWidth: 0
Flags: W
HStem: -168 21G<84 168> 0 21G<197 259> 252 70<217 269.689> 504 70<192.135 285.041>
VStem: 84 84<-168 479.432> 308 86<358.811 479.973> 322 91<113.777 229.459>
LayerCount: 2
Fore
SplineSet
84 -168 m 1xfc
 84 434 l 2
 84 497 154 574 238 574 c 0
 315 574 394 515 394 431 c 0
 394 354 350 315 308 301 c 1xfc
 371 287 413 225 413 169 c 0
 413 41.8000030518 321 0 197 0 c 1
 197 74.5 l 1
 197 74.5 322 75.8000030518 322 168 c 0xfa
 322 231 287 252 217 252 c 1
 217 322 l 1
 259 329 308 357 308 420 c 0
 308 455 287 504 238 504 c 0
 188.999023438 504 168 448 168 434 c 2
 168 -168 l 1
 84 -168 l 1xfc
EndSplineSet
Validated: 1
EndChar

StartChar: afii10106
Encoding: 1113 1113 629
Width: 622
VWidth: 0
Flags: W
HStem: -14 21G<59 150.5> 0 77<367 457.404> 175 77<367 457.404> 315 77<216.222 283>
VStem: 283 84<77 175 252 315> 468 81<87.2884 164.712>
LayerCount: 2
Fore
SplineSet
367 77 m 1x7c
 419 77 l 2
 447 77 468 103 468 126 c 0
 468 149 447 175 419 175 c 2
 367 175 l 1
 367 77 l 1x7c
47 66 m 1
 70 70 101 87 118 119 c 0
 135 150 140 315 140 392 c 1
 367 392 l 1
 367 252 l 1
 412 252 l 2
 510 252 549 189 549 126 c 0
 549 63 510 0 412 0 c 2
 283 0 l 1x7c
 283 315 l 1
 217 315 l 1
 210 189 238 28 63 -14 c 1xbc
 47 66 l 1
EndSplineSet
Validated: 1
EndChar

StartChar: afii10058
Encoding: 1033 1033 630
Width: 789
VWidth: 0
Flags: W
HStem: -14 21G<66.5957 70> 0 84<478 608.336> 259 84<478 605.715> 476 84<266 380>
VStem: 161 98<137.999 475.848> 168 310<184.091 259 343 560> 380 98<84 259 343 476> 635 98<108.946 229.833>
LayerCount: 2
Fore
SplineSet
478 84 m 1x73
 537 84 l 2
 600 84 635 112 635 168 c 0
 635 224 600 259 537 259 c 2
 478 259 l 1x75
 478 84 l 1x73
54 80 m 1
 54 80 148 105 161 182 c 0xbb
 168 224 168 434 168 560 c 1
 478 560 l 1
 478 343 l 1xb5
 558 343 l 2
 698 343 733 252 733 182 c 0
 733 112 684 0 544 0 c 2
 380 0 l 1x73
 380 476 l 1
 266 476 l 1
 266 476 266 266 259 196 c 0
 239 0 70 -14 70 -14 c 1xbb
 54 80 l 1
EndSplineSet
Validated: 1
EndChar

StartChar: afii10059
Encoding: 1034 1034 631
Width: 779
VWidth: 0
Flags: W
HStem: 0 84<457 598.336> 252 84<189 359> 259 84<457 595.715> 540 20G<91 189 359 457>
VStem: 91 98<0 252 336 560> 359 98<84 252 343 560> 625 98<108.946 229.833>
LayerCount: 2
Fore
SplineSet
91 0 m 1xde
 91 560 l 1
 189 560 l 1
 189 336 l 1
 359 336 l 1xde
 359 560 l 1
 457 560 l 1
 457 343 l 1
 548 343 l 2xbe
 688 343 723 252 723 182 c 0
 723 112 674 0 534 0 c 2
 359 0 l 1
 359 252 l 1
 189 252 l 1
 189 0 l 1
 91 0 l 1xde
457 84 m 1
 527 84 l 2
 590 84 625 112 625 168 c 0
 625 224 590 259 527 259 c 2
 457 259 l 1xbe
 457 84 l 1
EndSplineSet
Validated: 1
EndChar

StartChar: afii10107
Encoding: 1114 1114 632
Width: 613
VWidth: 0
Flags: W
HStem: 0 77<366 465.404> 168 77<175 282> 175 77<366 465.404> 372 20G<91 175 282 366>
VStem: 91 84<0 168 245 392> 282 84<77 168 252 392> 476 81<87.2884 164.712>
LayerCount: 2
Fore
SplineSet
91 0 m 1xde
 91 392 l 1
 175 392 l 1
 175 245 l 1
 282 245 l 1xde
 282 392 l 1
 366 392 l 1
 366 252 l 1
 420 252 l 2xbe
 518 252 557 189 557 126 c 0
 557 63 518 0 420 0 c 2
 282 0 l 1
 282 168 l 1
 175 168 l 1
 175 0 l 1
 91 0 l 1xde
366 77 m 1
 427 77 l 2
 455 77 476 103 476 126 c 0
 476 149 455 175 427 175 c 2
 366 175 l 1xbe
 366 77 l 1
EndSplineSet
Validated: 1
EndChar

StartChar: ae
Encoding: 230 230 641
Width: 709
VWidth: 0
Flags: W
HStem: -14 77<402.795 531.216> -14 70<165.799 263.728> 168 63<170.385 296 380 546> 336 70<154.167 278.519 399.383 507.241>
VStem: 70 84<68.3124 151.874> 296 84<86.3157 168 231 316.097> 546 93<231 293.558>
LayerCount: 2
Fore
SplineSet
238 406 m 0x7e
 282.659179688 406 317.194335938 385.767578125 340.794921875 363.5078125 c 1
 373.810546875 389.88671875 416.322265625 406 457 406 c 0
 555 406 639 315 639 210 c 0
 639 189 629.666992188 168 618 168 c 2
 380 168 l 1
 380 112 l 1
 401.541992188 71.44140625 444.956054688 63 471 63 c 0
 506 63 535 81 563 116 c 1
 631 77 l 1
 582 14 520 -14 471 -14 c 0xbe
 415.384765625 -14 362.61328125 9.578125 325.548828125 50.470703125 c 1
 304.18359375 17.408203125 268.94140625 -14 196 -14 c 0
 140 -14 70 28 70 112 c 0
 70 245 226 224 296 231 c 1
 296 273 l 2
 296 301 273 336 224 336 c 0
 182 336 140 308 119 289 c 1
 77 357 l 1
 112 378 168 406 238 406 c 0x7e
546 231 m 1
 546 287.280461305 502.671187543 336.005373194 456.011799173 336.005373194 c 0
 425.385458185 336.005373194 397.036634035 320.499611339 380 289.931640625 c 1
 380 231 l 1
 546 231 l 1
296 168 m 1
 247 161 154 182 154 112 c 0
 154 70 189 56 210 56 c 0x7e
 252 56 296 105 296 112 c 2
 296 168 l 1
EndSplineSet
Validated: 1
EndChar

StartChar: uni030A
Encoding: 778 778 645
Width: 0
VWidth: 0
Flags: W
HStem: 440 40<-147.19 -76.8102> 562 40<-147.19 -76.8102>
VStem: -193 40<485.81 556.19> -71 40<485.81 556.19>
LayerCount: 2
Fore
SplineSet
-31 521 m 0
 -31 476 -67 440 -112 440 c 0
 -157 440 -193 476 -193 521 c 0
 -193 566 -157 602 -112 602 c 0
 -67 602 -31 566 -31 521 c 0
-71 521 m 0
 -71 544 -89 562 -112 562 c 0
 -135 562 -153 544 -153 521 c 0
 -153 498 -135 480 -112 480 c 0
 -89 480 -71 498 -71 521 c 0
EndSplineSet
Validated: 1
EndChar

StartChar: AE
Encoding: 198 198 647
Width: 868
VWidth: 0
Flags: W
HStem: 0 84<525 777> 112 84<278.123 427> 252 84<525 728> 476 84<525 777>
VStem: 427 98<196 252 336 469>
LayerCount: 2
Fore
SplineSet
371 560 m 1
 777 560 l 1
 777 476 l 1
 525 476 l 1
 525 336 l 1
 728 336 l 1
 728 252 l 1
 525 252 l 1
 525 84 l 1
 777 84 l 1
 777 0 l 1
 434 0 l 1
 434 112 l 1
 233 112 l 1
 175 0 l 1
 63 0 l 1
 371 560 l 1
427 469 m 1
 278.123046875 196 l 1
 427 196 l 1
 427 469 l 1
EndSplineSet
Validated: 1
EndChar

StartChar: uni018F
Encoding: 399 399 660
Width: 588
VWidth: 0
Flags: W
HStem: -14 91<231.617 356.383> 231 70<164.076 423.924> 399.887 21G<133.721 194.502> 483 91<229.294 356.327>
VStem: 423.924 98.0762<159.008 231 301 400.992>
LayerCount: 2
Fore
SplineSet
294 574 m 0
 448 574 522 442.372070312 522 280 c 0
 522 117.627929688 448 -14 294 -14 c 0
 140 -14 66 117.627929688 66 280 c 0
 66 287.0625 66.1494140625 294.0625 66.4296875 301 c 1
 426.453125 301 l 1
 420.5546875 414.497070312 366.622070312 483 294 483 c 0
 245.961914062 483 206.098632812 453.02734375 182.90625 399.88671875 c 1
 93.958984375 436.0546875 l 1
 128.25 518.907226562 194.379882812 574 294 574 c 0
164.076171875 231 m 1
 176.762695312 134.333007812 227.560546875 77 294 77 c 0
 360.439453125 77 411.237304688 134.333007812 423.923828125 231 c 1
 164.076171875 231 l 1
EndSplineSet
Validated: 1
EndChar

StartChar: afii10145
Encoding: 1039 1039 665
Width: 588
VWidth: 0
Flags: W
HStem: 0 84<189 245 343 399> 540 20G<91 189 399 497>
VStem: 91 98<84 560> 259 70<-112 -56> 399 98<84 560>
CounterMasks: 1 38
LayerCount: 2
Fore
SplineSet
91 0 m 1
 91 560 l 1
 189 560 l 1
 189 84 l 1
 399 84 l 1
 399 560 l 1
 497 560 l 1
 497 0 l 1
 343 0 l 1
 329 -112 l 1
 259 -112 l 1
 245 0 l 1
 91 0 l 1
EndSplineSet
Validated: 1
EndChar

StartChar: afii10193
Encoding: 1119 1119 666
Width: 497
VWidth: 0
Flags: W
HStem: -0 77<175 210 294 322> 372 20G<91 175 322 406>
VStem: 91 84<77 392> 217 70<-84 0> 322 84<77 392>
LayerCount: 2
Fore
SplineSet
91 -0 m 1
 91 392 l 1
 175 392 l 1
 175 77 l 1
 322 77 l 1
 322 392 l 1
 406 392 l 1
 406 -0 l 1
 294 -0 l 1
 287 -84 l 1
 217 -84 l 1
 210 -0 l 1
 91 -0 l 1
EndSplineSet
Validated: 1
EndChar

StartChar: oe
Encoding: 339 339 667
Width: 730
VWidth: 0
Flags: W
HStem: -14 77<425.829 546.926> -14 70<199.469 306.577> 168 70<404 568.999> 336 70<199.469 306.42 418.44 532.216>
VStem: 70 84<104.722 287.278> 320 84<84.6856 168 238 320.121> 569 91<199.5 298.783>
LayerCount: 2
Fore
SplineSet
252 406 m 0x7e
 295.505859375 406 334.193359375 391.563476562 364.59765625 365.70703125 c 1
 397.196289062 390.780273438 438.46484375 406 478 406 c 0
 576 406 660 315 660 210 c 0
 660 189 650.666992188 168 639 168 c 2
 404 168 l 1
 404 106.880859375 l 1
 426.97265625 73.0205078125 467.830078125 63 492 63 c 0
 527 63 548 81 576 116 c 1
 644 77 l 1
 595 14 541 -14 492 -14 c 0xbe
 446.610351562 -14 403.122070312 1.716796875 368.51171875 29.720703125 c 1
 337.547851562 1.708984375 297.395507812 -14 252 -14 c 0
 147 -14 70 70 70 196 c 0
 70 322 147 406 252 406 c 0x7e
480.169649314 336.041477534 m 0
 451.037037012 336.041477534 421.630370096 324.393999742 404 299.248046875 c 1
 404 238 l 1
 562 238 l 2
 567 238 569 245 569 252 c 0
 569 292.559444815 520.973825141 336.041477534 480.169649314 336.041477534 c 0
252 336 m 0
 196 336 154 280 154 196 c 0
 154 112 196 56 252 56 c 0x7e
 278.950195312 56 302.655273438 68.9755859375 320 91.794921875 c 1
 320 300.205078125 l 1
 302.655273438 323.024414062 278.950195312 336 252 336 c 0
EndSplineSet
Validated: 1
EndChar

StartChar: OE
Encoding: 338 338 671
Width: 825
VWidth: 0
Flags: W
HStem: -14 91<231.397 358.996> 0 84<482 734> 252 84<482 678> 476 84<482 727> 483 91<231.397 358.996>
VStem: 66 95<163.059 396.941> 384 98<101.426 252 336 458.574>
LayerCount: 2
Fore
SplineSet
294 574 m 0xae
 324 574 350 569 374 560 c 1
 727 560 l 1
 727 476 l 1
 482 476 l 1
 482 336 l 1
 678 336 l 1
 678 252 l 1
 482 252 l 1
 482 84 l 1
 734 84 l 1
 734 0 l 1
 614 0 494 0 374 0 c 1x76
 350 -9 324 -14 294 -14 c 0
 140 -14 66 118 66 280 c 0
 66 442 140 574 294 574 c 0xae
294 483 m 0xae
 217 483 161 406 161 280 c 0
 161 154 217 77 294 77 c 0
 330 77 361 93 384 124 c 1
 384 436 l 1
 361 467 330 483 294 483 c 0xae
EndSplineSet
Validated: 1
EndChar

StartChar: eta
Encoding: 951 951 673
Width: 504
VWidth: 0
Flags: W
HStem: -168 21G<329 413> 0 21G<91 175> 329 70<218.948 317.778> 372 20G<91 164.531>
VStem: 91 84<0 285.153> 91 72<346.5 392> 329 84<-168 316.976>
LayerCount: 2
Fore
SplineSet
294 399 m 4xe6
 371 399 413 350 413 280 c 6
 413 -168 l 5
 329 -168 l 5
 329 273 l 6
 329 294 315 329 273 329 c 4
 232.85546875 329 196 294 175 252 c 5
 175 0 l 5
 91 0 l 5xea
 91 392 l 5
 163 392 l 5xd6
 166.061523438 374.790039062 170.60546875 356.544921875 177 346 c 5
 177 346 224 399 294 399 c 4xe6
EndSplineSet
Validated: 1
EndChar

StartChar: eng
Encoding: 331 331 677
Width: 504
VWidth: 0
Flags: W
HStem: -167.852 80.7067<252.021 327.378> 0 21G<91 175> 329 70<218.948 317.778> 372 20G<91 164.531>
VStem: 91 84<0 285.153> 91 72<346.5 392> 328.5 84<-84.2205 316.976>
LayerCount: 2
Fore
SplineSet
294 399 m 0xe6
 371 399 413 350 413 280 c 2
 412.5 -70 l 2
 412.5 -132.866941861 356.735325563 -167.852032724 328.65254851 -167.852032724 c 2
 326.544377469 -167.852066912 l 2
 285.958191626 -167.852066912 264.840306364 -167.736122546 230.5 -154 c 1
 251.5 -84 l 1
 262.597990752 -85.7933542419 274.138655881 -87.1453225565 284.804320799 -87.1453225565 c 0
 308.881734818 -87.1453225565 328.5 -80.2554637196 328.5 -56 c 2
 329 273 l 2
 329 294 315 329 273 329 c 0
 232.85546875 329 196 294 175 252 c 1
 175 0 l 1
 91 0 l 1xea
 91 392 l 1
 163 392 l 1xd6
 166.061523438 374.790039062 170.60546875 356.544921875 177 346 c 1
 177 346 224 399 294 399 c 0xe6
EndSplineSet
Validated: 1
EndChar

StartChar: tau
Encoding: 964 964 679
Width: 419
VWidth: 0
Flags: W
HStem: -7 77<253.43 328.985> 315 77<50 168 252 369>
VStem: 168 84<71.3338 315>
LayerCount: 2
Fore
SplineSet
50 392 m 1
 369 392 l 1
 369 315 l 1
 252 315 l 1
 252 105 l 2
 252 77 266 70 287 70 c 0
 308 70 329 77 329 77 c 1
 343 0 l 1
 322 -7 301 -7 287 -7 c 2
 245 -7 l 2
 193 -7 168 19 168 63 c 2
 168 315 l 1
 50 315 l 1
 50 392 l 1
EndSplineSet
Validated: 1
EndChar

StartChar: afii57673
Encoding: 1497 1497 683
Width: 252
VWidth: 0
Flags: W
HStem: 258 134<84 168>
VStem: 84 84<258 392>
LayerCount: 2
Fore
SplineSet
84 258 m 5
 84 392 l 1
 168 392 l 1
 168 258 l 5
 84 258 l 5
EndSplineSet
Validated: 1
EndChar

StartChar: thorn
Encoding: 254 254 687
Width: 497
VWidth: 0
Flags: W
HStem: -168 21G<84 168> -14 70<200.689 314.512> 329 77<207.436 316.814>
VStem: 84 84<-168 35 85.9467 290.804 350 546> 357 84<104.991 284.231>
LayerCount: 2
Fore
SplineSet
84 546 m 1
 168 546 l 1
 168 350 l 1
 168 350 196 406 266 406 c 0
 336 406 441 364 441 196 c 0
 441 21 308 -14 266 -14 c 0
 210 -14 168 28 168 35 c 2
 168 -168 l 1
 84 -168 l 1
 84 322 l 1
 84 392 l 1
 84 546 l 1
266 329 m 0
 226 329 189 301 168 259 c 1
 168 112 l 1
 189 77 230 56 266 56 c 0
 315 56 357 112 357 196 c 0
 357 280 315 329 266 329 c 0
EndSplineSet
Validated: 1
EndChar

StartChar: Thorn
Encoding: 222 222 688
Width: 560
VWidth: 0
Flags: W
HStem: 0 21G<91 189> 116 84<189 326.006> 396 84<189 326.006> 540 20G<91 189>
VStem: 91 98<0 116 200 396 480 560> 364 98<236.654 359.346>
LayerCount: 2
Fore
SplineSet
91 560 m 1
 189 560 l 1
 189 480 l 1
 280 480 l 2
 413 480 462 375 462 298 c 0
 462 221 413 116 280 116 c 2
 189 116 l 1
 189 0 l 1
 91 0 l 1
 91 560 l 1
189 396 m 1
 189 200 l 1
 252 200 l 2
 308 200 364 228 364 298 c 0
 364 368 308 396 252 396 c 2
 189 396 l 1
EndSplineSet
Validated: 1
EndChar

StartChar: afii10060
Encoding: 1035 1035 689
Width: 640
VWidth: 0
Flags: W
HStem: 0 21G<197 295 451 549> 266 91<296.552 442.018> 476 84<63 197 295 429>
VStem: 197 98<0 255.491 342 476> 451 98<0 257.793>
LayerCount: 2
Fore
SplineSet
63 476 m 1
 63 560 l 1
 429 560 l 1
 429 476 l 1
 295 476 l 1
 295 342 l 1
 330 353 373 357 402 357 c 0
 500 357 549 315 549 245 c 2
 549 0 l 1
 451 0 l 1
 451 209 l 2
 451 245 437 266 402 266 c 0
 364 266 326 260 295 249 c 1
 295 0 l 1
 197 0 l 1
 197 476 l 1
 63 476 l 1
EndSplineSet
Validated: 1
EndChar

StartChar: uni04B4
Encoding: 1204 1204 690
Width: 700
VWidth: 0
Flags: W
HStem: 0 84<287 483> 476 84<63 189 287 413>
VStem: 189 98<84 476> 483 98<84 560> 560 84<-112 0>
LayerCount: 2
Fore
SplineSet
63 476 m 5xe8
 63 560 l 5
 413 560 l 5
 413 476 l 5
 287 476 l 5
 287 84 l 5
 483 84 l 5
 483 560 l 5
 581 560 l 5
 581 84 l 5xf0
 644 84 l 5
 644 -112 l 5
 560 -112 l 5
 560 0 l 5
 189 0 l 5
 189 476 l 5
 63 476 l 5xe8
EndSplineSet
Validated: 1
EndChar

StartChar: uni04B5
Encoding: 1205 1205 691
Width: 588
VWidth: 0
Flags: W
HStem: 0 77<252 399> 315 77<70 168 252 350>
VStem: 168 84<77 315> 399 84<77 392> 476 84<-84 0>
LayerCount: 2
Fore
SplineSet
70 315 m 1xe8
 70 392 l 1
 350 392 l 1
 350 315 l 1
 252 315 l 1
 252 77 l 1
 399 77 l 1
 399 392 l 1
 483 392 l 1
 483 77 l 1xf0
 560 77 l 1
 560 -84 l 1
 476 -84 l 1
 476 0 l 1
 168 0 l 1
 168 315 l 1
 70 315 l 1xe8
EndSplineSet
Validated: 1
EndChar

StartChar: nu
Encoding: 957 957 692
Width: 458
VWidth: 0
Flags: W
HStem: 0 21G<168.571 308> 372 20G<49 149.122 280 378.5>
VStem: 303 85<186.681 388.036>
LayerCount: 2
Fore
SplineSet
175 0 m 1
 49 392 l 1
 143 392 l 1
 233 98 l 1
 272 168 303 211 303 277 c 0
 303 308 296 345 280 392 c 1
 374 392 l 1
 383 354 388 320 388 289 c 0
 388 188 343 112 273 0 c 1
 175 0 l 1
EndSplineSet
Validated: 1
EndChar

StartChar: Xi
Encoding: 926 926 697
Width: 588
VWidth: 0
Flags: W
HStem: 0 84<91 497> 259 84<119 469> 476 84<91 497>
LayerCount: 2
Fore
SplineSet
91 0 m 1
 91 84 l 1
 497 84 l 1
 497 0 l 1
 91 0 l 1
91 476 m 1
 91 560 l 1
 497 560 l 1
 497 476 l 1
 91 476 l 1
119 259 m 1
 119 343 l 1
 469 343 l 1
 469 259 l 1
 119 259 l 1
EndSplineSet
Validated: 1
EndChar

StartChar: asterisk
Encoding: 42 42 698
Width: 466
VWidth: 0
Flags: W
VStem: 70 326
LayerCount: 2
Fore
SplineSet
233 504 m 0
 245 504 265 501 277 498 c 1
 261 384 l 1
 352 456 l 1
 370 438 390 403 396 379 c 1
 289 336 l 1
 396 293 l 1
 390 269 370 234 352 216 c 1
 261 288 l 1
 277 173 l 1
 265 170 245 168 233 168 c 0
 221 168 201 171 189 174 c 1
 205 288 l 1
 114 216 l 1
 96 234 76 269 70 293 c 1
 177 336 l 1
 70 379 l 1
 76 403 96 438 114 456 c 1
 205 384 l 1
 189 499 l 1
 201 502 221 504 233 504 c 0
EndSplineSet
Validated: 1
EndChar

StartChar: uni0496
Encoding: 1174 1174 699
Width: 910
VWidth: 0
Flags: W
HStem: 0 21G<49 185.5 399 497> 259 87<340.75 398.906 497.094 555.25> 473 94<123.915 160.677 735.323 772.085> 540 20G<399 497>
VStem: 399 98<0 256 346.001 560> 770 70<-112 -14>
LayerCount: 2
Fore
SplineSet
497 348 m 1xdc
 499 347 502 346 507 346 c 0
 582 346 606 469 679 532 c 0
 703 553 735 565 770 567 c 1
 798 473 l 1
 744 473 728 448 700 406 c 0
 676 369 630 308 605 305 c 1
 672 301 693 249 728 189 c 0
 748 154 765 117 783 84 c 1
 854 84 l 1
 840 -112 l 1
 770 -112 l 1
 762 0 l 1
 721 0 l 1
 700 35 651 126 616 189 c 0
 591 233 567 259 539 259 c 0
 525 259 497 256 497 256 c 1
 497 0 l 1
 399 0 l 1
 399 256 l 1
 399 256 371 259 357 259 c 0
 329 259 305 233 280 189 c 0
 245 126 196 35 175 0 c 1
 49 0 l 1
 98 38 127 118 168 189 c 0
 203 249 224 301 291 305 c 1
 266 308 220 369 196 406 c 0
 168 448 152 473 98 473 c 1
 126 567 l 1xec
 161 565 193 553 217 532 c 0
 290 469 314 346 389 346 c 0
 394 346 397 347 399 348 c 1
 399 560 l 1
 497 560 l 1
 497 348 l 1xdc
EndSplineSet
Validated: 1
EndChar

StartChar: uni0497
Encoding: 1175 1175 700
Width: 714
VWidth: 0
Flags: W
HStem: 0 21G<49 173 308 392> 176 68<262.607 307.766 392.234 437.393> 315 84<96.25 134.74 565.26 603.75> 372 20G<308 392>
VStem: 308 84<0 176 244 392> 593 65<-84 0>
LayerCount: 2
Fore
SplineSet
98 399 m 1xec
 205 392 242 244 300 244 c 0
 303 244 305 244 308 245 c 1
 308 392 l 1
 392 392 l 1xdc
 392 245 l 1
 395 244 397 244 400 244 c 0
 458 244 495 392 602 399 c 1
 623 315 l 1
 546 315 528 229 476 217 c 1
 531 213 566 168 588 112 c 0
 592 102 598 90 605 77 c 1
 665 77 l 1
 658 -84 l 1
 593 -84 l 1
 587 0 l 1
 553 0 l 1
 501 81 479 176 407 176 c 0
 402 176 397 176 392 175 c 1
 392 0 l 1
 308 0 l 1
 308 175 l 1
 303 176 298 176 293 176 c 0
 221 176 199 81 147 0 c 1
 49 0 l 1
 63 21 98 77 112 112 c 0
 134 168 169 213 224 217 c 1
 172 229 154 315 77 315 c 1
 98 399 l 1xec
EndSplineSet
Validated: 1
EndChar

StartChar: uni049B
Encoding: 1179 1179 701
Width: 508
VWidth: 0
Flags: W
HStem: 0 21G<98 182> 184 67<182 235.101> 329 70<366.108 392> 372 20G<98 182>
VStem: 98 84<0 184 251 392> 383 69<-84 0>
LayerCount: 2
Fore
SplineSet
392 399 m 1xec
 413 329 l 1xec
 347 324 325 236 273 224 c 1
 339 210 366 141 400 77 c 1
 459 77 l 1
 452 -84 l 1
 383 -84 l 1
 377 0 l 1
 350 0 l 1
 299 80 276 184 196 184 c 0
 191 184 187 184 182 183 c 1
 182 0 l 1
 98 0 l 1
 98 392 l 1
 182 392 l 1xdc
 182 251 l 1
 184 251 187 251 189 251 c 0
 259 251 305 397 392 399 c 1xec
EndSplineSet
Validated: 1
EndChar

StartChar: uni04A3
Encoding: 1187 1187 702
Width: 504
VWidth: 0
Flags: W
HStem: 0 21G<91 175> 168 77<175 322> 372 20G<91 175 322 406>
VStem: 91 84<0 168 245 392> 322 84<84 168 245 392> 379 65<-84 -10.5>
LayerCount: 2
Fore
SplineSet
91 392 m 1xf8
 175 392 l 1
 175 245 l 1
 322 245 l 1
 322 392 l 1
 406 392 l 1
 406 84 l 1xf8
 455 84 l 1
 444 -84 l 1
 379 -84 l 1xf4
 371 0 l 1
 322 0 l 1
 322 168 l 1
 175 168 l 1
 175 0 l 1
 91 0 l 1
 91 392 l 1xf8
EndSplineSet
Validated: 1
EndChar

StartChar: uni04CC
Encoding: 1228 1228 703
Width: 476
VWidth: 0
Flags: W
HStem: 119 70<164.477 287.981> 372 20G<77 161 301 385>
VStem: 77 84<194.364 392> 281 65<-84 0> 301 84<77 147 206.824 392>
LayerCount: 2
Fore
SplineSet
77 392 m 1xe8
 161 392 l 1
 161 224 l 2
 161 203 185 189 203 189 c 0
 245 189 287 210 301 217 c 1
 301 392 l 1
 385 392 l 1
 385 0 l 1xe8
 350 0 l 1
 346 -84 l 1
 281 -84 l 1xf0
 269 77 l 1
 301 77 l 1
 301 147 l 1
 266 126 231 119 196 119 c 0
 133 119 77 147 77 224 c 2
 77 392 l 1xe8
EndSplineSet
Validated: 1
EndChar

StartChar: uni04B7
Encoding: 1207 1207 704
Width: 476
VWidth: 0
Flags: W
HStem: 119 70<164.477 287.981> 372 20G<77 161 301 385>
VStem: 77 84<194.364 392> 301 126<0 77> 301 84<77 147 206.824 392> 355 65<-84 0>
LayerCount: 2
Fore
SplineSet
77 392 m 1xe8
 161 392 l 1
 161 224 l 2
 161 203 185 189 203 189 c 0
 245 189 287 210 301 217 c 1
 301 392 l 1
 385 392 l 1
 385 77 l 1xe8
 427 77 l 1xf0
 420 -84 l 1
 355 -84 l 1xe4
 349 0 l 1
 301 0 l 1xf0
 301 147 l 1
 266 126 231 119 196 119 c 0
 133 119 77 147 77 224 c 2
 77 392 l 1xe8
EndSplineSet
Validated: 1
EndChar

StartChar: uni04AD
Encoding: 1197 1197 705
Width: 419
VWidth: 0
Flags: W
HStem: 315 77<50 168 252 369>
VStem: 168 84<77 315> 225 57<-84 -17.7059>
LayerCount: 2
Fore
SplineSet
50 392 m 1xc0
 369 392 l 1
 369 315 l 1
 252 315 l 1
 252 77 l 1xc0
 299 77 l 1
 282 -84 l 1
 225 -84 l 1xa0
 218 0 l 1
 168 0 l 1
 168 315 l 1
 50 315 l 1
 50 392 l 1xc0
EndSplineSet
Validated: 1
EndChar

StartChar: uni04B3
Encoding: 1203 1203 706
Width: 472
VWidth: 0
Flags: W
HStem: 0 21G<42 155.429> 372 20G<56 172.25 275.75 392>
VStem: 347 63<-84 0>
LayerCount: 2
Fore
SplineSet
56 392 m 1
 161 392 l 1
 224 280 l 1
 287 392 l 1
 392 392 l 1
 273 208 l 1
 357 77 l 1
 423 77 l 1
 410 -84 l 1
 347 -84 l 1
 340 0 l 1
 304 0 l 1
 224 140 l 1
 144 0 l 1
 42 0 l 1
 175 208 l 1
 56 392 l 1
EndSplineSet
Validated: 1
EndChar

StartChar: uni04F7
Encoding: 1271 1271 707
Width: 420
VWidth: 0
Flags: W
HStem: 315 77<175 364>
VStem: 91 126<0 77> 91 84<77 315> 145 65<-84 0>
LayerCount: 2
Fore
SplineSet
91 392 m 1xa0
 364 392 l 1
 364 315 l 1
 175 315 l 1
 175 77 l 1xa0
 217 77 l 1xc0
 210 -84 l 1
 145 -84 l 1x90
 139 0 l 1
 91 0 l 1xc0
 91 392 l 1xa0
EndSplineSet
Validated: 1
EndChar

StartChar: uni0525
Encoding: 1317 1317 708
Width: 504
VWidth: 0
Flags: W
HStem: -0 21G<91 175> 315 77<175 322>
VStem: 91 84<0 315> 322 127<0 77> 322 84<77 315> 377 65<-84 0>
LayerCount: 2
Fore
SplineSet
91 392 m 1xe8
 406 392 l 1
 406 77 l 1xe8
 449 77 l 1xf0
 442 -84 l 1
 377 -84 l 1xe4
 371 0 l 1
 322 0 l 1xf0
 322 315 l 1
 175 315 l 1
 175 -0 l 1
 91 -0 l 1
 91 392 l 1xe8
EndSplineSet
Validated: 1
EndChar

StartChar: uni0527
Encoding: 1319 1319 709
Width: 512
VWidth: 0
Flags: W
HStem: 0 21G<91 175> 329 70<223.281 317.778> 540 20G<91 175>
VStem: 91 84<0 285.153 336 560> 329 128<0 77> 329 84<77 316.976> 385 65<-84 0>
LayerCount: 2
Fore
SplineSet
91 560 m 1xf4
 175 560 l 1
 175 336 l 1
 175 336 224 399 294 399 c 0
 371 399 413 350 413 280 c 2
 413 77 l 1xf4
 457 77 l 1xf8
 450 -84 l 1
 385 -84 l 1xf2
 379 0 l 1
 329 0 l 1xf8
 329 273 l 2
 329 294 315 329 273 329 c 0
 233 329 196 294 175 252 c 1
 175 0 l 1
 91 0 l 1
 91 560 l 1xf4
EndSplineSet
Validated: 1
EndChar

StartChar: uni0524
Encoding: 1316 1316 710
Width: 588
VWidth: 0
Flags: W
HStem: 0 21G<91 189> 476 84<189 399>
VStem: 91 98<0 476> 399 98<84 476> 454 72<-112 -14>
LayerCount: 2
Fore
SplineSet
91 560 m 1xf0
 497 560 l 1
 497 84 l 1xf0
 540 84 l 1
 526 -112 l 1
 454 -112 l 1xe8
 449 0 l 1
 399 0 l 1
 399 476 l 1
 189 476 l 1
 189 0 l 1
 91 0 l 1
 91 560 l 1xf0
EndSplineSet
Validated: 1
EndChar

StartChar: uni04A2
Encoding: 1186 1186 711
Width: 588
VWidth: 0
Flags: W
HStem: 0 21G<91 189> 256 80<189 399> 540 20G<91 189 399 497>
VStem: 91 98<0 256 336 560> 399 98<84 256 336 560> 454 72<-112 -14>
LayerCount: 2
Fore
SplineSet
91 560 m 1xf8
 189 560 l 1
 189 336 l 1
 399 336 l 1
 399 560 l 1
 497 560 l 1
 497 84 l 1xf8
 540 84 l 1
 526 -112 l 1
 454 -112 l 1xf4
 449 0 l 1
 399 0 l 1
 399 256 l 1
 189 256 l 1
 189 0 l 1
 91 0 l 1
 91 560 l 1xf8
EndSplineSet
Validated: 1
EndChar

StartChar: uni04AF
Encoding: 1199 1199 712
Width: 448
VWidth: 0
Flags: W
HStem: 0 21G<182 266> 372 20G<49 162.93 285.07 399>
VStem: 182 84<0 168>
LayerCount: 2
Fore
SplineSet
182 0 m 1
 182 168 l 1
 49 392 l 1
 153 392 l 1
 224 249 l 1
 295 392 l 1
 399 392 l 1
 266 168 l 1
 266 0 l 1
 182 0 l 1
EndSplineSet
Validated: 1
EndChar

StartChar: uni04A0
Encoding: 1184 1184 713
Width: 638
VWidth: 0
Flags: W
HStem: 0 21G<140 238 465 596> 256 93<238.095 299.368> 476 98<481.27 520.5> 476 84<28 140>
VStem: 140 98<0 256 349 476>
LayerCount: 2
Fore
SplineSet
238 351 m 1xd8
 240 349 244 349 249 349 c 0
 351 349 374 560 519 574 c 1xe8
 540 476 l 1
 486 476 472 446 442 406 c 0
 415 371 371 308 344 308 c 1
 414 301 435 249 470 189 c 0
 511 118 547 38 596 0 c 1
 474 0 l 1
 456 35 400 126 365 189 c 0
 340 233 322 259 280 259 c 0
 266 259 238 256 238 256 c 1
 238 0 l 1
 140 0 l 1
 140 476 l 1
 28 476 l 1
 28 560 l 1
 238 560 l 1
 238 351 l 1xd8
EndSplineSet
Validated: 1
EndChar

StartChar: uni049A
Encoding: 1178 1178 714
Width: 607
VWidth: 0
Flags: W
HStem: 0 21G<84 182> 256 93<182.095 243.922> 476 98<431.122 470.5> 540 20G<84 182>
VStem: 84 98<0 256 349 560> 462 75<-112 -14>
LayerCount: 2
Fore
SplineSet
182 351 m 1xdc
 184 349 188 349 193 349 c 0
 295 349 324 560 469 574 c 1
 490 476 l 1xec
 436 476 422 446 392 406 c 0
 365 371 321 308 294 308 c 1
 364 301 383 249 418 189 c 0
 438 154 457 117 477 84 c 1
 551 84 l 1
 537 -112 l 1
 462 -112 l 1
 454 0 l 1
 422 0 l 1
 404 35 348 126 313 189 c 0
 288 233 266 259 224 259 c 0
 210 259 182 256 182 256 c 1
 182 0 l 1
 84 0 l 1
 84 560 l 1
 182 560 l 1
 182 351 l 1xdc
EndSplineSet
Validated: 1
EndChar

StartChar: afii10050
Encoding: 1168 1168 715
Width: 497
VWidth: 0
Flags: W
HStem: 0 21G<91 189> 476 84<189 357>
VStem: 91 98<0 476> 357 84<560 672>
LayerCount: 2
Fore
SplineSet
91 0 m 1
 91 560 l 1
 357 560 l 1
 357 672 l 1
 441 672 l 1
 441 476 l 1
 189 476 l 1
 189 0 l 1
 91 0 l 1
EndSplineSet
Validated: 1
EndChar

StartChar: afii10098
Encoding: 1169 1169 716
Width: 420
VWidth: 0
Flags: W
HStem: 0 21G<91 175> 315 161<280 364> 315 77<175 280>
VStem: 91 84<0 315> 280 84<392 476>
LayerCount: 2
Fore
SplineSet
91 0 m 1xb8
 91 392 l 1
 280 392 l 1xb8
 280 476 l 1
 364 476 l 1
 364 315 l 1xd8
 175 315 l 1
 175 0 l 1
 91 0 l 1xb8
EndSplineSet
Validated: 1
EndChar

StartChar: uni049E
Encoding: 1182 1182 717
Width: 587
VWidth: 0
Flags: W
HStem: 0 21G<91 189 414 545> 259 90<189.093 250.922> 457 59<14 91 189 270> 476 98<438.122 477.5> 540 20G<91 189>
VStem: 91 98<0 256 349.606 457 516 560>
LayerCount: 2
Fore
SplineSet
476 574 m 1xd4
 497 476 l 1xd4
 443 476 429 446 399 406 c 0
 372 371 328 308 301 308 c 1
 371 301 384 249 419 189 c 0
 460 118 496 38 545 0 c 1
 423 0 l 1
 405 35 349 126 314 189 c 0
 289 233 273 259 231 259 c 0
 217 259 189 256 189 256 c 1
 189 0 l 1
 91 0 l 1
 91 457 l 1
 14 457 l 1
 14 516 l 1
 91 516 l 1
 91 560 l 1
 189 560 l 1
 189 516 l 1
 270 516 l 1
 270 457 l 1
 189 457 l 1xec
 189 351 l 1
 191 350 192 349 196 349 c 0
 197 349 199 349 200 349 c 0
 302 349 331 560 476 574 c 1xd4
EndSplineSet
Validated: 1
EndChar

StartChar: uni049C
Encoding: 1180 1180 718
Width: 645
VWidth: 0
Flags: W
HStem: 0 21G<63 161 472 603> 259 84<161 210> 476 96<484.837 521.531> 540 20G<63 161>
VStem: 63 98<0 259 343 560> 210 56<161 259 344 441>
LayerCount: 2
Fore
SplineSet
520 572 m 1xec
 541 476 l 1xec
 487 476 479 446 449 406 c 0
 422 371 378 308 351 308 c 1
 421 301 442 249 477 189 c 0
 518 118 554 38 603 0 c 1
 481 0 l 1
 463 35 407 126 372 189 c 0
 348 231 302 263 268 263 c 0
 267 263 267 263 266 263 c 2
 266 161 l 1
 210 161 l 1
 210 259 l 1
 161 259 l 1
 161 0 l 1
 63 0 l 1
 63 560 l 1
 161 560 l 1xdc
 161 343 l 1
 210 343 l 1
 210 441 l 1
 266 441 l 1
 266 344 l 1
 355 366 383 559 520 572 c 1xec
EndSplineSet
Validated: 1
EndChar

StartChar: uni04A1
Encoding: 1185 1185 719
Width: 518
VWidth: 0
Flags: W
HStem: 0 21G<105 189 338.5 469> 184 67<189.187 245.626> 315 77<21 105> 329 74<382.23 416>
VStem: 105 84<0 183.999 251 315>
LayerCount: 2
Fore
SplineSet
21 392 m 1xe8
 189 392 l 1xe8
 189 252 l 1
 193 251 196 251 199 251 c 0
 268 251 321 402 416 403 c 1
 429 329 l 1xd8
 363 324 339 236 287 224 c 1
 382 204 395 69 469 0 c 1
 364 0 l 1
 313 80 290 184 210 184 c 0
 203 184 196 183 189 182 c 1
 189 0 l 1
 105 0 l 1
 105 315 l 1
 21 315 l 1
 21 392 l 1xe8
EndSplineSet
Validated: 1
EndChar

StartChar: uni049F
Encoding: 1183 1183 720
Width: 508
VWidth: 0
Flags: W
HStem: 0 21G<95 179 325 459> 184 67<179.141 230.797> 325 78<365.995 394> 448 56<25 95 179 294> 540 20G<95 179>
VStem: 95 84<0 183.999 251 448 504 560>
LayerCount: 2
Fore
SplineSet
95 560 m 1
 179 560 l 1
 179 504 l 1
 294 504 l 1
 294 448 l 1
 179 448 l 1
 179 252 l 1
 182 251 185 251 188 251 c 0
 251 251 305 399 394 403 c 1
 413 325 l 1
 412 325 411 325 410 325 c 0
 352 325 328 236 277 224 c 1
 368 209 377 76 459 0 c 1
 352 0 l 1
 298 79 276 184 198 184 c 0
 192 184 186 183 179 182 c 1
 179 0 l 1
 95 0 l 1
 95 448 l 1
 25 448 l 1
 25 504 l 1
 95 504 l 1
 95 560 l 1
EndSplineSet
Validated: 1
EndChar

StartChar: uni049D
Encoding: 1181 1181 721
Width: 556
VWidth: 0
Flags: W
HStem: 0 21G<91 175 381.5 507> 182 70<175 210 252 290.009> 372 20G<91 175 420.5 440.5>
VStem: 91 84<0 182 252 392> 210 42<112 182 252 322>
LayerCount: 2
Fore
SplineSet
448 399 m 1
 462 322 l 1
 396 317 385 231 321 220 c 1
 420 203 433 69 507 0 c 1
 402 0 l 1
 361 63 326 183 262 183 c 0
 259 183 256 183 252 182 c 1
 252 112 l 1
 210 112 l 1
 210 182 l 1
 175 182 l 1
 175 0 l 1
 91 0 l 1
 91 392 l 1
 175 392 l 1
 175 252 l 1
 210 252 l 1
 210 322 l 1
 252 322 l 1
 252 252 l 1
 276 252 301 285 329 318 c 0
 364 358 402 400 439 400 c 0
 442 400 445 400 448 399 c 1
EndSplineSet
Validated: 1
EndChar

StartChar: uni0493
Encoding: 1171 1171 722
Width: 428
VWidth: 0
Flags: W
HStem: 0 21G<99 183> 168 56<35 99 183 284> 315 77<183 372>
VStem: 99 84<0 168 224 315>
LayerCount: 2
Fore
SplineSet
99 392 m 1
 372 392 l 1
 372 315 l 1
 183 315 l 1
 183 224 l 1
 284 224 l 1
 284 168 l 1
 183 168 l 1
 183 0 l 1
 99 0 l 1
 99 168 l 1
 35 168 l 1
 35 224 l 1
 99 224 l 1
 99 392 l 1
EndSplineSet
Validated: 1
EndChar

StartChar: uni0492
Encoding: 1170 1170 723
Width: 526
VWidth: 0
Flags: W
HStem: 0 21G<120 218> 252 56<65 120 218 352> 476 84<218 470>
VStem: 120 98<0 252 308 476>
LayerCount: 2
Fore
SplineSet
65 252 m 5
 65 308 l 5
 120 308 l 5
 120 560 l 5
 470 560 l 5
 470 476 l 5
 218 476 l 5
 218 308 l 5
 352 308 l 5
 352 252 l 5
 218 252 l 5
 218 0 l 5
 120 0 l 5
 120 252 l 5
 65 252 l 5
EndSplineSet
Validated: 1
EndChar

StartChar: uni0498
Encoding: 1176 1176 724
Width: 524
VWidth: 0
Flags: W
HStem: -189 119<235.578 305.255> 252 84<213 329.348> 483 91<165.983 326.102>
VStem: 192 42<-75 -38.6258> 351 91<358.446 458.3> 361 100<108.411 224.314>
LayerCount: 2
Fore
SplineSet
259 -189 m 0xf4
 217 -189 192 -147 192 -105 c 0
 192 -67 210 -34 236 -13 c 1
 127 -6 49 61 49 61 c 1
 108 140 l 1
 108 140 157 77 262 77 c 0
 318 77 361 112 361 161 c 0xf4
 361 217 325 252 276 252 c 2
 213 252 l 1
 213 336 l 1
 276 336 l 2
 332 336 351 385 351 406 c 0
 351 427 339 483 262 483 c 0
 164 483 122 429 122 429 c 1
 69 511 l 1
 69 511 150 574 262 574 c 0
 375 574 442 504 442 420 c 0xf8
 442 315 346 294 346 294 c 1
 346 294 461 277 461 154 c 0
 461 90 401 -5 273 -13 c 1
 250 -26 235 -49 234 -75 c 1
 242 -71 250 -70 259 -70 c 0
 292 -70 319 -97 319 -130 c 0
 319 -163 292 -189 259 -189 c 0xf4
EndSplineSet
Validated: 1
EndChar

StartChar: uni04AA
Encoding: 1194 1194 725
Width: 560
VWidth: 0
Flags: W
HStem: -188 119<265.578 335.255> -14 91<276.959 355.136> 483 91<231.397 364.023>
VStem: 66 95<160.201 396.941> 222 42<-74 -37.8585> 406 90<128.768 162 396.933 438.676>
LayerCount: 2
Fore
SplineSet
289 -188 m 0
 247 -188 222 -146 222 -104 c 0
 222 -67 240 -33 266 -12 c 1
 131 3 66 128 66 280 c 0
 66 442 140 574 294 574 c 0
 371 574 476 511 497 399 c 1
 406 368 l 1
 399 462 346 483 294 483 c 0
 217 483 161 406 161 280 c 0
 161 154 217 77 294 77 c 0
 346 77 399 119 406 190 c 1
 496 160 l 1
 482 62 403 -12 300 -14 c 1
 279 -27 265 -49 264 -74 c 1
 272 -70 280 -69 289 -69 c 0
 322 -69 349 -95 349 -128 c 0
 349 -161 322 -188 289 -188 c 0
EndSplineSet
Validated: 1
EndChar

StartChar: uni0499
Encoding: 1177 1177 726
Width: 465
VWidth: 0
Flags: W
HStem: -175 109<225.283 292.078> -14 70<152.422 232> 168 63<203 295.753> 329 70<151.094 284.129>
VStem: 186 39<-75 -41.9365> 301 84<236.901 312.164> 314 89<74.6835 156.431>
LayerCount: 2
Fore
SplineSet
248 -175 m 0xfa
 210 -175 186 -136 186 -98 c 0
 186 -65 205 -34 232 -14 c 1
 170 -13 101 10 60 51 c 1
 112 108 l 1
 147 70 204 56 238 56 c 0
 273 56 314 77 314 112 c 0xfa
 314 140 294 168 259 168 c 2
 203 168 l 1
 203 231 l 1
 252 231 l 2
 287 231 301 252 301 273 c 0
 301 315 252 329 224 329 c 0
 175 329 151 308 126 290 c 1
 78 360 l 1
 113 381 167 399 224 399 c 0
 322 399 385 361 385 294 c 0xfc
 385 245 350 216 317 206 c 1
 352 199 403 172 403 109 c 0
 403 32 338 -7 260 -13 c 1
 241 -28 226 -50 225 -75 c 1
 231 -69 240 -66 248 -66 c 0
 279 -66 304 -91 304 -121 c 0
 304 -151 279 -175 248 -175 c 0xfa
EndSplineSet
Validated: 1
EndChar

StartChar: uni04AB
Encoding: 1195 1195 727
Width: 476
VWidth: 0
Flags: W
HStem: -175 109<226.274 292.078> -14 70<235.463 307.359> 336 70<199.195 307.696>
VStem: 63 91<105.776 287.278> 186 39<-75 -35.4118>
LayerCount: 2
Fore
SplineSet
248 -175 m 0
 209 -175 186 -137 186 -98 c 0
 186 -64 202 -32 226 -12 c 1
 134 0 63 80 63 196 c 0
 63 322 147 406 252 406 c 0
 330 406 393 362 420 287 c 1
 341 257 l 1
 326 308 294 336 252 336 c 0
 196 336 154 280 154 196 c 0
 154 112 196 56 252 56 c 0
 294 56 326 84 341 135 c 1
 420 105 l 1
 393 30 330 -14 252 -14 c 0
 252 -14 251 -14 251 -14 c 0
 236 -29 226 -51 225 -75 c 1
 231 -69 240 -66 248 -66 c 0
 279 -66 304 -91 304 -121 c 0
 304 -151 279 -175 248 -175 c 0
EndSplineSet
Validated: 1
EndChar

StartChar: uni04B1
Encoding: 1201 1201 728
Width: 448
VWidth: 0
Flags: W
HStem: 0 21G<182 266> 122 42<112 182 266 336> 372 20G<49 162.93 285.07 399>
VStem: 182 84<0 122>
LayerCount: 2
Fore
SplineSet
49 392 m 1
 153 392 l 1
 224 249 l 1
 295 392 l 1
 399 392 l 1
 266 168 l 1
 264 164 l 1
 336 164 l 1
 336 122 l 1
 266 122 l 1
 266 0 l 1
 182 0 l 1
 182 122 l 1
 112 122 l 1
 112 164 l 1
 184 164 l 1
 139 240 94 316 49 392 c 1
EndSplineSet
Validated: 1
EndChar

StartChar: uni04B0
Encoding: 1200 1200 729
Width: 588
VWidth: 0
Flags: W
HStem: 0 21G<245 343> 168 56<144 245 343 445> 540 20G<70 191.697 396.303 518>
VStem: 245 98<0 168>
LayerCount: 2
Fore
SplineSet
70 560 m 5
 182 560 l 5
 294 329 l 5
 406 560 l 5
 518 560 l 5
 343 224 l 5
 445 224 l 5
 445 168 l 5
 343 168 l 5
 343 0 l 5
 245 0 l 5
 245 168 l 5
 144 168 l 5
 144 224 l 5
 245 224 l 5
 70 560 l 5
EndSplineSet
Validated: 1
EndChar

StartChar: uni04B2
Encoding: 1202 1202 730
Width: 581
VWidth: 0
Flags: W
HStem: 0 21G<49 179.034> 540 20G<63 199.4 360.6 497>
VStem: 436 75<-112 -14>
LayerCount: 2
Fore
SplineSet
63 560 m 1
 189 560 l 1
 280 385 l 1
 371 560 l 1
 497 560 l 1
 336 294 l 1
 461 84 l 1
 525 84 l 1
 511 -112 l 1
 436 -112 l 1
 428 0 l 1
 392 0 l 1
 280 203 l 1
 168 0 l 1
 49 0 l 1
 224 294 l 1
 63 560 l 1
EndSplineSet
Validated: 1
EndChar

StartChar: uni04F6
Encoding: 1270 1270 731
Width: 497
VWidth: 0
Flags: W
HStem: 476 84<189 441>
VStem: 91 98<84 476> 148 75<-112 -14>
LayerCount: 2
Fore
SplineSet
91 560 m 1xc0
 441 560 l 1
 441 476 l 1
 189 476 l 1
 189 84 l 1xc0
 237 84 l 1
 223 -112 l 1
 148 -112 l 1xa0
 140 0 l 1
 91 0 l 1
 91 560 l 1xc0
EndSplineSet
Validated: 1
EndChar

StartChar: uni04B6
Encoding: 1206 1206 732
Width: 573
VWidth: 0
Flags: W
HStem: 203 91<183.982 343.433> 540 20G<77 175 371 469>
VStem: 77 98<302.207 560> 371 98<84 238 317.972 560> 428 75<-112 -14>
LayerCount: 2
Fore
SplineSet
77 560 m 1xf0
 175 560 l 1
 175 351 l 2
 175 315 189 294 224 294 c 0
 280 294 336 308 371 329 c 1
 371 560 l 1
 469 560 l 1
 469 84 l 1xf0
 517 84 l 1
 503 -112 l 1
 428 -112 l 1xe8
 420 0 l 1
 371 0 l 1
 371 238 l 1
 336 210 266 203 224 203 c 0
 126 203 77 245 77 315 c 2
 77 560 l 1xf0
EndSplineSet
Validated: 1
EndChar

StartChar: uni04AC
Encoding: 1196 1196 733
Width: 532
VWidth: 0
Flags: W
HStem: 476 84<63 217 315 469>
VStem: 217 98<84 476> 271 72<-112 -14>
LayerCount: 2
Fore
SplineSet
63 560 m 1xc0
 469 560 l 1
 469 476 l 1
 315 476 l 1
 315 84 l 1xc0
 357 84 l 1
 343 -112 l 1
 271 -112 l 1xa0
 266 0 l 1
 217 0 l 1
 217 476 l 1
 63 476 l 1
 63 560 l 1xc0
EndSplineSet
Validated: 1
EndChar

StartChar: uni04CB
Encoding: 1227 1227 734
Width: 560
VWidth: 0
Flags: W
HStem: 203 91<183.982 343.433> 540 20G<77 175 371 469>
VStem: 77 98<302.207 560> 335 77<-112 -14> 371 98<84 238 317.972 560>
LayerCount: 2
Fore
SplineSet
77 560 m 5xe8
 175 560 l 5
 175 351 l 6
 175 315 189 294 224 294 c 4
 280 294 336 308 371 329 c 5
 371 560 l 5
 469 560 l 5
 469 0 l 5xe8
 420 0 l 5
 412 -112 l 5
 335 -112 l 5xf0
 321 84 l 5
 371 84 l 5
 371 238 l 5
 336 210 266 203 224 203 c 4
 126 203 77 245 77 315 c 6
 77 560 l 5xe8
EndSplineSet
Validated: 1
EndChar

StartChar: percent
Encoding: 37 37 735
Width: 494
VWidth: 0
Flags: W
HStem: -7 64<307.121 364.879> 119 64<307.121 364.879> 313 64<129.121 186.879> 439 64<129.121 186.879>
VStem: 63 64<379.121 436.879> 189 64<379.121 436.879> 241 64<59.1208 116.879> 367 64<59.1208 116.879>
LayerCount: 2
Fore
SplineSet
359 513 m 1xf9
 415 481 l 1
 142 -9 l 1
 86 23 l 1
 359 513 l 1xf9
336 183 m 0
 388 183 431 140 431 88 c 0
 431 36 388 -7 336 -7 c 0
 284 -7 241 36 241 88 c 0xfb
 241 140 284 183 336 183 c 0
336 119 m 0
 318 119 305 106 305 88 c 0
 305 70 318 57 336 57 c 0
 354 57 367 70 367 88 c 0
 367 106 354 119 336 119 c 0
158 503 m 0
 210 503 253 460 253 408 c 0xfd
 253 356 210 313 158 313 c 0
 106 313 63 356 63 408 c 0
 63 460 106 503 158 503 c 0
158 439 m 0
 140 439 127 426 127 408 c 0
 127 390 140 377 158 377 c 0
 176 377 189 390 189 408 c 0
 189 426 176 439 158 439 c 0
EndSplineSet
Validated: 1
EndChar

StartChar: perthousand
Encoding: 8240 8240 997
Width: 714
VWidth: 0
Flags: W
HStem: -7 64<307.121 364.879 527.121 584.879> 119 64<307.121 364.879 527.121 584.879> 313 64<129.121 186.879> 439 64<129.121 186.879>
VStem: 63 64<379.121 436.879> 189 64<379.121 436.879> 241 64<59.1208 116.879> 367 64<59.1208 116.879> 461 64<59.1208 116.879> 587 64<59.1208 116.879>
LayerCount: 2
Fore
SplineSet
359 513 m 1xf9c0
 415 481 l 1
 142 -9 l 1
 86 23 l 1
 359 513 l 1xf9c0
336 183 m 0
 388 183 431 140 431 88 c 0
 431 36 388 -7 336 -7 c 0
 284 -7 241 36 241 88 c 0xfbc0
 241 140 284 183 336 183 c 0
336 119 m 0
 318 119 305 106 305 88 c 0
 305 70 318 57 336 57 c 0
 354 57 367 70 367 88 c 0
 367 106 354 119 336 119 c 0
158 503 m 0
 210 503 253 460 253 408 c 0xfdc0
 253 356 210 313 158 313 c 0
 106 313 63 356 63 408 c 0
 63 460 106 503 158 503 c 0
158 439 m 0
 140 439 127 426 127 408 c 0
 127 390 140 377 158 377 c 0
 176 377 189 390 189 408 c 0
 189 426 176 439 158 439 c 0
556 183 m 0
 608 183 651 140 651 88 c 0
 651 36 608 -7 556 -7 c 0
 504 -7 461 36 461 88 c 0
 461 140 504 183 556 183 c 0
556 119 m 0
 538 119 525 106 525 88 c 0
 525 70 538 57 556 57 c 0
 574 57 587 70 587 88 c 0
 587 106 574 119 556 119 c 0
EndSplineSet
Validated: 1
EndChar

StartChar: uni2031
Encoding: 8241 8241 998
Width: 934
VWidth: 0
Flags: W
HStem: -7 64<307.121 364.879 527.121 584.879 747.121 804.879> 119 64<307.121 364.879 527.121 584.879 747.121 804.879> 313 64<129.121 186.879> 439 64<129.121 186.879>
VStem: 63 64<379.121 436.879> 189 64<379.121 436.879> 241 64<59.1208 116.879> 367 64<59.1208 116.879> 461 64<59.1208 116.879> 587 64<59.1208 116.879> 681 64<59.1208 116.879> 807 64<59.1208 116.879>
LayerCount: 2
Fore
SplineSet
359 513 m 1xf9f0
 415 481 l 1
 142 -9 l 1
 86 23 l 1
 359 513 l 1xf9f0
336 183 m 0
 388 183 431 140 431 88 c 0
 431 36 388 -7 336 -7 c 0
 284 -7 241 36 241 88 c 0xfbf0
 241 140 284 183 336 183 c 0
336 119 m 0
 318 119 305 106 305 88 c 0
 305 70 318 57 336 57 c 0
 354 57 367 70 367 88 c 0
 367 106 354 119 336 119 c 0
158 503 m 0
 210 503 253 460 253 408 c 0xfdf0
 253 356 210 313 158 313 c 0
 106 313 63 356 63 408 c 0
 63 460 106 503 158 503 c 0
158 439 m 0
 140 439 127 426 127 408 c 0
 127 390 140 377 158 377 c 0
 176 377 189 390 189 408 c 0
 189 426 176 439 158 439 c 0
556 183 m 0
 608 183 651 140 651 88 c 0
 651 36 608 -7 556 -7 c 0
 504 -7 461 36 461 88 c 0
 461 140 504 183 556 183 c 0
556 119 m 0
 538 119 525 106 525 88 c 0
 525 70 538 57 556 57 c 0
 574 57 587 70 587 88 c 0
 587 106 574 119 556 119 c 0
776 183 m 0
 828 183 871 140 871 88 c 0
 871 36 828 -7 776 -7 c 0
 724 -7 681 36 681 88 c 0
 681 140 724 183 776 183 c 0
776 119 m 0
 758 119 745 106 745 88 c 0
 745 70 758 57 776 57 c 0
 794 57 807 70 807 88 c 0
 807 106 794 119 776 119 c 0
EndSplineSet
Validated: 1
EndChar

StartChar: plus
Encoding: 43 43 999
Width: 504
VWidth: 0
Flags: W
HStem: 252 84<56 210 294 448>
VStem: 210 84<98 252 336 490>
LayerCount: 2
Fore
SplineSet
210 490 m 1
 294 490 l 1
 294 336 l 1
 448 336 l 1
 448 252 l 1
 294 252 l 1
 294 98 l 1
 210 98 l 1
 210 252 l 1
 56 252 l 1
 56 336 l 1
 210 336 l 1
 210 490 l 1
EndSplineSet
Validated: 1
EndChar

StartChar: multiply
Encoding: 215 215 1000
Width: 504
VWidth: 0
Flags: W
LayerCount: 2
Fore
SplineSet
371 469 m 1
 427 413 l 1
 315 301 l 1
 306 294 l 1
 315 287 l 1
 427 175 l 1
 371 119 l 1
 259 231 l 1
 252 240 l 1
 245 231 l 1
 133 119 l 1
 77 175 l 1
 189 287 l 1
 198 294 l 1
 189 301 l 1
 77 413 l 1
 133 469 l 1
 245 357 l 1
 252 348 l 1
 259 357 l 1
 371 469 l 1
EndSplineSet
Validated: 1
EndChar

StartChar: minus
Encoding: 8722 8722 1001
Width: 504
VWidth: 0
Flags: W
HStem: 252 84<56 448>
LayerCount: 2
Fore
SplineSet
56 252 m 5
 56 336 l 5
 448 336 l 5
 448 252 l 5
 56 252 l 5
EndSplineSet
Validated: 1
EndChar

StartChar: less
Encoding: 60 60 1017
Width: 504
VWidth: 0
Flags: W
LayerCount: 2
Fore
SplineSet
448 504 m 1
 448 413 l 1
 168 301 l 1
 146 294 l 1
 168 287 l 1
 448 175 l 5
 448 84 l 1
 56 252 l 1
 56 336 l 1
 448 504 l 1
EndSplineSet
Validated: 1
EndChar

StartChar: quotedbl
Encoding: 34 34 1019
Width: 378
VWidth: 0
Flags: W
HStem: 364 196<77 147 231 301>
VStem: 77 70<364 462> 231 70<364 462>
LayerCount: 2
Fore
SplineSet
77 364 m 5
 63 560 l 5
 161 560 l 5
 147 364 l 5
 77 364 l 5
231 364 m 5
 217 560 l 5
 315 560 l 5
 301 364 l 5
 231 364 l 5
EndSplineSet
Validated: 1
EndChar

StartChar: braceleft
Encoding: 123 123 1020
Width: 364
VWidth: 0
Flags: W
HStem: -168 70<244.505 308> 154 84<56 111.568> 490 63<244.131 308>
VStem: 140 84<-78.8047 133.332 256.116 473.02>
LayerCount: 2
Fore
SplineSet
56 238 m 1
 91 238 l 2
 119 238 140 280 140 364 c 0
 140 476 196 553 252 553 c 2
 308 553 l 1
 308 490 l 1
 280 490 l 2
 229 490 224 422 224 336 c 0
 224 224 134 207 112 196 c 1
 130 187 224 168 224 56 c 0
 224 -56 242 -98 280 -98 c 2
 308 -98 l 1
 308 -168 l 1
 252 -168 l 2
 196 -168 140 -84 140 28 c 0
 140 112 119 154 91 154 c 2
 56 154 l 1
 56 238 l 1
EndSplineSet
Validated: 1
EndChar

StartChar: plusminus
Encoding: 177 177 1022
Width: 504
VWidth: 0
Flags: W
HStem: 56 84<56 448> 332 84<56 210 294 448>
VStem: 210 84<218 332 416 530>
LayerCount: 2
Fore
SplineSet
210 530 m 5
 294 530 l 5
 294 416 l 5
 448 416 l 5
 448 332 l 5
 294 332 l 5
 294 218 l 5
 210 218 l 5
 210 332 l 5
 56 332 l 5
 56 416 l 5
 210 416 l 5
 210 530 l 5
56 56 m 1
 56 140 l 1
 448 140 l 1
 448 56 l 1
 56 56 l 1
EndSplineSet
Validated: 1
EndChar

StartChar: logicalnot
Encoding: 172 172 1030
Width: 504
VWidth: 0
Flags: W
HStem: 252 84<56 364>
VStem: 364 84<168 252>
LayerCount: 2
Fore
SplineSet
56 336 m 1
 448 336 l 1
 448 168 l 1
 364 168 l 1
 364 252 l 1
 56 252 l 1
 56 336 l 1
EndSplineSet
Validated: 1
EndChar

StartChar: mu
Encoding: 181 181 1031
Width: 469
VWidth: 0
Flags: W
HStem: -168 21G<91 175> -7 70<192.713 285.446> 0 21G<339.469 413> 372 20G<91 175 329 413>
VStem: 91 84<-168 21.7578 80.179 392> 329 84<106.847 392> 341 72<0 45.5001>
LayerCount: 2
Fore
SplineSet
91 392 m 1xda
 175 392 l 1
 175 307.666666667 175 223.333333333 175 139 c 0
 175 118 189 63 231 63 c 0
 271.14453125 63 308 98 329 140 c 1
 329 392 l 1
 413 392 l 1xdc
 413 0 l 1
 341 0 l 1xba
 337.938476562 17.2099609375 333.39453125 35.455078125 327 46 c 1
 327 46 286 -7 230 -7 c 0
 209.953125 -7 191.48828125 4.046875 175 21.7578125 c 1
 175 -168 l 1
 91 -168 l 1
 91 18.6666666667 91 205.333333333 91 392 c 1xda
EndSplineSet
Validated: 1
EndChar

StartChar: uni057A
Encoding: 1402 1402 1033
Width: 672
VWidth: 0
Flags: W
HStem: -168 21G<532 616> -7 70<177.414 267.932 400.247 490.749> 372 20G<84 168 308 392 532 616>
VStem: 84 84<72.1778 392> 308 84<105.177 392> 532 84<-168 53.0586 105.177 392>
CounterMasks: 1 1c
LayerCount: 2
Fore
SplineSet
84 392 m 1
 168 392 l 1
 168 119 l 2
 168 98 175 63 217 63 c 0
 257.14453125 63 287 98 308 140 c 1
 308 392 l 1
 392 392 l 1
 392 119 l 2
 392 98 399 63 441 63 c 0
 481.14453125 63 511 98 532 140 c 1
 532 392 l 1
 616 392 l 1
 616 -168 l 1
 532 -168 l 1
 532 53.05859375 l 1
 517.119140625 33.7490234375 478.768554688 -7 420 -7 c 0
 365.393554688 -7 329 21 315 63 c 1
 301 21 247.70703125 -7 196 -7 c 0
 119 -7 84 42 84 112 c 2
 84 392 l 1
EndSplineSet
Validated: 1
EndChar

StartChar: uni04C8
Encoding: 1224 1224 1034
Width: 469
VWidth: 0
Flags: W
HStem: -167.852 80.7067<252.021 327.378> 0 21G<98 182> 168 77<182 328.84> 372 20G<98 182 328.994 413>
VStem: 98 84<0 168 245 392> 328.5 84<-84.2205 168 245 392>
LayerCount: 2
Fore
SplineSet
98 392 m 1
 182 392 l 1
 182 245 l 1
 328.95703125 245 l 1
 329 392 l 1
 413 392 l 1
 412.5 -70 l 2
 412.5 -132.866941861 356.735325563 -167.852032724 328.65254851 -167.852032724 c 0
 326.544377469 -167.852066912 l 0
 285.958191626 -167.852066912 264.840306364 -167.736122546 230.5 -154 c 1
 251.5 -84 l 1
 262.597990752 -85.7933542419 274.138655881 -87.1453225565 284.804320799 -87.1453225565 c 0
 308.881734818 -87.1453225565 328.5 -80.2554637196 328.5 -56 c 2
 328.83984375 168 l 1
 182 168 l 1
 182 0 l 1
 98 0 l 1
 98 392 l 1
EndSplineSet
Validated: 1
EndChar

StartChar: uni04C7
Encoding: 1223 1223 1035
Width: 588
VWidth: 0
Flags: W
HStem: -136 98<243.879 382.116> 0 21G<91 189> 256 80<189 399> 540 20G<91 189 399 497>
VStem: 91 98<0 256 336 560> 399 98<-21.1654 256 336 560>
LayerCount: 2
Fore
SplineSet
91 560 m 1
 189 560 l 1
 189 336 l 1
 399 336 l 1
 399 560 l 1
 497 560 l 1
 497 374.591145833 497 189.182291667 497 3.7734375 c 0
 497 -62.169921875 441 -136 343 -136 c 0
 308 -136 238 -122 238 -122 c 1
 245 -24 l 1
 245 -24 287 -38 336 -38 c 0
 364 -38 399 -17.0009765625 399 31.552734375 c 2
 399 256 l 1
 189 256 l 1
 189 0 l 1
 91 0 l 1
 91 560 l 1
EndSplineSet
Validated: 1
EndChar

StartChar: uni0512
Encoding: 1298 1298 1036
Width: 609
VWidth: 0
Flags: W
HStem: -136 98<266.038 403.116> -14 21G<66.5957 88> 476 84<266 420>
VStem: 161 98<137.999 475.848> 168 98<199.382 476> 420 98<-20.9648 476>
LayerCount: 2
Fore
SplineSet
168 560 m 1xec
 518 560 l 1
 518 4 l 2
 518 -62 462 -136 364 -136 c 0
 329 -136 266 -122 266 -122 c 1
 266 -24 l 1
 266 -24 308 -38 357 -38 c 0
 385 -38 420 -17 420 32 c 2
 420 476 l 1
 266 476 l 1xec
 266 476 266 266 259 196 c 4
 239 -0 70 -14 70 -14 c 1
 54 80 l 1
 54 80 148 105 161 182 c 0xf4
 168 224 168 434 168 560 c 1xec
EndSplineSet
Validated: 1
EndChar

StartChar: uni0513
Encoding: 1299 1299 1037
Width: 504
VWidth: 0
Flags: W
HStem: -168 81<248.774 343> -14 21G<59 150.5> 315 77<216.222 329>
VStem: 329 84<-84.1124 315>
LayerCount: 2
Fore
SplineSet
140 392 m 1
 413 392 l 1
 413 -70 l 2
 413 -133 357 -168 329 -168 c 0
 287 -168 266 -168 231 -154 c 1
 252 -84 l 1
 263 -86 275 -87 285 -87 c 0
 309 -87 329 -80 329 -56 c 2
 329 315 l 1
 217 315 l 1
 210 189 238 28 63 -14 c 1
 47 66 l 1
 70 70 101 87 118 119 c 0
 135 150 140 315 140 392 c 1
EndSplineSet
Validated: 1
EndChar

StartChar: uni04C4
Encoding: 1220 1220 1038
Width: 504
VWidth: 0
Flags: W
HStem: -168 81<248.774 343> 0 21G<91 175> 184 67<175.281 228.519> 329 70<367.831 394.1> 372 20G<91 175>
VStem: 91 84<0 183.999 251 392> 329 84<-84.1124 78.9483>
LayerCount: 2
Fore
SplineSet
392 399 m 1xf6
 413 329 l 1xf6
 347 324 325 236 273 224 c 1
 334 211 362 151 393 91 c 0
 407 65 413 42 413 0 c 2
 413 -70 l 2
 413 -133 357 -168 329 -168 c 0
 287 -168 266 -168 231 -154 c 1
 252 -84 l 1
 263 -86 274 -87 285 -87 c 0
 309 -87 329 -80 329 -56 c 2
 329 -0 l 2
 329 21 329 28 308 77 c 0
 289 122 253 184 193 184 c 0
 187 184 181 183 175 182 c 1
 175 0 l 1
 91 0 l 1
 91 392 l 1
 175 392 l 1xee
 175 252 l 1
 178 251 182 251 185 251 c 0
 248 251 303 392 392 399 c 1xf6
EndSplineSet
Validated: 1
EndChar

StartChar: uni04C3
Encoding: 1219 1219 1039
Width: 595
VWidth: 0
Flags: W
HStem: -136 98<252.038 389.116> 0 21G<84 182> 256 93<182.095 243.293> 476 98<431.122 469> 540 20G<84 182>
VStem: 84 98<0 256 349 560> 406 98<-20.9648 149.881>
LayerCount: 2
Fore
SplineSet
182 351 m 1xee
 184 349 188 349 193 349 c 0
 295 349 324 574 469 574 c 1
 490 476 l 1xf6
 436 476 422 446 392 406 c 0
 365 371 321 308 294 308 c 1
 392 297 504 189 504 91 c 2
 504 4 l 2
 504 -62 448 -136 350 -136 c 0
 315 -136 252 -122 252 -122 c 1
 252 -24 l 1
 252 -24 294 -38 343 -38 c 0
 371 -38 406 -17 406 32 c 2
 406 77 l 2
 406 168 305 248 224 259 c 0
 210 259 182 256 182 256 c 1
 182 0 l 1
 84 0 l 1
 84 560 l 1
 182 560 l 1
 182 351 l 1xee
EndSplineSet
Validated: 1
EndChar

StartChar: Dcroat
Encoding: 272 272 1040
Width: 651
VWidth: 0
Flags: W
HStem: 0 84<252 403.992> 238 84<70 154 252 336> 476 84<252 403.992>
VStem: 154 98<84 238 322 476> 483 102<172.869 387.131>
CounterMasks: 1 e0
LayerCount: 2
Fore
SplineSet
154 560 m 1
 343 560 l 2
 497 560 585 442 585 280 c 0
 585 118 497 0 343 0 c 2
 154 0 l 1
 154 238 l 1
 70 238 l 1
 70 322 l 1
 154 322 l 1
 154 560 l 1
252 476 m 1
 252 322 l 1
 336 322 l 1
 336 238 l 1
 252 238 l 1
 252 84 l 1
 336 84 l 2
 413 84 483 147 483 280 c 0
 483 413 413 476 336 476 c 2
 252 476 l 1
EndSplineSet
Validated: 1
EndChar

StartChar: dcroat
Encoding: 273 273 1042
Width: 553
VWidth: 0
Flags: W
HStem: -14 77<208.186 317.589> 0 21G<369.469 441> 336 70<210.488 324.258> 434 77<301 357 441 497> 540 20G<357 441>
VStem: 84 84<107.769 287.009> 357 84<101.196 306.053 357 434 511 560> 371 70<0 41.503>
LayerCount: 2
Fore
SplineSet
357 560 m 1xbe
 441 560 l 1
 441 511 l 1
 497 511 l 1
 497 434 l 1
 441 434 l 1xbe
 441 0 l 1
 371 0 l 1x7d
 367.938476562 17.2099609375 363.39453125 31.455078125 357 42 c 1
 357 42 329 -14 259 -14 c 0
 189 -14 84 28 84 196 c 0
 84 371 217 406 259 406 c 0
 315 406 357 364 357 357 c 2
 357 434 l 1
 301 434 l 1
 301 511 l 1
 357 511 l 1
 357 560 l 1xbe
259 336 m 0
 210 336 168 280 168 196 c 0
 168 112 210 63 259 63 c 0
 299.14453125 63 336 91 357 133 c 1
 357 280 l 1
 336 315 294.6171875 336 259 336 c 0
EndSplineSet
Validated: 1
EndChar

StartChar: eth
Encoding: 240 240 1043
Width: 511
VWidth: 0
Flags: W
HStem: -14 70<199.829 300.049> 322 70<200.063 301.263> 504.574 75.5996<191.586 239.866>
VStem: 70 91<97.4983 281.507> 364 77<322 419.247>
LayerCount: 2
Fore
SplineSet
364 588 m 1
 406 532 l 1
 369.1328125 506.642578125 l 1
 424.426757812 447.8203125 441 359.255859375 441 280 c 0
 441 147 406 -14 252 -14 c 0
 133 -14 70 91 70 189 c 0
 70 322 147 392 245 392 c 0
 315 392 350 350 364 322 c 1
 364 384.06640625 348.39453125 436.814453125 313.806640625 466.951171875 c 1
 252 420 l 1
 210 476 l 1
 241.08203125 497.150390625 l 1
 215.178710938 501.865234375 186.858398438 502.3671875 157.287109375 504.57421875 c 1
 195.0859375 580.173828125 l 1
 228.892578125 573.987304688 247.319335938 570.275390625 273 563.5 c 0
 286.8515625 559.845703125 299.596679688 553.198242188 311.3515625 547.708984375 c 1
 364 588 l 1
252 322 m 0
 210 322 161 287 161 189 c 0
 161 91 210 56 252 56 c 0
 287 56 343 91 343 189 c 0
 343 287 287 322 252 322 c 0
EndSplineSet
Validated: 1
EndChar

StartChar: lslash
Encoding: 322 322 1044
Width: 357
VWidth: 0
Flags: W
HStem: -7 77<204.43 279.985> 540 20G<119 203>
VStem: 119 84<71.3338 163 319 560>
LayerCount: 2
Fore
SplineSet
119 560 m 1
 203 560 l 1
 203 319 l 1
 259 353 l 1
 259 248 l 1
 203 214 l 1
 203 105 l 2
 203 77 217 70 238 70 c 0
 259 70 280 77 280 77 c 1
 294 0 l 1
 273 -7 252 -7 238 -7 c 2
 196 -7 l 2
 143.763671875 -7 119 18.6953125 119 63 c 2
 119 163 l 1
 63 129 l 1
 63 234 l 1
 119 268 l 1
 119 560 l 1
EndSplineSet
Validated: 1
EndChar

StartChar: hbar
Encoding: 295 295 1045
Width: 518
VWidth: 0
Flags: W
HStem: 0 21G<140 224 378 462> 329 70<272.281 366.778> 434 77<84 140 224 308> 540 20G<140 224>
VStem: 140 84<0 285.153 336 434 511 560> 378 84<0 316.976>
LayerCount: 2
Fore
SplineSet
140 560 m 1
 224 560 l 1
 224 511 l 1
 308 511 l 1
 308 434 l 1
 224 434 l 1
 224 336 l 1
 224 336 273 399 343 399 c 0
 420 399 462 350 462 280 c 2
 462 0 l 1
 378 0 l 1
 378 273 l 2
 378 294 364 329 322 329 c 0
 282 329 245 294 224 252 c 1
 224 0 l 1
 140 0 l 1
 140 434 l 1
 84 434 l 1
 84 511 l 1
 140 511 l 1
 140 560 l 1
EndSplineSet
Validated: 1
EndChar

StartChar: afii10099
Encoding: 1106 1106 1047
Width: 518
VWidth: 0
Flags: W
HStem: -168 81<297.247 391> 0 21G<140 224> 329 70<272.281 366.778> 434 77<84 140 224 308> 540 20G<140 224>
VStem: 140 84<0 285.153 336 434 511 560> 378 84<-81.4827 316.976>
LayerCount: 2
Fore
SplineSet
140 560 m 5
 224 560 l 5
 224 511 l 5
 308 511 l 5
 308 434 l 5
 224 434 l 5
 224 336 l 5
 224 336 273 399 343 399 c 4
 420 399 462 350 462 280 c 6
 462 -70 l 6
 462 -133 405 -168 377 -168 c 4
 335 -168 315 -168 280 -154 c 5
 300 -84 l 5
 311 -86 323 -87 333 -87 c 4
 358 -87 378 -80 378 -56 c 6
 378 273 l 6
 378 294 364 329 322 329 c 4
 282 329 245 294 224 252 c 5
 224 0 l 5
 140 0 l 5
 140 434 l 5
 84 434 l 5
 84 511 l 5
 140 511 l 5
 140 560 l 5
EndSplineSet
Validated: 1
EndChar

StartChar: afii10051
Encoding: 1026 1026 1048
Width: 640
VWidth: 0
Flags: W
HStem: -136 98<295.879 434.116> 0 21G<197 295> 266 91<296.552 442.018> 476 84<63 197 295 429>
VStem: 197 98<0 255.491 342 476> 451 98<-20.9648 257.793>
LayerCount: 2
Fore
SplineSet
63 560 m 5
 429 560 l 5
 429 476 l 5
 295 476 l 5
 295 342 l 5
 330 354 373 357 402 357 c 4
 500 357 549 315 549 245 c 6
 549 4 l 6
 549 -62 493 -136 395 -136 c 4
 360 -136 290 -122 290 -122 c 5
 297 -24 l 5
 297 -24 339 -38 388 -38 c 4
 416 -38 451 -17 451 32 c 6
 451 209 l 6
 451 245 437 266 402 266 c 4
 364 266 326 260 295 249 c 5
 295 0 l 5
 197 0 l 5
 197 476 l 5
 63 476 l 5
 63 560 l 5
EndSplineSet
Validated: 1
EndChar

StartChar: uni04A4
Encoding: 1188 1188 1049
Width: 685
VWidth: 0
Flags: W
HStem: 0 21G<91 189 391 489> 256 80<189 391> 476 84<489 629>
VStem: 91 98<0 256 336 560> 391 98<0 256 336 476>
LayerCount: 2
Fore
SplineSet
91 560 m 1
 189 560 l 1
 189 336 l 1
 391 336 l 1
 391 560 l 1
 629 560 l 1
 629 476 l 1
 489 476 l 1
 489 0 l 1
 391 0 l 1
 391 256 l 1
 189 256 l 1
 189 0 l 1
 91 0 l 1
 91 560 l 1
EndSplineSet
Validated: 1
EndChar

StartChar: uni04A5
Encoding: 1189 1189 1050
Width: 567
VWidth: 0
Flags: W
HStem: 0 21G<91 175 322 406> 168 77<175 322> 315 77<406 511>
VStem: 91 84<0 168 245 392> 322 84<0 168 245 315>
LayerCount: 2
Fore
SplineSet
91 392 m 1
 175 392 l 1
 175 245 l 1
 322 245 l 1
 322 392 l 1
 511 392 l 1
 511 315 l 1
 406 315 l 1
 406 0 l 1
 322 0 l 1
 322 168 l 1
 175 168 l 1
 175 0 l 1
 91 0 l 1
 91 392 l 1
EndSplineSet
Validated: 1
EndChar

StartChar: uni04FD
Encoding: 1277 1277 1051
Width: 483
VWidth: 0
Flags: W
HStem: -168 80.7847<226.776 321> 0 21G<42 155.748> 372 20G<56 172.25 275.75 392>
VStem: 307 84<-84.2496 58.2209>
LayerCount: 2
Fore
SplineSet
56 392 m 1
 161 392 l 1
 224 280 l 1
 287 392 l 1
 392 392 l 1
 273 210 l 1
 271 208 l 1
 309 162 352 107 371 71 c 0
 385 45 391 2 391 -40 c 2
 391 -70 l 2
 391 -133 335 -168 307 -168 c 0
 265 -168 244 -168 209 -154 c 1
 230 -84 l 1
 241.062264699 -85.8437107832 252.596650155 -87.2153008091 263.268460034 -87.2153008091 c 0
 287.325990494 -87.2153008091 307 -80.2450204316 307 -56 c 2
 307 -40 l 2
 307 -19 307 8 286 57 c 0
 275 83 251 112 228 143 c 1
 144 0 l 1
 42 0 l 1
 175 208 l 1
 56 392 l 1
EndSplineSet
Validated: 1
EndChar

StartChar: uni04FC
Encoding: 1276 1276 1052
Width: 595
VWidth: 0
Flags: W
HStem: -136 98<250.879 388.245> 0 21G<49 178.619> 540 20G<63 199.4 360.6 497>
VStem: 406 98<-21.4884 125.18>
LayerCount: 2
Fore
SplineSet
63 560 m 1
 189 560 l 1
 280 385 l 1
 371 560 l 1
 497 560 l 1
 333 301 l 1
 430 264 504 157 504 28 c 4
 504 17 503 5 500 -6 c 4
 487 -73 434 -136 350 -136 c 4
 315 -136 245 -122 245 -122 c 5
 252 -24 l 5
 252 -24 294 -38 343 -38 c 4
 371 -38 406 -17 406 32 c 4
 406 117 367 170 288 226 c 1
 168 0 l 5
 49 0 l 1
 224 294 l 1
 63 560 l 1
EndSplineSet
Validated: 1
EndChar

StartChar: uniFB00
Encoding: 64256 64256 1053
Width: 602
Flags: W
HStem: 0 21G<126 210 364 448> 315 77<63 126 210 364 448 546> 483 77<215.651 312.33 453.651 550.33>
VStem: 126 84<0 315 392 475.841> 364 84<0 315 392 475.841>
LayerCount: 2
Fore
SplineSet
364 0 m 1
 364 315 l 1
 210 315 l 1
 210 0 l 1
 126 0 l 1
 126 315 l 1
 63 315 l 1
 63 392 l 5
 126 392 l 1
 126 469 l 2
 126 518 168 560 238 560 c 0
 287 560 329 546 329 546 c 1
 308 476 l 1
 308 476 294 483 259 483 c 0
 224 483 210 462 210 441 c 2
 210 392 l 1
 364 392 l 1
 364 469 l 2
 364 518 406 560 476 560 c 0
 525 560 567 546 567 546 c 1
 546 476 l 1
 546 476 532 483 497 483 c 0
 462 483 448 462 448 441 c 2
 448 392 l 1
 546 392 l 1
 546 315 l 1
 448 315 l 1
 448 0 l 1
 364 0 l 1
EndSplineSet
Validated: 1
EndChar

StartChar: uniFB03
Encoding: 64259 64259 1054
Width: 742
Flags: W
HStem: 0 21G<126 210 364 448 602 686> 315 77<63 126 210 364 448 602> 483 77<215.651 312.33 453.651 604.325>
VStem: 126 84<0 315 392 475.841> 364 84<0 315 392 475.841> 602 84<0 315>
CounterMasks: 1 1c
LayerCount: 2
Fore
SplineSet
364 0 m 1
 364 315 l 1
 210 315 l 1
 210 0 l 1
 126 0 l 1
 126 315 l 1
 63 315 l 1
 63 392 l 1
 126 392 l 1
 126 469 l 2
 126 518 168 560 238 560 c 0
 287 560 329 546 329 546 c 1
 308 476 l 1
 308 476 294 483 259 483 c 0
 224 483 210 462 210 441 c 2
 210 392 l 1
 364 392 l 1
 364 469 l 2
 364 518 406 560 476 560 c 0
 586 560 623 530 623 530 c 1
 602 460 l 1
 602 460 573 483 497 483 c 0
 462 483 448 462 448 441 c 2
 448 392 l 1
 686 392 l 1
 686 0 l 1
 602 0 l 1
 602 315 l 1
 448 315 l 1
 448 0 l 1
 364 0 l 1
EndSplineSet
Validated: 1
EndChar

StartChar: uniFB01
Encoding: 64257 64257 1055
Width: 503
Flags: W
HStem: 483 77<215.651 366.325>
VStem: 126 84<441 475.841>
LayerCount: 2
Fore
SplineSet
63 392 m 1
 63 315 l 1
 126 315 l 1
 126 0 l 1
 210 0 l 1
 210 315 l 1
 364 315 l 1
 364 0 l 1
 448 0 l 1
 448 392 l 1
 210 392 l 1
 210 441 l 2
 210 462 224 483 259 483 c 0
 335 483 364 460 364 460 c 1
 385 530 l 1
 385 530 348 560 238 560 c 0
 168 560 126 518 126 469 c 2
 126 392 l 1
 63 392 l 1
EndSplineSet
Validated: 9
EndChar

StartChar: uni0464
Encoding: 1124 1124 1056
Width: 749
Flags: W
HStem: -14 84<428.791 570.266> 490 84<423.135 571.692>
VStem: 260 99<154.495 252 336 414.407>
LayerCount: 2
Fore
SplineSet
693 483 m 1
 637 539 603 574 497 574 c 0
 357 574 275 488 261 336 c 1
 189 336 l 1
 189 560 l 1
 91 560 l 1
 91 0 l 1
 189 0 l 1
 189 252 l 1
 260 252 l 1
 270 90 353 -14 497 -14 c 0
 588 -14 630 14 686 77 c 1
 616 147 l 1
 581 84 546 70 497 70 c 0
 427 70 364 126 359 252 c 1
 532 252 l 1
 532 336 l 1
 360 336 l 1
 371 441 418 490 497 490 c 0
 549 490 574 476 616 420 c 1
 693 483 l 1
EndSplineSet
Validated: 9
EndChar

StartChar: uni0465
Encoding: 1125 1125 1057
Width: 618
Flags: W
HStem: -14 70<362.13 472.294> 0 21G<84 168> 168 63<168 241.06 324 450> 336 70<360.18 472.617> 372 20G<84 168>
VStem: 84 84<0 168 231 392> 239 85<97.3562 168 231 299.022>
LayerCount: 2
Fore
SplineSet
84 0 m 1x66
 84 392 l 1
 168 392 l 1x6e
 168 231 l 1
 239 231 l 1
 251 337 320 406 415 406 c 0
 472 406 521 381 556 339 c 1
 499 287 l 1
 478 315 449 336 415 336 c 0
 367 336 324 294 324 231 c 1
 450 231 l 1
 450 168 l 1
 324 168 l 1
 324 105 365 56 415 56 c 0
 449 56 478 77 499 105 c 1
 559 53 l 1
 526 9 473 -14 415 -14 c 0xb6
 318 -14 249 58 239 168 c 1
 168 168 l 1
 168 0 l 1
 84 0 l 1x66
EndSplineSet
Validated: 1
EndChar

StartChar: uni04B8
Encoding: 1208 1208 1058
Width: 588
Flags: W
HStem: 0 21G<399 497> 203 91<186.079 260> 210 92<316 388.544> 540 20G<77 175 399 497>
VStem: 77 98<304.506 560> 260 56<98 204 302 427> 399 98<0 238 319.072 560>
LayerCount: 2
Fore
SplineSet
77 560 m 1xde
 175 560 l 1
 175 351 l 2
 175 315 195 294 230 294 c 0xde
 239 294 250 294 260 295 c 1
 260 427 l 1
 316 427 l 1
 316 302 l 1
 349 308 380 318 399 329 c 1
 399 560 l 1
 497 560 l 1
 497 0 l 1
 399 0 l 1
 399 238 l 1
 381 224 349 215 316 210 c 1xbe
 316 98 l 1
 260 98 l 1
 260 204 l 1
 249 203 238 203 230 203 c 0
 133 203 77 259 77 322 c 2
 77 560 l 1xde
EndSplineSet
Validated: 1
EndChar

StartChar: uni04B9
Encoding: 1209 1209 1059
Width: 504
Flags: W
HStem: 0 21G<329 413> 119 70<165.255 228 270 316.84> 372 20G<77 161 329 413>
VStem: 77 84<197.381 392> 228 42<49 120 195 280> 329 84<0 147 206.75 392>
LayerCount: 2
Fore
SplineSet
77 392 m 1
 161 392 l 1
 161 224 l 2
 161 203 189 189 207 189 c 0
 214 189 221 190 228 190 c 1
 228 280 l 1
 270 280 l 1
 270 195 l 1
 301 202 320 212 329 217 c 1
 329 392 l 1
 413 392 l 1
 413 0 l 1
 329 0 l 1
 329 147 l 1
 311 136 292 129 270 125 c 1
 270 49 l 1
 228 49 l 1
 228 120 l 1
 219 120 210 119 200 119 c 0
 137 119 77 147 77 224 c 2
 77 392 l 1
EndSplineSet
Validated: 1
EndChar

StartChar: uniFB04
Encoding: 64260 64260 1060
Width: 825
VWidth: 0
Flags: W
HStem: -7 77<687.43 762.985> 0 21G<126 210 364 448> 315 77<63 126 210 364 448 546> 483 77<215.651 312.33 453.651 600.102>
VStem: 126 84<0 315 392 475.841> 364 84<0 315 392 475.841> 602 84<71.3338 460 541 560>
CounterMasks: 1 0e
LayerCount: 2
Fore
SplineSet
63 315 m 1x7e
 63 392 l 1
 126 392 l 1
 126 469 l 2
 126 518 168 560 238 560 c 0
 287 560 329 546 329 546 c 1
 308 476 l 1
 308 476 294 483 259 483 c 0
 224 483 210 462 210 441 c 2
 210 392 l 1
 364 392 l 1
 364 469 l 2
 364 518 406 560 476 560 c 0
 541 560 581 550 602 541 c 1
 602 560 l 1
 686 560 l 1
 686 105 l 2
 686 77 700 70 721 70 c 0xbe
 742 70 763 77 763 77 c 1
 777 0 l 1x7e
 756 -7 735 -7 721 -7 c 2
 679 -7 l 2xbe
 627 -7 602 19 602 63 c 2
 602 460 l 1
 602 460 573 483 497 483 c 0
 462 483 448 462 448 441 c 2
 448 392 l 1
 546 392 l 1
 546 315 l 1
 448 315 l 1
 448 0 l 1
 364 0 l 1
 364 315 l 1
 210 315 l 1
 210 0 l 1
 126 0 l 1
 126 315 l 1
 63 315 l 1x7e
EndSplineSet
Validated: 1
EndChar

StartChar: uniFB02
Encoding: 64258 64258 1061
Width: 586
VWidth: 0
Flags: W
HStem: -7 77<449.43 524.985> 0 21G<126 210> 315 77<63 126 210 308> 483 77<215.651 362.102>
VStem: 126 84<0 315 392 475.841> 364 84<71.3338 470.423 541 560>
LayerCount: 2
Fore
SplineSet
63 315 m 9x7c
 63 392 l 1
 126 392 l 1
 126 469 l 2
 126 518 168 560 238 560 c 0
 303 560 343 550 364 541 c 1
 364 560 l 1
 448 560 l 1
 448 105 l 2
 448 77 462 70 483 70 c 0xbc
 504 70 525 77 525 77 c 1
 539 0 l 1x7c
 518 -7 497 -7 483 -7 c 2
 441 -7 l 2xbc
 389 -7 364 19 364 63 c 2
 364 460 l 1
 364 460 335 483 259 483 c 0
 224 483 210 462 210 441 c 2
 210 392 l 1
 308 392 l 1
 308 315 l 1
 210 315 l 1
 210 0 l 1
 126 0 l 1
 126 315 l 1
 63 315 l 9x7c
EndSplineSet
Validated: 1
EndChar

StartChar: Sigma
Encoding: 931 931 1062
Width: 560
VWidth: 0
Flags: W
HStem: 0 84<210 469> 476 84<217 462>
LayerCount: 2
Fore
SplineSet
98 560 m 1
 462 560 l 1
 462 476 l 1
 217 476 l 1
 342 285 l 1
 210 84 l 1
 469 84 l 1
 469 0 l 1
 91 0 l 1
 91 91 l 1
 228 285 l 1
 98 469 l 1
 98 560 l 1
EndSplineSet
Validated: 1
EndChar

StartChar: gamma
Encoding: 947 947 1064
Width: 471
VWidth: 0
Flags: W
HStem: -168 21G<205 289> 382 10G<77.5 113 322.167 422>
VStem: 205 84<-168 0>
LayerCount: 2
Fore
SplineSet
81 402 m 4
 145 402 201 335 216 280 c 5
 251 128 l 5
 328 392 l 5
 422 392 l 5
 289 0 l 5
 289 -168 l 5
 205 -168 l 5
 205 0 l 5
 132 262 l 6
 119 310 86 326 40 329 c 5
 61 399 l 5
 68 401 74 402 81 402 c 4
EndSplineSet
Validated: 1
EndChar

StartChar: uni0495
Encoding: 1173 1173 1065
Width: 476
VWidth: 0
Flags: W
HStem: -169 66<195.737 294.726> 0 21G<84 168> 157 81<195.414 296.169> 315 77<168 336>
VStem: 84 84<0 134.838 192 315> 333 87<-59.5432 116.635>
LayerCount: 2
Fore
SplineSet
252 -169 m 4
 197 -169 150 -140 122 -105 c 5
 182 -70 l 5
 207 -91 212 -103 245 -103 c 4
 301 -103 333 -42 333 30 c 4
 333 110 294 157 245 157 c 4
 210 157 184 139 168 103 c 5
 168 0 l 5
 84 0 l 5
 84 392 l 5
 336 392 l 5
 336 315 l 5
 168 315 l 5
 168 192 l 5
 193 220 225 238 268 238 c 4
 357 238 420 148 420 28 c 4
 420 -92 357 -169 252 -169 c 4
EndSplineSet
Validated: 1
EndChar

StartChar: uni0494
Encoding: 1172 1172 1066
Width: 602
VWidth: 0
Flags: W
HStem: -169 76<190.79 324.917> 0 21G<91 189> 275 86<232.761 354.239> 476 84<189 413>
VStem: 91 98<0 240.527 303 476> 405 99<5.226 216.846>
LayerCount: 2
Fore
SplineSet
273 -169 m 4
 231 -169 182 -154 137 -121 c 5
 189 -70 l 5
 225 -92 238 -93 262 -93 c 4
 351 -93 405 14 405 108 c 4
 405 212 364 275 298 275 c 4
 249 275 213 251 189 214 c 5
 189 0 l 5
 91 0 l 5
 91 560 l 5
 413 560 l 5
 413 476 l 5
 189 476 l 5
 189 303 l 5
 221 338 260 361 304 361 c 4
 441 361 504 245 504 111 c 4
 504 -46 399 -169 273 -169 c 4
EndSplineSet
Validated: 1
EndChar

StartChar: uni04A6
Encoding: 1190 1190 1067
Width: 897
VWidth: 0
Flags: W
HStem: -169 80<483.641 618.53> 0 21G<91 189 385 483> 280 88<530.708 652.655> 476 84<189 385>
VStem: 91 98<0 476> 385 98<0 239.818 312 476> 700 99<12.0163 225.359>
LayerCount: 2
Fore
SplineSet
560 -169 m 0
 518 -169 464 -151 420 -114 c 1
 476 -63 l 1
 508 -85 532 -89 556 -89 c 0
 645 -89 700 14 700 122 c 0
 700 226 658 280 588 280 c 0
 539 280 506 250 483 207 c 1
 483 0 l 1
 385 0 l 1
 385 476 l 1
 189 476 l 1
 189 0 l 1
 91 0 l 1
 91 560 l 1
 483 560 l 1
 483 312 l 1
 519 346 564 368 609 368 c 0
 735 368 799 258 799 124 c 0
 799 -33 686 -169 560 -169 c 0
EndSplineSet
Validated: 1
EndChar

StartChar: uni04A7
Encoding: 1191 1191 1068
Width: 697
VWidth: 0
Flags: W
HStem: -169 66<411.737 514.729> 0 21G<84 168 308 392> 159 75<413.174 517.925> 315 77<168 308>
VStem: 84 84<0 315> 308 84<0 139.943 193 315> 555 86<-57.6024 118.902>
LayerCount: 2
Fore
SplineSet
84 392 m 1
 392 392 l 1
 392 193 l 1
 414 218 443 234 484 234 c 0
 573 234 641 148 641 36 c 0
 641 -84 560 -169 468 -169 c 0
 413 -169 366 -140 338 -105 c 1
 398 -70 l 1
 423 -91 428 -103 461 -103 c 0
 517 -103 555 -50 555 32 c 0
 555 101 521 159 471 159 c 0
 438 159 410 146 392 112 c 1
 392 0 l 1
 308 0 l 1
 308 315 l 1
 168 315 l 1
 168 0 l 1
 84 0 l 1
 84 392 l 1
EndSplineSet
Validated: 1
EndChar

StartChar: Ccedilla
Encoding: 199 199 1069
Width: 560
VWidth: 0
Flags: W
HStem: -12 89<229.873 266 323 358.414> 483 91<231.397 357.919>
VStem: 66 95<160.201 396.941> 304 65<-167.314 -75.9212>
LayerCount: 2
Fore
SplineSet
294 574 m 4
 400 574 462 511 497 420 c 5
 403 385 l 5
 382 455 346 483 294 483 c 4
 217 483 161 406 161 280 c 4
 161 154 217 77 294 77 c 4
 346 77 382 105 403 175 c 5
 497 140 l 5
 465 58 412 -2 323 -12 c 5
 319 -35 l 5
 319 -35 369 -56 369 -107 c 4
 369 -147 343 -175 301 -224 c 5
 259 -203 l 5
 259 -203 304 -161 304 -119 c 4
 304 -70 252 -63 252 -63 c 5
 266 -12 l 5
 131 3 66 128 66 280 c 4
 66 442 140 574 294 574 c 4
EndSplineSet
Validated: 1
EndChar

StartChar: cedilla
Encoding: 184 184 1070
Width: 217
VWidth: 0
Flags: W
HStem: -63 63<67 89.9395>
VStem: 67 56<-25.9412 0> 102 65<-167.314 -75.9212>
LayerCount: 2
Fore
SplineSet
67 0 m 1xc0
 123 0 l 1xc0
 117 -35 l 1
 117 -35 167 -56 167 -107 c 0
 167 -147 141 -175 99 -224 c 1
 57 -203 l 1
 57 -203 102 -161 102 -119 c 0xa0
 102 -70 50 -63 50 -63 c 1
 67 0 l 1xc0
EndSplineSet
Validated: 1
EndChar

StartChar: Scedilla
Encoding: 350 350 1072
Width: 586
VWidth: 0
Flags: W
HStem: -11 88<220.198 293 351 385.873> 483 91<248.722 400.812>
VStem: 119 98<360.052 451.833> 332 65<-167.314 -75.9212> 420 103<110.641 204.692>
LayerCount: 2
Fore
SplineSet
88 84 m 2
 157 143 l 1
 157 143 212 77 310 77 c 0
 396 77 420 133 420 154 c 2
 420 155 l 0
 420 177 419 224 294 242 c 0
 138 265 119 356 119 399 c 0
 119 497 203 574 322 574 c 0
 420 574 511 497 511 497 c 1
 446 427 l 1
 446 427 395 483 322 483 c 0
 238 483 217 428 217 401 c 0
 217 347 287 338 364 322 c 0
 462 301 523 245 523 161 c 0
 523 99 463 8 351 -11 c 1
 347 -35 l 1
 347 -35 397 -56 397 -107 c 0
 397 -147 371 -175 329 -224 c 1
 287 -203 l 1
 287 -203 332 -161 332 -119 c 0
 332 -70 280 -63 280 -63 c 1
 293 -14 l 1
 174 -7 88 84 88 84 c 2
EndSplineSet
Validated: 1
EndChar

StartChar: ccedilla
Encoding: 231 231 1073
Width: 476
VWidth: 0
Flags: W
HStem: -13 69<200.684 231 279 305.609> 336 70<199.195 307.696>
VStem: 63 91<105.377 287.278> 263 56<-152.922 -65.8612>
LayerCount: 2
Fore
SplineSet
252 406 m 0
 330 406 393 362 420 287 c 1
 341 257 l 1
 326 308 294 336 252 336 c 0
 196 336 154 280 154 196 c 0
 154 112 196 56 252 56 c 0
 294 56 326 84 341 135 c 1
 420 105 l 1
 396 39 344 -3 279 -12 c 1
 276 -33 l 1
 276 -33 319 -51 319 -96 c 0
 319 -131 297 -155 261 -198 c 1
 225 -180 l 1
 225 -180 263 -143 263 -106 c 0
 263 -63 219 -57 219 -57 c 1
 231 -13 l 1
 136 -2 63 79 63 196 c 0
 63 322 147 406 252 406 c 0
EndSplineSet
Validated: 1
EndChar

StartChar: scedilla
Encoding: 351 351 1075
Width: 447
VWidth: 0
Flags: W
HStem: -9 69<162.509 212 260 285.018> 332 72<181.933 310.099>
VStem: 83 87<256.657 318.123> 243 56<-152.922 -65.8612> 300 91<76.0852 145.698>
LayerCount: 2
Fore
SplineSet
62 56 m 5
 117 112 l 5
 132 98 182 60 230 60 c 4
 265 60 300 84 300 112 c 4
 300 133 290 152 210 165 c 4
 100 183 83 238 83 280 c 4
 83 336 141 404 237 404 c 4
 330 404 386 348 386 348 c 5
 337 292 l 5
 323 306 279 332 244 332 c 4
 195 332 170 307 170 287 c 4
 170 252 217 247 266 234 c 4
 358 210 391 181 391 119 c 4
 391 68 340 3 260 -8 c 5
 256 -33 l 5
 256 -33 299 -51 299 -96 c 4
 299 -131 277 -155 241 -198 c 5
 205 -180 l 5
 205 -180 243 -143 243 -106 c 4
 243 -63 199 -57 199 -57 c 5
 212 -9 l 5
 116 0 62 56 62 56 c 5
EndSplineSet
Validated: 1
EndChar

StartChar: florin
Encoding: 402 402 1076
Width: 364
VWidth: 0
Flags: W
HStem: -168 81<45.774 140> 315 77<63 126 210 308> 483 77<215.651 312.33>
VStem: 126 84<-84.1124 315 392 475.841>
LayerCount: 2
Fore
SplineSet
210 315 m 1
 210 -70 l 2
 210 -133 154 -168 126 -168 c 0
 84 -168 63 -168 28 -154 c 1
 49 -84 l 1
 60 -86 71 -87 82 -87 c 0
 106 -87 126 -80 126 -56 c 2
 126 315 l 1
 63 315 l 1
 63 392 l 1
 126 392 l 1
 126 469 l 2
 126 518 168 560 238 560 c 0
 287 560 329 546 329 546 c 1
 308 476 l 1
 308 476 294 483 259 483 c 0
 224 483 210 462 210 441 c 2
 210 392 l 1
 308 392 l 1
 308 315 l 1
 210 315 l 1
EndSplineSet
Validated: 1
EndChar

StartChar: uni0283
Encoding: 643 643 1077
Width: 336
VWidth: 0
Flags: W
HStem: -168 81<45.7744 140> 479 82.2731<212.254 290.397>
VStem: 126 84<-84.1124 475.113>
LayerCount: 2
Fore
SplineSet
308 546 m 1
 287 476 l 1
 276 478 264 479 254 479 c 0
 230 479 210 472 210 448 c 2
 210 -70 l 2
 210 -133 154 -168 126 -168 c 0
 84 -168 63 -168 28 -154 c 1
 49 -84 l 1
 60 -86 72 -87 82 -87 c 0
 106 -87 126 -80 126 -56 c 2
 126 462 l 2
 126 534.806843887 175.875584722 561.273108031 231.294106795 561.273108031 c 0
 257.157565997 561.273108031 284.22829215 555.50868314 308 546 c 1
EndSplineSet
Validated: 1
EndChar

StartChar: Oslash
Encoding: 216 216 1080
Width: 588
VWidth: 0
Flags: W
HStem: -14 91<229.084 356.603> 0 21G<66 176> 483 91<231.397 356.014> 540 20G<408 522>
VStem: 66 95<177.415 396.941> 427 95<163.059 385.209>
LayerCount: 2
Fore
SplineSet
294 483 m 4x2c
 217 483 161 406 161 280 c 4
 161 240 167 205 177 176 c 5
 236 271 307 384 357 463 c 5
 339 476 317 483 294 483 c 4x2c
163 0 m 5x4c
 66 0 l 5
 66 0 86 32 117 81 c 5
 83 133 66 203 66 280 c 4
 66 442 140 574 294 574 c 4x6c
 338 574 377 563 408 543 c 5
 415 554 418 560 418 560 c 6
 522 560 l 5
 471 480 l 5
 505 427 522 357 522 280 c 4
 522 118 448 -14 294 -14 c 4x9c
 247 -14 208 -2 176 20 c 5
 163 0 l 5x4c
227 100 m 5
 246 85 269 77 294 77 c 4x8c
 371 77 427 154 427 280 c 4
 427 321 422 356 411 386 c 5
 227 100 l 5
EndSplineSet
Validated: 1
EndChar

StartChar: oslash
Encoding: 248 248 1081
Width: 504
VWidth: 0
Flags: W
HStem: -14 70<209.77 304.531> 336 70<199.469 294.23>
VStem: 70 84<135.117 287.278> 350 84<104.722 256.883>
LayerCount: 2
Fore
SplineSet
252 336 m 4
 196 336 154 280 154 196 c 4
 154 173 157 152 163 134 c 5
 295 324 l 5
 282 332 268 336 252 336 c 4
362 420 m 5
 434 392 l 5
 434 392 418 369 394 334 c 5
 419 298 434 251 434 196 c 4
 434 70 357 -14 252 -14 c 4
 221 -14 192 -7 167 7 c 5
 152 -15 142 -28 142 -28 c 6
 70 0 l 5
 110 58 l 5
 85 94 70 141 70 196 c 4
 70 322 147 406 252 406 c 4
 283 406 312 399 337 385 c 5
 362 420 l 5
209 68 m 5
 222 60 236 56 252 56 c 4
 308 56 350 112 350 196 c 4
 350 219 347 240 341 258 c 5
 298 196 248 124 209 68 c 5
EndSplineSet
Validated: 1
EndChar

StartChar: uni04BF
Encoding: 1215 1215 1082
Width: 566
VWidth: 0
Flags: WO
HStem: -175 109<306.274 372.078> -14 77<315.463 390.055> 168 63<85.312 141.568 231 405> 336 70<270.126 368.598>
VStem: 28 56<231.972 308> 139 92<102.593 168> 266 39<-75 -36.3465> 405 91<199.5 298.42>
LayerCount: 2
Fore
SplineSet
328 -175 m 0
 289 -175 266 -137 266 -98 c 0
 266 -64 282 -33 306 -13 c 1
 219 -2 149 67 139 168 c 1
 92 168 l 2
 64 168 28 200 28 228 c 2
 28 308 l 1
 84 329 l 1
 84 259 l 2
 84 245 98 231 112 231 c 2
 140 231 l 1
 144 274 155 308 178 336 c 0
 212 378 267 406 320 406 c 0
 418 406 496 315 496 210 c 0
 496 189 487 168 475 168 c 2
 231 168 l 1
 231 84 301 63 336 63 c 0
 371 63 392 81 420 116 c 1
 490 77 l 1
 449 8 381 -13 332 -14 c 0
 331 -14 l 0
 316 -29 306 -51 305 -75 c 1
 311 -69 320 -66 328 -66 c 0
 359 -66 384 -91 384 -121 c 0
 384 -151 359 -175 328 -175 c 0
320 336 m 0
 278 336 231 287 231 231 c 1
 402 231 l 2
 405 231 405 238 405 245 c 0
 405 286 362 336 320 336 c 0
EndSplineSet
Validated: 1
EndChar
